<svg width="109" height="104" viewBox="0 0 109 104" fill="none" xmlns="http://www.w3.org/2000/svg">
<path d="M68.4336 1.03809C71.7675 0.783506 74.7148 1.82201 76.9209 3.84082C78.2375 5.04584 79.2263 6.54298 79.8926 8.19824C79.9349 8.19216 79.9772 8.18582 80.0195 8.18066C86.4249 7.40166 91.1797 11.0076 92.8223 15.8486C94.0674 19.5188 93.4885 23.7985 90.7803 27.1709C92.9558 28.469 95.6213 29.5344 98.0352 30.2754C98.3413 30.3694 98.7959 30.4625 99.5137 30.5977C100.162 30.7197 100.992 30.8705 101.799 31.0752C102.598 31.2781 103.537 31.5717 104.406 32.0439C105.171 32.4596 106.044 33.1022 106.662 34.0986L106.782 34.3027L106.789 34.3145L106.795 34.3262L106.891 34.5088L106.896 34.5186L106.901 34.5293C108.288 37.3373 107.409 40.1075 106.208 41.9912C105.007 43.8737 103.192 45.4066 101.479 46.2793C98.4661 47.8133 95.1229 48.1894 91.9775 47.7783C91.7826 48.3355 91.5516 48.8733 91.2871 49.3975C92.6434 50.625 93.7591 52.0983 94.5693 53.7441L94.7422 54.1074L94.7461 54.1152L94.749 54.124L94.9355 54.5508L94.9502 54.585L95.0752 54.9033C97.6275 61.6091 94.6397 69.3224 88.5527 72.8037L88.542 72.8096L88.2656 72.9629L88.2559 72.9688C87.6812 73.2796 87.0792 73.5408 86.5381 73.7617C86.324 74.138 86.0782 74.5866 85.8008 75.0996C85.3351 75.9607 84.7769 76.9957 84.249 77.8242C80.7082 83.3822 77.0571 86.8593 72.1553 90.3477C72.3879 92.3273 72.1195 94.3912 71.1396 96.1592C69.7853 98.6024 67.3035 100.056 64.1875 99.9922C61.0861 101.225 57.3648 100.657 54.9346 98.1719C52.7238 98.5669 50.4853 98.7999 48.2363 98.8594L48.2178 98.8613L48.1885 98.8623C46.0379 98.8901 44.458 98.8753 42.5303 98.6631C41.9367 99.4362 41.2164 100.186 40.2939 100.743C38.8397 101.622 37.2543 101.831 35.6016 101.62C32.181 102.836 29.0636 101.391 26.9619 99.3379L26.7402 99.1162C24.8534 97.1713 24.2924 95.0101 24.1562 93.0176C20.9378 91.2323 17.956 89.1938 15.1387 86.5029L14.335 85.7295C6.13631 77.6503 1.35318 66.7084 1.01074 55.1748V55.1484L1 54.0312C1.02076 42.5034 5.12766 31.6987 13.2432 23.2646C21.1717 14.9546 31.9486 9.99406 43.3701 9.33984C46.8329 3.25562 54.4636 1.55556 60.4092 4.44238C62.625 2.40477 65.2066 1.27982 68.4336 1.03906V1.03809Z" fill="white" stroke="white" stroke-width="2"/>
<path d="M68.5859 3.03223C71.3929 2.81787 73.7892 3.68733 75.5703 5.31738C77.0535 6.67485 78.0681 8.52263 78.5693 10.6191C79.1159 10.4192 79.7168 10.2333 80.2617 10.167C85.6961 9.50607 89.5792 12.5169 90.9277 16.4912C92.1583 20.1181 91.2592 24.4924 87.6885 27.4785C90.3361 29.5843 94.2059 31.192 97.4492 32.1875L97.7998 32.2842C98.1756 32.378 98.6262 32.4649 99.1445 32.5625C99.8124 32.6882 100.574 32.8286 101.307 33.0146C102.037 33.2001 102.793 33.4443 103.451 33.8018C104.11 34.1596 104.739 34.6691 105.108 35.416C106.067 37.3569 105.517 39.3543 104.521 40.915C103.527 42.4742 101.992 43.7744 100.571 44.498H100.57C97.4391 46.0923 93.8237 46.2649 90.5176 45.4795C90.2997 46.7469 89.8559 47.8926 89.2256 49.0176C89.229 49.4255 89.2519 49.8664 89.2773 50.3154C90.843 51.5451 92.0941 53.1305 92.9238 54.9414L93.0967 55.3359L93.0996 55.3428C95.5124 61.2435 92.829 68.2245 87.3047 71.21L87.3037 71.209C86.6086 71.5849 85.8483 71.8879 85.1641 72.1572C84.8428 72.6737 84.4599 73.374 84.041 74.1484C83.5642 75.0301 83.0445 75.9939 82.5635 76.749C78.9513 82.4192 75.2481 85.8038 69.9688 89.4385C70.4473 91.4505 70.3017 93.5471 69.3916 95.1895C68.3665 97.039 66.4521 98.1629 63.8262 97.9746C61.0219 99.2934 57.5368 98.6022 55.7168 95.9883C53.2343 96.5005 50.7109 96.7947 48.1758 96.8613L48.1631 96.8623C45.616 96.8953 43.9731 96.8692 41.5869 96.5293C40.9243 97.5616 40.2056 98.4597 39.2598 99.0312C38.1645 99.6931 36.9052 99.8431 35.373 99.5615C32.8157 100.687 30.3863 99.7896 28.5498 98.0889L28.1758 97.7236C26.4266 95.9206 26.1173 93.8916 26.1182 91.8086C22.6172 89.9497 19.4677 87.8705 16.5215 85.0566C8.21127 77.2728 3.34871 66.4965 3.01074 55.1162V55.1074C2.7705 43.6625 6.69628 32.9531 14.6846 24.6514C22.526 16.4295 33.2841 11.6351 44.624 11.2852C47.4232 5.01355 55.2236 3.3386 60.7637 6.93262C62.8916 4.53519 65.3169 3.27632 68.5859 3.0332V3.03223Z" fill="black" stroke="black" stroke-width="2"/>
<path d="M67.614 6.26586C67.8903 6.24656 68.167 6.23276 68.444 6.22457C72.8426 6.11029 75.729 8.70598 76.1527 13.114C76.2121 13.7326 76.2072 14.3752 76.2187 14.9975C76.5586 14.7616 76.9125 14.5462 77.2782 14.3524C80.7144 12.5021 85.6103 12.3345 87.6053 16.345C89.954 21.068 86.0848 28.125 80.2874 26.1907C80.1375 27.427 80.0178 28.582 79.4766 29.7739C78.4882 31.9512 75.2097 33.0991 73.0596 32.0879C72.1234 31.6476 71.7076 30.8109 71.3977 29.8469C70.2098 31.9971 68.078 34.0083 65.3673 33.0715C63.2387 32.3357 62.2484 29.603 61.3772 27.668C61.3116 30.7007 61.6958 32.4701 58.2662 33.466C53.6123 34.8174 50.2512 33.5213 47.6524 29.5619C46.9677 32.5532 45.4479 33.8348 42.6203 34.8408C43.103 36.5128 43.2996 39.3824 43.272 41.1446C43.2197 44.4887 42.6191 45.4147 40.4352 47.5718C41.6599 47.9164 42.7174 48.2528 43.6591 49.148C45.3657 50.7701 45.5683 53.2253 43.9132 54.9449C48.6549 55.9821 51.551 61.2908 47.2454 64.7332C50.8459 65.172 52.8753 67.4156 52.9639 71.0737C52.9766 71.5966 52.9732 72.1205 52.9718 72.6445C56.2884 69.8036 58.963 71.4543 61.7221 74.1118L63.5588 73.755C63.0518 74.2617 60.6647 76.4762 60.4568 76.874L60.5302 77.0379C61.8111 77.7311 63.8171 75.9457 64.4219 74.8881L64.4391 75.0638C64.6477 77.2955 64.464 77.7979 63.0762 79.4755C66.2787 80.0016 68.0498 82.7465 66.7392 85.7987C65.9513 85.0623 65.4001 84.8079 64.4467 84.368C64.716 84.7734 65.1135 85.0483 65.384 85.4214C67.6478 88.5425 69.6471 93.5731 64.9971 95.5568C63.3706 93.2971 63.803 91.7316 62.8338 89.5215C61.6803 91.7812 62.3521 93.972 62.4985 96.305L62.4193 96.304C58.0702 96.1994 55.7038 93.5084 56.7526 89.0816C57.2344 87.0472 58.4258 85.7782 59.9824 84.4845C56.0393 85.9389 54.5545 89.3156 55.2236 93.3079C54.6906 93.379 54.1622 93.4685 53.6309 93.5504C49.6789 94.1596 45.785 93.9989 41.8145 93.7251C41.639 91.2508 41.3387 89.6886 39.72 87.7016C38.6207 86.3529 37.9527 85.8095 36.3362 85.1896C37.4589 86.3119 38.2888 87.0224 39.0321 88.4563C39.7979 90.0217 40.0208 91.0556 40.0958 92.8777C40.1572 94.3698 38.7057 97.1675 37.0554 97.0942C35.0096 97.0037 36.1221 92.1909 35.3976 91.281C35.3311 91.3101 35.2259 91.3521 35.1828 91.4136C33.8966 93.2378 33.9649 95.8544 33.9476 97.8834C32.5577 97.4543 30.5678 96.7352 29.7691 95.5051C27.1624 91.4934 29.2387 87.1442 32.5893 84.6473C29.1269 85.803 29.0362 86.3108 27.2733 89.3511C25.04 87.7533 22.7488 86.6666 20.6613 84.8543L20.6876 84.7874C21.3458 83.1239 21.7605 82.7465 23.3846 82.0436C21.2008 79.1316 21.9403 76.3985 25.1288 74.6056C25.7637 74.2477 26.5509 74.1248 27.2637 73.9706C25.5401 72.7221 24.8937 71.0338 26.4631 69.2775C27.6278 67.973 29.2112 67.8878 30.8496 67.808C30.9866 64.7483 33.6306 63.3565 36.2371 65.0556C37.0195 65.5655 37.5981 66.0151 38.4387 66.4464C38.2077 66.0431 37.9792 65.6388 37.7532 65.2324C36.3677 62.7355 35.831 60.6622 36.627 57.8763C35.4202 57.9216 33.2244 58.1427 32.3579 57.2748C28.2907 53.0625 33.961 50.3514 36.3205 47.3904C38.7513 44.3401 38.8241 41.4444 38.4465 37.7614C35.8071 42.8447 31.8534 47.8234 26.5584 50.4014C23.3662 51.8819 19.2349 52.9353 15.7804 51.8749C13.2606 51.1013 13.1355 48.4141 14.0988 46.3551C15.9154 42.4717 20.2615 40.186 23.8386 38.1949C24.8431 37.6358 26.0662 37.046 27.1483 36.6343C29.2297 36.0944 31.4923 35.921 33.5007 35.0701C34.5715 34.6164 36.9889 33.8876 36.3643 32.322C35.6583 32.2269 29.9893 35.2403 29.1856 34.1032C27.999 32.4245 28.7096 29.0496 30.4391 27.7807C32.2633 26.4423 33.7595 26.5518 35.8791 26.7616C32.6823 22.788 34.6548 18.3046 39.0572 16.3119C41.2929 15.2999 43.9446 15.9658 46.1301 16.8987C46.2151 16.2092 46.3068 15.5495 46.4413 14.8753C47.5844 9.14101 54.171 6.39545 59.1168 9.4376C59.9881 9.97353 60.4502 10.372 61.1988 11.0469L61.2874 10.9036C62.8586 8.38427 64.6969 6.94778 67.614 6.26586Z" fill="#F8F8F8"/>
<path d="M72.8052 41.9209L72.8725 42.0399C75.2031 46.1188 79.7022 49.5236 84.171 50.8926C93.9035 53.8733 92.6957 67.8835 82.7853 69.6549C84.2001 67.1418 84.6024 65.5904 83.9747 62.7161C85.4187 62.2212 89.3915 59.7965 88.7757 57.9896C88.0478 57.9821 85.6764 60.0919 84.4385 60.5286C80.8873 61.7824 80.456 59.0343 77.4076 58.216C73.8524 57.2608 72.9067 60.1534 76.8776 60.7722C78.1929 61.1356 80.5056 61.8493 81.3672 62.9091C82.3378 64.1036 83.235 68.5509 80.8722 68.8679C78.0026 69.2538 75.875 67.49 73.4268 66.4345C72.0521 65.8427 69.1947 65.7618 68.7533 67.6604L68.8259 67.8857C69.4633 68.0722 71.2298 67.1612 72.4047 67.5623C76.1637 68.8442 77.2095 70.6015 81.4912 70.3967C80.4959 70.9346 79.1464 71.6635 77.9674 71.8877C70.2283 73.3561 61.3897 71.4079 54.5553 67.6733C54.3836 67.5795 53.8169 66.6394 53.655 66.4637C52.8121 65.1979 51.9912 64.4034 50.6595 63.6616C51.3942 62.0002 51.4344 60.1135 50.7712 58.4209C49.8767 56.1848 48.0855 54.89 46.2642 53.5003C46.3266 53.1812 46.3994 52.8426 46.4531 52.5246C48.9695 53.7407 51.4405 54.8059 54.2619 55.0226L54.4833 54.9072C54.5222 54.3628 54.383 53.7105 54.2908 53.1607C55.2907 53.1822 55.9777 53.1661 56.975 53.0949C57.0496 53.5391 57.1588 54.5687 57.4621 54.8425C63.4391 53.538 66.5464 49.5556 66.5577 43.4122C68.6845 42.8519 70.8729 42.6341 72.8052 41.9209Z" fill="#2A231E"/>
<path d="M54.2906 53.1607C55.2905 53.1823 55.9775 53.1661 56.9748 53.095C57.0494 53.5392 57.1586 54.5688 57.4619 54.8426C56.7512 54.931 54.9355 55.1305 54.2617 55.0227L54.4831 54.9073C54.522 54.3628 54.3828 53.7106 54.2906 53.1607Z" fill="#18130C"/>
<path d="M6.84616 45.1704C8.03886 46.1671 11.6564 45.1983 12.1514 45.8893C8.65139 55.2016 23.6511 54.9059 29.5769 53.2628C29.4291 54.0423 29.5962 55.0736 29.5769 55.8628C29.926 58.1721 32.2512 58.7175 34.4769 59.1628C34.9769 60.5628 34.9769 61.9628 35.8769 63.3628C31.6769 62.5628 30.4806 64.3797 29.9575 65.1398C29.6776 65.722 29.5461 66.0195 29.3501 66.6297C26.3237 67.0319 23.6876 68.7644 24.2012 72.1788C24.2666 72.6133 24.3598 73.0424 24.4807 73.465C23.6491 73.8715 23.075 74.2187 22.3605 74.817C20.3271 77.2601 20.2073 78.9182 21.4328 81.7494C20.3286 82.3919 20.0701 82.7876 19.4484 83.8787C18.6705 83.0571 17.6019 82.2442 16.8304 81.4119C14.9786 79.4131 13.1028 77.0757 11.7422 74.7167C9.88172 71.8382 8.5731 68.4841 7.57181 65.2271C6.544 62.134 6.14899 58.671 5.92576 55.428C5.91584 51.188 6.05883 49.2391 6.84616 45.1704Z" fill="#37B055"/>
<path d="M7.57178 65.227C13.3371 64.8691 19.4035 65.3014 25.2043 65.117C26.6786 65.0707 28.4993 65.0502 29.9575 65.1397C29.6776 65.7218 29.5461 66.0194 29.35 66.6296C26.3237 67.0318 23.6875 68.7643 24.2012 72.1787C24.2665 72.6132 24.3598 73.0423 24.4807 73.4649C23.649 73.8714 23.075 74.2185 22.3605 74.8169C20.3271 77.2599 20.2073 78.9181 21.4327 81.7493C20.3286 82.3918 20.0701 82.7875 19.4484 83.8786C18.6704 83.057 17.6019 82.2441 16.8304 81.4118C14.9786 79.413 13.1027 77.0756 11.7421 74.7166C9.88168 71.838 8.57306 68.484 7.57178 65.227Z" fill="#026FF4"/>
<path d="M11.7422 74.7168C12.8693 74.8591 14.2669 74.8246 15.4323 74.8322C17.7417 74.8451 20.0512 74.8397 22.3605 74.8171C20.3271 77.2601 20.2073 78.9183 21.4328 81.7494C20.3286 82.392 20.0701 82.7877 19.4485 83.8787C18.6705 83.0572 17.6019 82.2443 16.8305 81.412C14.9786 79.4131 13.1028 77.0757 11.7422 74.7168Z" fill="#823B8C"/>
<path d="M6.84617 45.1704C8.03886 46.1671 11.6564 45.1983 12.1514 45.8893C8.65139 55.2016 23.6511 54.8059 29.5769 53.1628C29.4291 53.9423 29.5962 54.6183 29.5769 55.4075C27.3939 55.2544 20.4043 55.4075 18.1648 55.4075L5.92576 55.428C5.91584 51.188 6.05883 49.2391 6.84617 45.1704Z" fill="#FBE531"/>
<path d="M17.5378 25.8661C21.7168 21.7008 26.7576 18.501 32.3058 16.4916C33.6177 16.0221 34.9834 15.6782 36.3265 15.3013C33.0934 17.8372 31.54 21.0531 32.8027 25.1198C31.6686 25.2852 30.834 25.4165 29.7708 25.9112C26.9811 27.9144 26.4333 30.3453 26.8922 33.6073C25.6219 34.3569 25.2468 35.6169 24.2738 35.9576C20.318 38.1215 13.9544 41.4287 12.1514 45.8893C11.6565 45.1983 8.03889 46.1671 6.84619 45.1704C7.05216 43.076 9.25035 37.5344 10.2731 35.7255C12.627 31.619 14.0286 29.2455 17.5378 25.8661Z" fill="#F67B1B"/>
<path d="M10.2731 35.7256C12.3032 35.88 23.4219 35.5407 24.2738 35.9577C20.318 38.1216 13.9544 41.4288 12.1514 45.8894C11.6565 45.1984 8.03889 46.1672 6.84619 45.1705C7.05216 43.0761 9.25035 37.5345 10.2731 35.7256Z" fill="#F9B327"/>
<path d="M17.5376 25.8661C21.7167 21.7008 26.7574 18.501 32.3056 16.4916C33.6176 16.0221 34.9832 15.6782 36.3264 15.3013C33.0932 17.8372 31.5398 21.0531 32.8025 25.1198C31.6685 25.2852 30.8338 25.4165 29.7706 25.9112C29.4016 25.7598 18.9311 25.8604 17.5376 25.8661Z" fill="#F52720"/>
<path d="M49.2558 34.3518C51.5695 35.4279 53.4727 36.3618 55.8762 37.3486C58.4461 38.4036 61.6625 39.6346 64.0302 40.9728C64.8395 44.0237 65.1826 45.9814 63.358 48.8639C61.7877 51.345 59.8026 52.4825 56.9749 53.0949C55.9776 53.1661 55.2906 53.1822 54.2907 53.1607C51.9444 53.0507 48.8944 51.7712 46.9236 50.5317C46.7423 49.6565 46.6884 49.4553 46.3153 48.6278C46.503 48.6931 46.6943 48.7481 46.8882 48.7924C48.1827 49.0963 49.7329 49.2392 50.9132 48.4465C54.1329 46.284 53.3476 39.5396 49.3429 38.6668C47.8319 38.3375 46.4426 39.0188 45.2125 39.8533C45.2039 39.2172 45.1203 38.4655 45.0654 37.8232C46.8452 36.3941 47.5673 36.4118 49.2558 34.3518Z" fill="white"/>
<path d="M81.9331 28.4539C82.9436 28.6398 83.5766 28.5053 84.6431 28.9417C86.0558 29.5195 87.0199 30.6058 88.2795 31.3977C89.8636 32.3936 91.9158 33.3729 93.6606 34.0268C94.6743 34.3982 95.7063 34.7174 96.7524 34.9833C98.3753 35.4051 101.085 35.6931 102.311 36.7404C103.175 37.4786 101.974 39.4063 101.182 39.9306C99.0094 41.3698 95.7872 41.3768 93.3069 41.0858C89.7374 40.6669 88.4951 38.1568 86.8495 35.4271C86.3157 34.5629 85.5188 33.6124 85.013 32.7352C84.5752 31.9761 84.3778 31.0369 83.8386 30.2897C83.6564 30.1816 83.4289 30.1625 83.224 30.1992C81.175 30.5668 81.6916 32.6908 80.4935 34.0402C78.6928 35.779 76.4148 37.3588 73.9003 37.6771C73.7746 37.895 73.6462 38.1114 73.5151 38.3262C70.216 43.6723 61.2663 37.9662 57.6035 35.6613C60.0323 35.1605 60.5236 34.5389 62.5847 33.454C66.3099 35.7742 67.4681 35.7921 71.6639 34.3924C76.1979 36.573 81.3832 33.3621 81.9331 28.4539Z" fill="#2A231E"/>
<path d="M76.9298 74.1358C78.8286 73.532 79.5138 73.5137 81.559 72.6501L80.4105 74.8086C76.9594 79.9275 73.2802 84.296 67.7788 87.3719C69.1467 83.4292 69.2344 81.3441 65.4305 78.7707C65.9626 77.3917 66.3191 76.5206 65.9705 75.0112C65.8698 74.6716 65.5204 73.9364 65.3618 73.5806C70.0036 74.1153 71.9281 74.8053 76.9298 74.1358Z" fill="#823B8C"/>
<path d="M65.3618 73.5803C70.0036 74.1151 71.9281 74.8051 76.9298 74.1355L76.8059 74.4568L76.448 74.5679L76.4066 74.6681C76.6932 74.8309 76.7442 74.8363 77.069 74.9183C73.3113 75.1145 69.5576 74.8288 65.9705 75.011C65.8698 74.6714 65.5204 73.9361 65.3618 73.5803Z" fill="#1A65D8"/>
<path d="M76.93 74.1358C78.8288 73.532 79.514 73.5137 81.5592 72.6501L80.4107 74.8086C79.2646 74.8776 78.2175 74.9498 77.0692 74.9185C76.7444 74.8366 76.6934 74.8312 76.4067 74.6684L76.4481 74.5681L76.8061 74.4571L76.93 74.1358Z" fill="#026FF4"/>
<path d="M82.9846 34.238C83.4472 34.3746 84.1913 35.4363 84.5331 35.8232C87.805 39.5326 89.1562 45.4396 85.5738 49.5155C84.6916 49.0817 82.9587 48.6043 81.9019 48.2186C81.243 47.9817 80.9928 47.8586 80.3792 47.5155C81.298 44.6127 81.6786 41.4422 78.4373 39.6822C77.6265 39.2419 77.074 39.2271 76.1743 39.1723C76.5048 38.9357 76.8751 38.7123 77.2218 38.4985C79.252 37.2466 81.1373 35.7448 82.9846 34.238Z" fill="white"/>
<path d="M87.0771 35.8629C86.2771 34.5029 84.6771 31.6296 83.9771 30.3629C83.9771 30.1629 84.1971 29.6829 85.0771 29.3629C86.1771 28.9629 87.0771 30.3629 88.5771 31.2629C90.0771 32.1629 95.477 34.7629 99.677 35.8629C103.877 36.9629 102.377 36.6629 102.677 37.5629C102.977 38.4629 100.277 40.5629 98.0771 41.2629C95.8771 41.9629 94.1771 41.2629 90.8771 40.1629C87.5771 39.0629 88.0771 37.5629 87.0771 35.8629Z" fill="#F8F8F8"/>
</svg>
