<svg width="2079" height="1170" viewBox="0 0 2079 1170" fill="none" xmlns="http://www.w3.org/2000/svg">
<g clip-path="url(#clip0_541_2300)">
<path d="M1056.85 66.0919L1059.66 67.5687C1064.08 65.3311 1064.24 60.2789 1065.43 55.5154C1065.64 68.2646 1065.51 82.9197 1067.88 95.2996C1070.42 166.473 1073.87 237.61 1078.23 308.696C1079.69 333.869 1084.06 372.45 1083.99 396.163C1085.01 404.524 1085.99 412.91 1086.67 421.32C1091.6 482.253 1097.58 543.756 1107.78 604.02C1115.06 647.01 1123.35 692.12 1141.83 731.829C1157.62 765.735 1185.39 790.492 1218.97 806.25C1225.84 810.767 1250.41 819.931 1259.11 823.008C1312.78 841.992 1368.87 856.932 1423.62 872.759C1434.74 875.972 1466.84 885.709 1475.89 886.645C1481.38 888.484 1484.74 889.469 1490.39 890.651C1495.07 892.04 1515.18 897.468 1518 899.228C1526.37 899.707 1543.93 907.013 1553.31 908.614C1562.61 912.042 1572.87 913.33 1580.1 916.329C1589.41 914.767 1598.31 915.438 1607.47 914.467C1625.32 912.576 1642.67 910.627 1660.62 909.559C1673.83 908.773 1686.83 908.843 1699.96 908.164C1712.89 907.495 1725.44 903.15 1738.63 902.46C1744.5 895.377 1762.45 890.816 1767.8 881.615L1767.32 880.68C1765.47 880.809 1765.17 880.526 1763.34 880.017C1771.86 879.968 1798.97 881.168 1805.09 880.528C1808.82 883.432 1812.53 886.364 1816.22 889.324C1822.64 891.255 1836.42 900.978 1844.26 904.335C1905.32 930.498 1971.96 938.999 2037.14 948.767C2050.96 950.836 2065.09 951.402 2079 953.659V1164.25V1170H1655.39H1327.31C1275.11 1070.43 1218.67 1000.35 1142.24 918.151C1115.15 889.022 1087.1 857.791 1072.69 820.13C1050.63 762.485 1052.43 629.111 1050.63 563.638L1048.74 485.438C1048.31 468.811 1047.27 451.622 1047.88 435.021C1045.29 412.282 1045.98 374.196 1046.88 351.021C1045.68 342.466 1046.07 302.918 1045.81 291.26C1044.93 226.05 1044.64 160.832 1044.94 95.6166L1049.02 97.2917L1053.31 95.8181L1053.83 90.4247L1055.56 85.4915L1056.74 85.8195C1057.08 80.3468 1056.84 71.7911 1056.85 66.0919Z" fill="#0082F9"/>
<path d="M1053.83 90.4247L1055.56 85.4915L1056.74 85.8195C1057.36 153.481 1058.96 221.129 1061.55 288.744C1062.39 315.802 1065.04 343.508 1064.86 370.591L1064.97 375.125C1064.46 381.514 1064.9 387.055 1065.24 393.428L1066.1 396.614C1068.27 452.888 1071.58 509.113 1076.02 565.254C1077.1 579.783 1078.43 594.294 1080 608.778C1080.89 616.262 1083.37 630.747 1083.21 637.344C1084.67 641.044 1091.64 685.435 1092.05 691.163C1105.42 761.9 1119.69 798.536 1182.48 840.018C1237.4 876.292 1297.46 906.645 1354.57 939.778C1464.86 1002.45 1566.07 1079.91 1655.39 1170H1327.31C1275.11 1070.43 1218.67 1000.35 1142.24 918.151C1115.15 889.022 1087.1 857.791 1072.69 820.13C1050.63 762.485 1052.43 629.111 1050.63 563.638L1048.74 485.438C1048.31 468.811 1047.27 451.622 1047.88 435.021C1045.29 412.282 1045.98 374.196 1046.88 351.021C1045.68 342.466 1046.07 302.918 1045.81 291.26C1044.93 226.05 1044.64 160.832 1044.94 95.6166L1049.02 97.2917L1053.31 95.8181L1053.83 90.4247Z" fill="#FC64BA"/>
<path d="M1044.94 95.6166L1049.02 97.2917L1053.31 95.8181C1052.49 96.9639 1051.47 98.3812 1050.25 100.07C1049.11 121.461 1052.4 165.029 1050.04 184.509L1049.17 176.699C1046.62 215.819 1048.19 260.089 1047.49 299.413C1047.31 309.471 1048.29 342.825 1046.88 351.021C1045.68 342.466 1046.07 302.918 1045.81 291.26C1044.93 226.05 1044.64 160.832 1044.94 95.6166Z" fill="#F87DB1"/>
<path d="M1763.34 880.017C1771.86 879.968 1798.97 881.168 1805.09 880.528C1808.82 883.432 1812.53 886.364 1816.22 889.324C1822.64 891.255 1836.42 900.978 1844.26 904.335C1905.32 930.498 1971.96 938.999 2037.14 948.767C2050.96 950.836 2065.09 951.402 2079 953.659V1164.25C2067.46 1157.54 2048.71 1142.28 2035.65 1133.96C2032.93 1131.62 2026.6 1128.07 2022.21 1124.48C2012.37 1119.32 1997.52 1108.5 1987.21 1102.38C1967.63 1090.73 1948.05 1079.22 1928.22 1068.01C1915.04 1060.64 1901.69 1053.6 1888.17 1046.9C1882.79 1044.22 1875.03 1041.49 1870.96 1038.54L1870.77 1037.89C1867.05 1033.96 1833.54 1018.31 1827.1 1015.51C1812.18 1007.62 1793.33 999.477 1777.73 992.505C1735.26 973.47 1692.06 956.073 1648.25 940.353C1625.48 932.053 1602.99 924.819 1580.1 916.329C1589.41 914.767 1598.31 915.438 1607.47 914.467C1625.32 912.576 1642.67 910.627 1660.62 909.559C1673.83 908.773 1686.83 908.843 1699.96 908.164C1712.89 907.495 1725.44 903.15 1738.63 902.46C1744.5 895.377 1762.45 890.816 1767.8 881.615L1767.32 880.68C1765.47 880.809 1765.17 880.526 1763.34 880.017Z" fill="#06D684"/>
<path d="M1763.34 880.017C1771.86 879.968 1798.97 881.168 1805.09 880.528C1808.82 883.432 1812.53 886.364 1816.22 889.324C1799.75 893.104 1793.89 891.646 1777.72 893.371C1769.82 894.214 1746.19 902.514 1738.63 902.46C1744.5 895.377 1762.45 890.816 1767.8 881.615L1767.32 880.68C1765.47 880.809 1765.17 880.526 1763.34 880.017Z" fill="#D6D91A"/>
<path d="M2022.21 1124.48C2027.6 1124.96 2031.28 1124.34 2034.78 1127.46C2035.31 1130.06 2035.49 1131.31 2035.65 1133.96C2032.93 1131.62 2026.6 1128.07 2022.21 1124.48Z" fill="#06D684"/>
<path d="M1518 899.228C1526.37 899.707 1543.93 907.013 1553.31 908.614C1562.61 912.042 1572.87 913.33 1580.1 916.329C1602.99 924.819 1625.48 932.053 1648.25 940.353C1692.06 956.073 1735.26 973.47 1777.73 992.505C1793.33 999.477 1812.18 1007.62 1827.1 1015.51C1826.1 1017.95 1825.58 1018.05 1823.27 1019.61C1815.78 1015.34 1802.79 1010.63 1794.45 1007.17L1747.16 987.113C1673.4 955.78 1603.33 923.624 1525.56 902.874C1523.01 902.194 1519.44 901.285 1518 899.228Z" fill="#037C2B"/>
<path d="M1827.1 1015.51C1833.54 1018.31 1867.05 1033.96 1870.77 1037.89L1870.96 1038.54C1865.64 1039.03 1831.14 1021.47 1823.27 1019.61C1825.58 1018.05 1826.1 1017.95 1827.1 1015.51Z" fill="#037C2B"/>
<path d="M1805.09 880.528C1772.11 852.871 1787.21 813.983 1811.96 787.647C1873.56 722.095 1989.28 671.261 2079 666.663V953.659C2065.09 951.402 2050.96 950.836 2037.14 948.767C1971.96 938.999 1905.32 930.498 1844.26 904.335C1836.42 900.978 1822.64 891.255 1816.22 889.324C1812.53 886.364 1808.82 883.432 1805.09 880.528Z" fill="#0082F9"/>
<path d="M2079 487.176V629.578C2051.47 631.763 2027.15 637.445 2000.09 644.248C1969.69 651.89 1917.85 665.13 1891.32 641.714C1866.16 619.498 1892.89 580.695 1911.07 562.237C1953.03 519.642 2018.72 488.29 2079 487.176Z" fill="#FA532C"/>
<path d="M1418.73 768.302C1459.2 763.741 1527.41 767.016 1544.02 813.118C1553.86 854.662 1522.94 874.585 1487.85 884.147L1475.89 886.645C1466.84 885.709 1434.74 875.972 1423.62 872.759C1368.87 856.932 1312.78 841.992 1259.11 823.008C1250.41 819.931 1225.84 810.767 1218.97 806.25C1232.67 804.08 1246.91 807.763 1263.65 804.05C1316.43 792.346 1364.74 774.693 1418.73 768.302Z" fill="#FDD509"/>
<path d="M1418.73 768.302C1425.62 763.051 1448.15 755.216 1457.2 752.028C1503.01 735.881 1551.12 718.08 1600.53 723.172C1644.01 727.653 1660.07 767.504 1621.87 793.949C1598.91 809.834 1571.28 812.617 1544.02 813.118C1527.41 767.016 1459.2 763.741 1418.73 768.302Z" fill="#0082F9"/>
<path d="M1553.31 908.614C1570.99 908.071 1609.83 900.285 1627.67 896.62C1671.94 887.529 1717.85 877.958 1763.34 880.017C1765.17 880.526 1765.47 880.809 1767.32 880.68L1767.8 881.615C1762.45 890.816 1744.5 895.377 1738.63 902.46C1725.44 903.15 1712.89 907.495 1699.96 908.164C1686.83 908.843 1673.83 908.773 1660.62 909.559C1642.67 910.627 1625.32 912.576 1607.47 914.467C1598.31 915.438 1589.41 914.767 1580.1 916.329C1572.87 913.33 1562.61 912.042 1553.31 908.614Z" fill="#FDD509"/>
<path d="M1055.23 0H1064.48C1065.28 27.6784 1066.88 55.2507 1067.84 82.9172C1067.98 87.1356 1068.17 91.0808 1067.88 95.2996C1065.51 82.9197 1065.64 68.2646 1065.43 55.5154C1064.24 60.2789 1064.08 65.3311 1059.66 67.5687L1056.85 66.0919L1055.47 50.2718C1056.89 53.8608 1057.45 55.6021 1059.68 58.7902L1061.16 58.4854C1062.52 55.227 1061.94 50.5078 1060.47 47.3701L1056.86 47.4793C1054.17 40.8519 1055.18 9.27774 1055.23 0Z" fill="#58ACDC"/>
<path d="M1475.89 886.645L1487.85 884.147C1492.69 884.386 1492.61 883.578 1495.67 886.079L1495.86 887.365C1493.24 890.234 1494.51 889.298 1490.39 890.651C1484.74 889.469 1481.38 888.484 1475.89 886.645Z" fill="#FAF8F3"/>
<path d="M1822.26 642.817C1839.85 639.984 1858.28 643.815 1861.19 664.905C1863.45 681.303 1848.43 698.053 1836.13 707.54C1812.44 725.813 1781.84 733.95 1754.5 745.274C1748.3 747.844 1742.05 750.691 1735.69 752.626C1729.95 757.137 1714.65 760.091 1707.99 755.829C1698.12 749.513 1707.11 733.214 1711.75 726.571C1735.52 692.535 1780.56 651.363 1822.26 642.817Z" fill="#FDD509"/>
<path d="M1368.65 602.384C1394.51 599.667 1402.98 624.975 1383.68 642.322C1363.84 660.152 1342.92 661.589 1320.03 673.072C1314.29 675.82 1306.49 678.949 1300.26 676.064C1293.6 670.074 1299 657.853 1303.18 651.856C1318.87 629.359 1341.22 608.22 1368.65 602.384Z" fill="#06D684"/>
<path d="M1243.63 682.288C1256.88 680.886 1270.38 682.913 1268.09 702.567C1266.95 712.336 1248.53 723.993 1240.39 727.384C1233.42 730.292 1225.03 732.145 1217.72 736.892C1211.4 739.543 1203.48 744.686 1197.83 738.14C1194.23 728.349 1205.48 713.799 1211.59 706.394C1220.23 695.94 1230.85 687.148 1243.63 682.288Z" fill="#FC64BA"/>
<path d="M1668.08 817.302C1687.22 815.405 1693.47 825.711 1677.03 839.075C1671.16 840.252 1668.24 840.555 1662.25 840.874C1655.97 840.928 1641.27 842.458 1640.71 833.659C1645.5 824.445 1659.04 820.478 1668.08 817.302Z" fill="#F6974E"/>
<path d="M1033.72 0H1044H1055.23C1055.18 9.27774 1054.17 40.8519 1056.86 47.4793L1060.47 47.3701C1061.94 50.5078 1062.52 55.227 1061.16 58.4854L1059.68 58.7902C1057.45 55.6021 1056.89 53.8608 1055.47 50.2718L1056.85 66.0919C1056.84 71.7911 1057.08 80.3468 1056.74 85.8195L1055.56 85.4915L1053.83 90.4247L1053.31 95.8181L1049.02 97.2917L1044.94 95.6166C1044.64 160.832 1044.93 226.05 1045.81 291.26C1046.07 302.918 1045.68 342.466 1046.88 351.021C1045.98 374.196 1045.29 412.282 1047.88 435.021C1047.27 451.622 1048.31 468.811 1048.74 485.438L1050.63 563.638C1052.43 629.111 1050.63 762.485 1072.69 820.13C1087.1 857.791 1115.15 889.022 1142.24 918.151C1218.67 1000.35 1275.11 1070.43 1327.31 1170H753.342C754.667 1162.79 766.406 1134.32 769.687 1126.42C807.248 1036.63 857.685 952.794 919.412 877.543C945.784 845.827 991.176 805.642 1004.82 769.72C1020.65 728.035 1022.93 660.339 1024.78 615.447C1026.66 577.566 1027.89 539.655 1028.47 501.732L1032.14 239.636C1032.46 180.794 1031.7 115.235 1033.97 56.6131C1032.95 40.7118 1033.72 16.5167 1033.72 0Z" fill="#FDD509"/>
<path d="M1044 0H1055.23C1055.18 9.27774 1054.17 40.8519 1056.86 47.4793L1060.47 47.3701C1061.94 50.5078 1062.52 55.227 1061.16 58.4854L1059.68 58.7902C1057.45 55.6021 1056.89 53.8608 1055.47 50.2718L1056.85 66.0919C1056.84 71.7911 1057.08 80.3468 1056.74 85.8195L1055.56 85.4915L1053.83 90.4247L1053.31 95.8181L1049.02 97.2917L1044.94 95.6166L1044.53 94.8105C1045.09 87.0047 1044.68 73.7448 1044.7 65.5285C1044.21 43.7217 1044.39 21.8532 1044 0Z" fill="#F87DB1"/>
<path d="M1044.7 65.5286L1050.78 65.6546C1047.93 67.9557 1047.65 67.395 1047.28 71.5315C1046.81 76.8799 1047.22 93.0036 1049.02 97.2918L1044.94 95.6167L1044.53 94.8106C1045.09 87.0048 1044.68 73.7449 1044.7 65.5286Z" fill="#ED8B96"/>
<path d="M1012.64 0H1025.3H1033.72C1033.72 16.5167 1032.95 40.7118 1033.97 56.6131C1031.7 115.235 1032.46 180.794 1032.14 239.636L1028.47 501.732C1027.89 539.655 1026.66 577.566 1024.78 615.447C1022.93 660.339 1020.65 728.035 1004.82 769.72C991.176 805.642 945.784 845.827 919.412 877.543C857.685 952.794 807.248 1036.63 769.687 1126.42C766.406 1134.32 754.667 1162.79 753.342 1170H462.176C546.884 1061.73 648.111 967.483 762.139 890.707C781.678 877.7 801.729 865.479 822.246 854.075C832.754 848.15 869.949 829.908 875.823 823.773C877.893 822.48 881.699 821.469 884.134 820.567C904.319 813.089 924.749 803.103 941.162 788.889C977.406 757.499 986.164 705.333 993.474 660.472C996.25 643.431 999.339 625.913 1000.59 608.704C999.974 606.772 999.619 604.523 997.511 603.602C990.638 600.6 974.293 602.874 967.701 605.037C969.68 584.628 974.251 559.52 977.024 538.681C982.306 497.967 986.74 457.148 990.323 416.249C996.809 330.906 1002.14 245.48 1006.32 159.993C1008.68 106.812 1009.97 52.9822 1012.64 0Z" fill="#FA532C"/>
<path d="M1012.64 0H1025.3C1023.35 157.083 1018.62 314.119 1011.09 471.034C1009.43 502.033 1008.05 533.137 1005.22 564.071C1004.4 572.955 1002.75 600.773 1000.59 608.704C999.974 606.772 999.619 604.523 997.511 603.602C990.638 600.6 974.293 602.874 967.701 605.037C969.68 584.628 974.251 559.52 977.024 538.681C982.306 497.967 986.74 457.148 990.323 416.249C996.809 330.906 1002.14 245.48 1006.32 159.993C1008.68 106.812 1009.97 52.9822 1012.64 0Z" fill="#06D684"/>
<path d="M22.6602 1170C27.3307 1166.15 39.6419 1158.57 45.031 1155.15C64.6312 1142.93 84.4128 1131 104.369 1119.37C174.074 1078.63 245.876 1041.58 319.476 1008.38C466.939 940.11 620.629 886.192 778.42 847.367L838.425 832.722C849.973 829.841 864.392 825.576 875.824 823.773C869.95 829.908 832.755 848.15 822.247 854.075C801.73 865.479 781.679 877.7 762.14 890.707C648.112 967.483 546.885 1061.73 462.177 1170H22.6602Z" fill="#FDD509"/>
<path d="M967.701 605.037C974.293 602.874 990.638 600.6 997.511 603.602C999.619 604.523 999.974 606.772 1000.59 608.704C999.339 625.913 996.25 643.431 993.474 660.472C986.164 705.333 977.406 757.499 941.162 788.889C924.749 803.103 904.319 813.089 884.134 820.567C881.699 821.469 877.893 822.48 875.823 823.773C864.391 825.576 849.972 829.841 838.424 832.722L778.419 847.367C620.628 886.192 466.938 940.11 319.475 1008.38C245.875 1041.58 174.073 1078.63 104.368 1119.37C84.412 1131 64.6304 1142.93 45.0302 1155.15C39.6411 1158.57 27.3299 1166.15 22.6594 1170H0V1016.43C3.80222 1014.27 16.1441 1010.13 20.6956 1008.5C34.3976 1003.57 48.1294 998.729 61.8902 993.969C163.654 959.758 266.928 930.214 371.389 905.431C405.387 897.343 445.399 887.382 479.374 880.875C480.741 880.295 525.995 872.93 531.361 871.84C593.439 859.239 656.498 849.381 718.698 837.282C745.836 832.002 777.826 826.293 804.307 818.927C836.848 809.13 852.384 806.988 882.569 788.189C946.687 748.257 952.473 670.704 967.701 605.037Z" fill="#05D48F"/>
<path d="M0 502.188C11.2267 501.422 22.2233 499.458 33.5657 499.056C155.569 494.737 292.67 541.937 367.7 642.055C369.499 644.455 370.756 648.989 372.271 651.69C393.95 683.007 369.727 714.987 334.353 714.632C298.482 714.272 268.071 703.553 233.659 696.001C181.901 683.733 129.355 677.565 76.2031 682.498C74.4662 681.655 70.8641 678.55 69.2185 677.259C47.8531 660.499 24.6054 645.271 0 633.677V502.188Z" fill="#FDD509"/>
<path d="M348.372 784.771C349.649 772.663 361.887 759.066 371.089 751.556C399.929 728.015 446.085 724.871 481.66 729.137C582.93 741.281 673.4 795.161 772.444 816.269C782.138 818.335 793.739 816.147 804.307 818.927C777.826 826.293 745.836 832.002 718.698 837.282C656.498 849.381 593.439 859.239 531.361 871.84C525.995 872.93 480.741 880.295 479.374 880.875C446.597 877.464 420.696 876.977 390.232 861.483C382.902 857.755 373.096 848.783 367.151 846.53L366.716 845.083C347.212 827.8 341.822 809.567 348.372 784.771Z" fill="#FC64BA"/>
<path d="M0 633.677C24.6054 645.271 47.8531 660.499 69.2185 677.259C70.8641 678.55 74.4662 681.655 76.2031 682.498C108.929 710.295 159.695 757.739 163.722 803.588C164.929 818.236 160.136 832.746 150.441 843.794C118.054 881.361 45.3356 881.405 0 880.186V633.677Z" fill="#06D684"/>
<path d="M237.772 830.715C225.625 774.089 315.404 780.635 348.371 784.771C341.821 809.567 347.211 827.8 366.715 845.083L367.15 846.53C325.497 850.697 269.636 869.601 237.772 830.715Z" fill="#0082F9"/>
<path d="M580.855 575.208C594.642 574.426 603.807 574.596 617.37 579.508C651.655 592.205 681.407 620.661 697.718 653.13C706.651 670.913 700.457 687.466 678.422 676.291C664.271 668.137 652.695 662.5 637.001 657.274C615.3 650.027 594.334 647.21 574.738 634.476C559.899 624.833 547.522 606.063 558.492 588.591C562.735 581.832 573.004 576.702 580.855 575.208Z" fill="#0082F9"/>
<path d="M734.803 696.449C735.547 696.328 736.293 696.213 737.04 696.105C752.594 693.866 764.505 700.082 776.834 709.134C786.03 715.886 809.933 739.277 801.093 750.728C798.127 752.799 797.311 752.721 793.781 752.926C793.075 752.825 789.75 752.294 789.006 752.007C769.077 744.113 738.434 743.432 726.201 723.462C719.565 712.632 724.44 702.317 734.803 696.449Z" fill="#FA532C"/>
<path d="M849.406 671.059C861.496 669.882 868.604 677.307 874.782 687.023C880.828 696.532 893.553 721.092 881.417 728.973C866.299 720.506 825.339 688.805 849.406 671.059Z" fill="#FDD509"/>
</g>
<defs>
<clipPath id="clip0_541_2300">
<rect width="2079" height="1170" fill="white"/>
</clipPath>
</defs>
</svg>
