<svg width="104" height="95" viewBox="0 0 104 95" fill="none" xmlns="http://www.w3.org/2000/svg">
<path d="M42.6963 1.00977C45.6855 0.891622 48.262 1.91009 50.4453 3.73242C50.5988 3.64893 50.756 3.56459 50.9121 3.4873L50.9131 3.48633C53.539 2.19133 56.5456 1.91946 59.3506 2.70898L59.9092 2.88086L59.9121 2.88281C62.4673 3.75047 64.7746 5.48009 66.123 7.91309C66.301 7.97414 66.4805 8.04056 66.6279 8.0957C66.7841 8.15413 66.9154 8.20332 67.0205 8.24121C67.0558 8.25393 67.0835 8.26342 67.1045 8.27051C67.4534 8.31493 67.7679 8.33426 68.1553 8.36523C68.552 8.39696 68.9898 8.44073 69.4902 8.54492H69.4912L69.8057 8.61719C71.368 9.00349 72.802 9.79699 73.96 10.9199H73.959C74.0509 11.0087 74.1454 11.1179 74.2158 11.2021C74.2923 11.2937 74.3772 11.4 74.4482 11.4873C74.5246 11.5811 74.5873 11.6571 74.6367 11.7129C74.6437 11.7208 74.65 11.7277 74.6553 11.7334C79.847 15.1107 83.5884 19.303 86.9648 24.3369C88.5707 24.4463 90.9365 24.763 93.2266 25.2305C94.5032 25.4911 95.7754 25.8019 96.8926 26.1572C97.9917 26.5068 99.0121 26.9209 99.7383 27.4111C101.321 28.4794 102.51 30.1391 102.878 32.0742C103.354 34.5796 102.382 37.2431 101.074 39.1348L101.072 39.1377C99.039 42.0588 96.0236 44.1353 92.5938 45.0059C93.3077 53.1354 91.8427 60.5039 88.2188 67.8662L88.2197 67.8672C82.8494 78.9375 73.2876 87.4085 61.6533 91.4082L61.6543 91.4092C60.8212 91.7373 59.19 92.15 58.415 92.3457L58.4092 92.3477C51.9492 93.936 45.2245 94.1244 38.6855 92.9004V92.9014C26.909 90.7811 15.7104 83.9986 8.83887 74.0859C2.2077 64.6597 -0.366047 52.9683 1.69336 41.6289L1.69434 41.624C3.64996 31.1628 9.38185 21.7847 17.8008 15.2744L18.3086 14.8867C19.4986 13.9892 20.7293 13.1462 21.9961 12.3604L22.0039 12.3555C22.3102 12.1696 22.6277 11.995 22.9258 11.8311C23.2301 11.6637 23.5159 11.5062 23.791 11.3408C24.3435 11.0088 24.789 10.6797 25.1172 10.2891C25.483 9.85378 25.9748 9.50038 26.3193 9.26465C28.295 7.88943 30.6873 7.26941 33.0654 7.49512C33.2404 7.06671 33.4602 6.63565 33.6934 6.23633C34.0901 5.55695 34.5678 4.89581 35.0264 4.41406C37.1609 2.17153 39.5045 1.16453 42.5156 1.01758V1.01855C42.5757 1.01517 42.636 1.01106 42.6963 1.00879V1.00977Z" fill="black" stroke="white" stroke-width="2"/>
<path d="M36.5173 13.4386C36.4604 12.4912 36.4595 11.7639 36.6702 10.8265C37.0542 9.11236 38.105 7.62181 39.5904 6.68422C41.1493 5.72146 43.029 5.42321 44.8094 5.8561C47.0045 6.3677 48.6857 7.96088 49.853 9.82188C51.3428 7.98989 53.6766 6.85099 56.0471 6.86785C57.8768 6.88077 59.6267 7.61737 60.9151 8.91669C62.3688 10.4087 62.9227 12.2226 62.8997 14.2647C66.6353 11.566 72.0364 12.6524 73.0802 17.6399C73.4469 19.392 72.7157 21.0132 71.673 22.4149C72.0808 22.2759 72.488 22.1275 72.9061 22.0249C76.2443 21.2053 78.8174 23.8956 78.0642 27.1598C75.8448 27.4919 73.587 27.169 71.3725 27.2351C71.3183 27.2367 71.2915 27.3333 71.2696 27.3788C71.3402 28.4796 73.5947 28.8137 74.4228 28.9208C76.8409 29.2334 79.0275 28.6035 81.4172 28.3709C82.7538 28.2512 84.0975 28.2359 85.4363 28.3252C88.3536 28.4911 95.753 29.5526 97.6523 31.7686C98.1224 32.3167 98.2823 33.0517 98.2341 33.7588C98.1175 35.4774 96.7836 37.1485 95.5264 38.2209C93.0711 40.316 89.6809 40.8519 86.5512 40.5847C80.5973 40.0763 74.1174 36.6927 70.2592 32.14C70.6248 36.3634 71.662 38.8533 75.2619 41.4071C76.0719 41.9815 77.0407 42.4635 77.8075 43.0615C78.0987 43.3446 78.2968 43.7846 78.3932 44.1656C78.7593 45.6188 78.091 46.9652 76.6061 47.3237L76.3505 47.3981C76.0966 47.8874 76.2389 48.1096 76.1294 48.5119C76.5601 50.6252 75.292 52.3312 73.1201 52.4604C72.2044 52.5151 71.5531 52.3794 70.6714 52.1884C70.9396 52.5491 71.1541 53.1687 71.2242 53.6126C71.6987 56.6169 69.7562 59.1521 68.1728 61.4312C69.1979 60.8308 70.3446 59.9458 71.5515 59.885C73.0714 59.8089 74.4502 60.8746 74.0315 62.5029C74.1026 62.562 75.0473 62.6201 75.2624 62.6808C76.5711 63.0508 77.293 64.4514 76.9055 65.7344C76.5558 66.8926 75.6527 67.4864 74.6762 68.0381C74.8322 68.0332 74.9882 68.0316 75.1436 68.0321C77.1294 68.0452 79.1096 69.4721 79.5475 71.4469C79.6427 71.8749 79.6356 72.1979 79.6318 72.6368C79.3324 73.2083 78.1518 74.627 77.7057 75.1382C74.7337 78.542 71.3856 81.2388 67.4924 83.5261C57.9179 89.1505 46.6525 90.1171 36.0047 87.4034C36.0097 87.1193 36.0299 86.8364 36.0653 86.5545C36.3727 84.1714 38.0598 82.3619 39.887 80.941C38.6333 81.1545 38.2361 81.3449 37.2122 82.1265C36.9195 81.4834 36.7218 80.9815 36.6604 80.2755C36.4714 78.1025 38.1393 76.0982 40.2266 75.6428C40.6581 75.5492 40.9674 75.5301 41.4153 75.5153C39.5742 74.2739 39.2463 72.754 39.8121 70.7047C40.8594 72.5515 42.3246 73.2236 44.3745 72.5033C42.7638 71.7118 41.8598 71.0375 40.7807 69.5718C41.7703 69.5137 42.6924 69.3818 43.6404 69.0737C47.4396 67.8373 50.5941 64.1838 54.4166 67.4224C54.2152 64.7804 54.7669 62.2512 56.8303 60.4209C58.0109 59.3738 59.5862 58.6891 61.1838 58.7925C56.9869 55.5748 59.6874 50.4533 63.9939 49.1447C64.3704 49.0297 64.7793 48.987 65.1695 48.9378C62.382 46.5246 64.446 42.4997 67.4974 41.5977C67.979 41.4553 68.3901 41.4191 68.8892 41.3731C67.6096 40.3494 66.8077 39.4049 66.2401 37.8426C66.0196 37.2313 65.8608 36.5992 65.7672 35.9559C65.5483 34.4896 65.4197 30.4913 66.0174 29.2251C64.5691 29.0904 63.0995 28.3542 62.1811 27.2221C61.5303 26.4204 61.2961 25.662 61.0623 24.6782C59.798 27.3712 57.7105 28.6269 54.7061 28.6921C53.1698 28.7254 51.1588 28.2801 50.0122 27.1791C49.078 26.2822 49.025 24.9615 49.039 23.7416C48.2094 25.2716 47.8191 27.2363 46.0924 28.0978C43.5985 29.3419 41.4768 27.6234 40.3711 25.4855C39.7827 28.6302 36.1428 28.8226 34.2328 26.7888C33.3096 25.8058 33.1405 24.3641 33.2117 23.0598C32.9988 23.1322 32.7931 23.1837 32.5734 23.2313C31.2909 23.5153 29.9481 23.2688 28.8501 22.5479C27.54 21.6914 26.6255 20.348 26.3092 18.8151C26.0199 17.4004 26.2784 15.818 27.0963 14.6211C29.429 11.2075 33.3406 11.2819 36.5173 13.4386Z" fill="#FDFDFB"/>
<path d="M76.1936 47.2974L76.6063 47.3236L76.3507 47.3981C76.0967 47.8874 76.239 48.1096 76.1296 48.5119C76.0217 48.1934 75.8663 47.9531 75.6665 47.6893C75.8099 47.3176 75.8236 47.368 76.1936 47.2974Z" fill="#15120C"/>
<path d="M75.0283 46.9871C75.4432 47.1518 75.7568 47.2323 76.1936 47.2974C75.8236 47.368 75.8099 47.3177 75.6665 47.6893C75.4629 47.449 75.2429 47.218 75.0283 46.9871Z" fill="black"/>
<path d="M37.9223 36.5583C39.4565 37.4455 42.0661 37.8448 43.8462 37.9293C43.5928 42.924 46.5772 46.7063 51.3133 48.107C51.564 48.1809 51.8158 48.2526 52.0675 48.3226C52.5147 47.9822 52.1228 47.0626 52.5908 46.6012C53.3259 46.7184 54.0702 46.7726 54.8152 46.7622C54.6023 46.9915 54.5251 48.2558 54.6493 48.4852C54.8179 48.5027 54.9487 48.5131 55.1184 48.5191C57.8376 48.4206 60.0466 47.4009 62.3164 46.0216C62.3695 46.6226 62.445 46.9182 62.6251 47.4923C59.9366 49.0862 57.1851 51.5787 57.1884 54.947C57.1895 55.9262 57.3778 56.7051 57.8611 57.5556C55.871 58.2836 54.2645 60.509 53.2399 62.1981C53.1031 62.4242 52.1163 62.96 51.8431 63.116C48.7428 64.8916 45.3832 66.169 41.8867 66.903C35.9177 68.1285 30.5164 67.8001 25.5095 64.1346C23.211 62.4515 21.4097 60.5342 20.8919 57.6164C20.4144 54.9268 20.9697 52.3297 22.4988 50.1053C24.2819 47.3692 26.8999 46.3949 29.6092 44.8759C33.2522 42.8335 35.6394 39.9448 37.9223 36.5583Z" fill="#2F271C"/>
<path d="M52.5911 46.6011C53.3262 46.7182 54.0706 46.7724 54.8155 46.762C54.6026 46.9913 54.5254 48.2557 54.6497 48.485C54.8182 48.5025 54.949 48.5129 55.1187 48.5189C54.3141 48.6793 52.8664 48.4708 52.0679 48.3224C52.515 47.982 52.1232 47.0625 52.5911 46.6011Z" fill="#15120C"/>
<path d="M34.6502 52.4757C35.3163 52.4477 36.0869 52.4034 36.5178 52.9721C37.5009 54.2682 35.2208 54.9108 34.418 55.1718C33.2892 55.59 31.6926 56.07 30.7979 56.8806C29.281 58.2555 29.4799 61.2489 30.7193 62.69C31.5821 62.6873 32.5518 62.4996 33.3953 62.3255C37.5206 61.475 41.6441 59.9555 44.988 57.3382C45.9842 56.5588 46.7342 55.954 47.4318 54.8856C47.0514 54.7269 46.3924 54.5506 46.4537 54.046C47.188 53.1171 50.3957 54.4099 49.9898 55.6393C49.5702 56.0169 48.7464 55.4482 48.3637 55.2249C47.8898 57.0147 47.0195 58.2791 45.8903 59.7054C44.3805 61.4826 42.439 62.8417 40.2523 63.6517C37.8192 64.58 35.177 64.8186 32.6171 64.3408C31.5177 64.1399 30.8145 63.678 29.6654 63.8323C29.0179 63.9194 26.9923 63.5789 26.7408 62.8805C26.9871 62.7097 28.8083 62.7897 29.2533 62.7924C29.1855 62.7147 29.1192 62.6359 29.0543 62.5554C27.7717 60.9758 27.7446 59.2993 27.9417 57.4115C26.7801 57.0262 22.2605 55.0312 23.0758 53.393C23.4715 53.0739 24.5077 53.7794 24.8977 53.9797C26.0278 54.5599 27.3494 55.4296 28.6428 55.5342C30.1004 55.6524 31.2782 54.1193 32.4041 53.416C33.1977 52.913 33.7286 52.6579 34.6502 52.4757Z" fill="black"/>
<path d="M46.2342 57.4429C46.1283 58.1057 43.9874 60.1938 43.3598 60.6683C40.473 62.85 37.5807 63.8122 34.0002 63.3809L33.9072 63.3371C33.9208 63.2326 34.0335 63.243 34.2086 63.2069C35.342 62.977 36.4588 62.6716 37.5517 62.2939C40.7226 61.2315 43.6673 59.5862 46.2342 57.4429Z" fill="#FDFDFB"/>
<path d="M7.49805 60.62C7.76925 60.539 8.17061 60.5401 8.45457 60.5335C11.2108 60.4722 13.9659 60.5434 16.7223 60.5154C17.1464 60.5111 17.5656 60.5275 17.9882 60.4832C18.3229 61.2232 18.6267 61.8898 19.0654 62.5794C21.8688 66.9893 26.6872 68.801 31.5301 69.9236C32.1405 69.9783 32.7719 70.125 33.3743 70.1759C35.0157 70.3138 36.8181 70.3078 38.4489 70.0818C37.3775 71.7539 37.4722 73.2207 38.4029 74.9043C36.9778 75.5283 35.898 76.5141 35.3287 77.9776C34.6171 79.8068 34.8986 81.2179 35.994 82.7778C34.9091 83.9923 34.4189 85.2474 34.4219 86.879C33.1027 86.5385 30.6948 85.5522 29.4476 84.9835C22.29 81.8002 16.1983 76.6263 11.8979 70.0785C11.6122 69.72 11.2143 69.0057 10.9713 68.5963C9.49095 66.1026 8.38955 63.3753 7.49805 60.62Z" fill="#893591"/>
<path d="M7.49805 60.62C7.76925 60.539 8.17061 60.5401 8.45457 60.5335C11.2108 60.4722 13.9659 60.5434 16.7223 60.5154C17.1464 60.5111 17.5656 60.5275 17.9882 60.4832C18.3229 61.2232 18.6267 61.8898 19.0654 62.5794C21.8688 66.9893 26.6872 68.801 31.5301 69.9236C31.0038 70.1923 17.2891 70.0013 15.6136 70.038C14.9736 70.0517 12.6588 69.9668 11.8979 70.0785C11.6122 69.72 11.2143 69.0057 10.9713 68.5963C9.49095 66.1026 8.38955 63.3753 7.49805 60.62Z" fill="#0A70EC"/>
<path d="M79.8878 43.6963C81.2758 44.105 82.1472 44.2847 83.5642 44.5484C85.1477 44.7275 86.2259 44.8033 87.8269 44.6749C88.0157 46.812 88.0573 48.9597 87.9517 51.102C87.8723 51.7643 87.8406 52.4649 87.7508 53.1146C87.424 55.4708 86.915 58.3044 86.0792 60.5457C85.059 63.7821 83.1192 67.689 81.1833 70.4514L81.1477 70.3731C80.4121 68.764 79.4948 68.1444 77.9113 67.5527C78.2365 67.0081 78.4543 66.5675 78.5742 65.9397C78.9655 63.8883 77.7751 61.8292 75.6612 61.4576C75.5917 61.1522 75.5113 60.8583 75.4297 60.5561C74.664 58.9596 73.1419 58.3849 71.4604 58.5693C72.4024 56.964 72.8994 55.5327 72.7866 53.6805C74.8736 53.8305 76.5009 52.7884 77.4647 50.9843C77.8008 50.1502 77.7937 49.495 77.7034 48.6253L77.6585 48.5388C77.6639 48.5076 77.6694 48.4759 77.6749 48.4441C78.052 48.2498 78.5238 48.0424 78.8544 47.7791C79.5895 47.1831 80.0509 46.2554 80.1264 45.3165C80.1746 44.7139 80.0525 44.2651 79.8878 43.6963Z" fill="#38B64D"/>
<path d="M79.8874 43.6963C81.2755 44.105 82.1468 44.2847 83.5639 44.5484C85.1473 44.7275 86.2256 44.8033 87.8265 44.6749C88.0153 46.812 88.0569 48.9597 87.9513 51.102C86.4106 50.8541 78.0341 51.2881 77.4644 50.9843C77.8004 50.1502 77.7933 49.495 77.703 48.6253L77.6581 48.5388C77.6636 48.5076 77.6691 48.4759 77.6745 48.4441C78.0517 48.2498 78.5235 48.0424 78.854 47.7791C79.5891 47.1831 80.0505 46.2554 80.126 45.3165C80.1742 44.7139 80.0522 44.2651 79.8874 43.6963Z" fill="#FCE51E"/>
<path d="M83.5639 44.5483C85.1473 44.7275 86.2256 44.8032 87.8265 44.6748C88.0153 46.812 88.0569 48.9597 87.9513 51.102C86.4106 50.854 78.0341 51.2881 77.4644 50.9843C77.8004 50.1502 77.7933 49.495 77.703 48.6253L77.7731 48.6461C78.1124 49.0653 77.6663 50.478 77.761 50.831C80.7511 51.0396 83.953 50.7429 86.965 50.8797C87.1927 50.8901 87.5375 50.8967 87.7318 50.7747C87.8884 49.7293 87.9256 46.0725 87.7061 45.0176C87.3903 44.7286 84.5047 45.0095 83.5699 44.6408L83.5639 44.5483Z" fill="#F7EE38"/>
<path d="M75.4297 60.5559C75.792 60.4963 77.2375 60.5176 77.6869 60.516C79.5347 60.5088 81.3825 60.5143 83.2298 60.5324C83.6353 60.5335 85.8291 60.4935 86.0792 60.5455C85.059 63.7819 83.1192 67.6888 81.1833 70.4512L81.1477 70.3729C80.4121 68.7638 79.4947 68.1442 77.9113 67.5525C78.2364 67.0079 78.4543 66.5673 78.5741 65.9395C78.9655 63.8881 77.775 61.829 75.6612 61.4574C75.5917 61.152 75.5112 60.858 75.4297 60.5559Z" fill="#0A70EC"/>
<path d="M6.65638 41.1367C6.73755 41.2895 6.75555 41.4008 6.95276 41.433C7.31641 41.4925 8.71463 41.7264 8.949 41.4275C9.01309 41.5351 9.08589 41.6506 9.14325 41.7608C10.4708 44.0188 12.6968 45.5575 15.216 46.2055C17.6974 46.8443 19.8672 46.4863 22.2435 45.6834C20.9624 46.818 19.9608 47.8984 19.0177 49.3462C18.7768 49.7156 18.2582 50.8349 18.0954 51.0549C16.8311 53.9886 16.7635 57.3006 17.9072 60.2836C17.9333 60.3503 17.9604 60.4171 17.9884 60.4833C17.5658 60.5277 17.1465 60.5112 16.7224 60.5156C13.966 60.5435 11.211 60.4724 8.4547 60.5337C8.17074 60.5403 7.76938 60.5392 7.49818 60.6202C7.36698 60.2896 7.10672 59.2431 7.01078 58.8577C6.35923 56.3033 5.97357 53.6887 5.85995 51.0549C5.83915 50.1841 5.81709 49.2564 5.85327 48.3883C5.8062 46.6549 6.25835 42.8037 6.65638 41.1367Z" fill="#38B64D"/>
<path d="M6.65638 41.1367C6.73755 41.2895 6.75555 41.4008 6.95276 41.433C7.31641 41.4925 8.71463 41.7264 8.949 41.4275C9.01309 41.5351 9.08589 41.6506 9.14325 41.7608C10.4708 44.0188 12.6968 45.5575 15.216 46.2055C17.6974 46.8443 19.8672 46.4863 22.2435 45.6834C20.9624 46.818 19.9608 47.8984 19.0177 49.3462C18.7768 49.7156 18.2582 50.8349 18.0954 51.0549H5.85995C5.83915 50.1841 5.81709 49.2564 5.85327 48.3883C5.8062 46.6549 6.25835 42.8037 6.65638 41.1367Z" fill="#FCE51E"/>
<path d="M46.3583 35.3954C47.22 35.0283 48.0766 34.5889 48.9258 34.1862L53.1063 32.2258C54.6783 31.4912 58.2535 29.9861 59.5457 28.9888C60.5517 30.2621 62.1313 31.355 63.5774 32.0899C63.5637 32.8183 63.5183 33.6413 63.5451 34.3577C62.6376 33.5173 61.3946 33.0267 60.1522 33.0646C55.9415 33.1927 54.138 39.3921 57.1336 42.0555C57.9935 42.8144 59.1243 43.193 60.2677 43.105C61.1204 43.0448 61.7925 42.7752 62.4811 42.2772C62.3032 43.0737 62.0777 43.6613 61.7772 44.4172C59.5939 45.7813 57.4237 46.633 54.8151 46.7622C54.0702 46.7726 53.3258 46.7184 52.5907 46.6013C48.1698 45.6035 44.6851 42.0496 45.7643 37.2893C45.9153 36.6442 46.1138 36.0112 46.3583 35.3954Z" fill="#FDFDFB"/>
<path d="M17.0586 22.2024C19.1957 20.0509 20.4322 19.1425 22.841 17.3557C22.6491 19.179 22.9362 20.5311 23.6782 22.1921C24.3455 23.4003 24.9162 24.3269 26.0857 25.1151C25.2928 25.6753 24.0396 26.9655 23.2784 27.6721C21.9796 28.8779 20.5864 29.9779 19.112 30.9613C18.8826 31.1127 17.9541 31.711 17.7335 31.7796C17.4868 31.7424 17.1825 31.9029 16.8282 31.9198C16.3367 31.8725 15.1465 31.8996 14.5918 31.8991C13.1593 31.898 11.6437 31.8634 10.2179 31.9077L10.0659 31.7371C12.134 27.9111 13.9668 25.3079 17.0586 22.2024Z" fill="#FD8016"/>
<path d="M17.0586 22.2024C19.1957 20.0509 20.4322 19.1425 22.841 17.3557C22.649 19.179 22.9362 20.5311 23.6781 22.1921C23.2661 22.2198 22.8513 22.2342 22.4384 22.2314C20.6511 22.2194 18.843 22.2788 17.0586 22.2024Z" fill="#FB2C24"/>
<path d="M23.8607 38.4248C23.8101 38.4674 23.7514 38.5199 23.7021 38.5663C20.5929 41.4979 15.7236 43.22 12.2882 39.8149C11.9712 39.5648 11.7324 38.6676 12.0979 38.3731C12.8785 37.744 14.2955 37.2676 15.2053 36.8436C18.7814 35.1861 22.0439 32.9227 24.8487 30.1534C25.9989 29.0061 27.0945 27.6691 28.3519 26.63C28.5197 26.4913 28.5797 26.547 28.8081 26.5815C29.1173 26.7549 29.7759 26.8778 30.1346 26.9515C30.0343 27.1311 29.4853 27.8083 29.331 28.0083C28.9788 28.464 28.6444 28.933 28.3283 29.4145C26.2036 32.5831 24.9837 34.7611 23.8607 38.4248Z" fill="#FDFDFB"/>
<path d="M28.8082 26.5813L28.881 26.5342L28.7925 26.4257C28.966 25.9314 31.1711 25.4335 31.7127 25.3069C31.7541 25.7168 31.8022 26.032 31.8959 26.4319C32.7622 30.1294 37.543 31.6523 40.4667 29.2858C41.7374 30.1665 43.3032 30.5128 44.8268 30.2502C46.165 30.0157 47.4798 29.2416 48.4435 28.2972C49.5784 29.4314 51.1067 29.9869 52.6726 30.1947C50.1426 31.8415 45.4557 34.7226 42.6317 35.2637C41.8371 35.4208 41.019 35.4156 40.2265 35.2483C38.9581 34.9829 37.5589 34.2559 37.7034 32.752C36.303 32.7483 35.663 32.4314 34.533 31.6062C33.591 30.9182 32.7648 30.1914 32.1654 29.1739C31.6816 28.3801 31.4484 27.018 30.3827 26.8316C30.2546 26.8133 30.2006 26.8839 30.1348 26.9514C29.776 26.8776 29.1175 26.7547 28.8082 26.5813Z" fill="#2F271C"/>
<path d="M30.6019 30.4861C30.6699 30.5174 31.7633 31.5185 31.9097 31.6567C32.9357 32.6251 34.2995 33.3349 35.3153 34.279C31.7985 33.8265 29.7859 37.2468 29.9553 40.43C29.9981 41.2331 30.2834 41.88 30.6252 42.6C30.2734 42.8189 29.7413 43.0841 29.3649 43.2864C28.4486 43.804 27.449 44.306 26.5138 44.8002C23.5821 39.4953 26.5872 34.157 30.6019 30.4861Z" fill="#FDFDFB"/>
<path d="M16.8279 31.9198C17.1822 31.9028 17.4864 31.7423 17.7332 31.7795C16.9395 32.2338 15.8502 32.846 14.9889 33.1781L14.8999 33.2259C14.0911 33.6505 12.8993 33.9897 12.0279 34.3462C8.99359 35.5878 7.62394 38.3736 8.94887 41.4273C8.7145 41.7263 7.31628 41.4924 6.95263 41.4329C6.75543 41.4006 6.73742 41.2893 6.65625 41.1366C7.29619 38.2843 8.05365 35.9488 9.32265 33.3017C9.47344 32.8937 9.86544 32.1297 10.0655 31.7371L10.2175 31.9076C11.6433 31.8634 13.1589 31.8979 14.5914 31.8991C15.1461 31.8996 16.3363 31.8724 16.8279 31.9198Z" fill="#FDBD1C"/>
<path d="M16.8282 31.9197C17.1825 31.9028 17.4867 31.7423 17.7335 31.7795C16.9399 32.2337 15.8505 32.8459 14.9893 33.1781C15.0657 32.8348 15.663 32.782 15.8028 32.5065C15.7951 32.3575 15.7702 32.254 15.8463 32.1303C16.1718 32.0521 16.4992 31.9819 16.8282 31.9197Z" fill="#FCE51E"/>
<path d="M75.0032 17.8252C75.6266 18.2571 77.2379 19.7535 77.7327 20.324C77.7371 20.7325 78.0037 20.76 78.0151 21.1295L77.9413 21.3075C77.8925 21.3241 77.7661 21.3633 77.7267 21.3858C76.5653 20.7187 76.0699 20.5458 74.7295 20.468C74.9884 19.3084 75.0349 18.9953 75.0032 17.8252Z" fill="#FB2C24"/>
<path d="M80.1259 22.9924C80.8139 23.8318 81.6743 24.9124 82.2441 25.8349C81.543 25.884 80.8424 25.9397 80.1418 26.0018C80.0422 24.9169 79.9508 24.3068 79.4385 23.3275C79.6049 23.0459 79.7904 23.0526 80.1259 22.9924Z" fill="#FB4C26"/>
<path d="M77.7326 20.3242C78.165 20.7748 78.6061 21.2252 79.0216 21.6908L79.2213 21.9239C79.5388 22.2802 79.8387 22.6097 80.1255 22.9926C79.79 23.0527 79.6045 23.0461 79.4381 23.3277L79.3346 23.1116C79.0829 22.8053 78.8158 22.3947 78.5257 22.0398C78.2624 21.7977 78.009 21.605 77.7266 21.386C77.766 21.3635 77.8924 21.3244 77.9411 21.3077L78.015 21.1297C78.0035 20.7602 77.737 20.7327 77.7326 20.3242Z" fill="#FB4C26"/>
<path d="M79.2214 21.9238C79.5389 22.2801 79.8388 22.6096 80.1256 22.9925C79.7901 23.0527 79.6045 23.046 79.4381 23.3276L79.3347 23.1115C79.2887 22.4558 78.9111 22.5044 79.2214 21.9238Z" fill="#FB2C24"/>
</svg>
