<svg width="104" height="99" viewBox="0 0 104 99" fill="none" xmlns="http://www.w3.org/2000/svg">
<path d="M64.7822 1.00488C68.8187 1.10363 72.1943 3.48987 73.7344 7.09766C74.3984 6.9547 75.0321 6.9022 75.8008 6.9248H75.7998C78.2953 6.98324 80.6704 7.98191 82.4541 9.71094L82.8037 10.0674L82.8076 10.0713C84.7062 12.1301 85.7147 14.8563 85.6133 17.6553V17.6572C85.5386 19.622 84.8239 21.7796 83.6172 23.4834C83.6725 23.4931 83.7285 23.5054 83.7861 23.5146C85.9359 23.8581 87.954 23.5821 90.1543 23.0098V23.0088C91.2579 22.7218 92.5555 22.34 93.8701 22.2598C96.2576 22.114 98.5374 22.7326 100.402 24.3936H100.401C101.998 25.8151 102.924 27.8144 102.995 29.9414L103 30.2822C102.988 33.7955 101 37.1352 98.7998 39.4688C96.2613 42.1606 92.8881 44.1342 89.1885 44.8076C88.5062 44.9318 87.9093 44.9862 87.3145 45.0205C88.1054 49.7629 88.0306 54.613 87.0859 59.334V59.3359C86.4256 62.601 85.2842 65.7604 83.917 68.7441V68.7451C80.5629 76.0621 75.8767 82.05 69.2139 86.6152C69.5289 88.5364 69.113 90.5522 68.1494 92.2012C67.0618 94.0622 65.2308 95.5306 62.8701 95.8145C61.6888 95.9564 61.4817 95.8277 60.709 96.1875C60.2877 96.3841 59.7282 96.4555 59.3213 96.4893C58.8714 96.5266 58.4206 96.5305 58.1221 96.5244H58.1025L58.082 96.5234C55.9139 96.3917 54.1639 95.5872 52.6768 94.1143C49.4109 94.6923 47.146 94.8891 43.6982 94.8193L43.6855 94.8184H43.6729C42.7181 94.7743 41.7654 94.6919 40.8164 94.5771C39.5454 96.1501 37.95 97.4305 35.5225 97.5176L35.5234 97.5186C35.2427 97.5289 34.8921 97.4928 34.6807 97.4756C34.5554 97.4654 34.4515 97.4587 34.3643 97.457C34.322 97.4562 34.2887 97.4567 34.2637 97.458C34.2382 97.4594 34.2276 97.4601 34.2285 97.46L34.2295 97.4609C33.8571 97.5253 33.5604 97.618 33.0811 97.7295C32.6569 97.8282 32.1541 97.92 31.6025 97.8965V97.8975C31.599 97.8974 31.5954 97.8966 31.5918 97.8965C31.5856 97.8962 31.5794 97.8968 31.5732 97.8965V97.8955C29.2691 97.839 27.1815 96.6133 25.7207 95.0908C24.1288 93.4316 23.2723 91.4407 23.166 89.2051C22.54 88.8651 21.9018 88.4656 21.3896 88.1553C18.922 86.6599 16.7601 85.0065 14.6621 83.0381V83.0371C6.34862 75.3188 1.4414 64.6146 1.02148 53.2783V53.2705C0.675625 41.736 4.5208 31.2759 12.4014 22.751C19.6805 14.8769 30.5993 9.58389 41.4023 9.07324C44.1236 4.19712 50.2934 1.84136 55.5615 4.00977C55.8034 4.10933 56.0344 4.21585 56.2559 4.32422C58.357 2.42321 60.5227 1.31246 63.5742 1.03711V1.03906C63.971 0.993577 64.4726 0.99731 64.7822 1.00488Z" fill="black" stroke="white" stroke-width="2"/>
<path d="M56.9899 10.4842C57.5215 9.4602 58.2342 8.54111 59.0936 7.77144C59.4898 7.4196 59.8467 7.16919 60.2826 6.87803C64.2293 4.24308 69.4928 6.14593 70.1679 11.0201C70.2846 11.8631 70.2577 12.4997 70.1916 13.3506C71.0403 12.7838 71.6116 12.3827 72.5866 12.017C74.2173 11.4054 76.0851 11.1892 77.7126 11.9238C79.0331 12.5275 80.0581 13.6328 80.5607 14.9948C82.2478 19.6157 77.8738 25.2802 73.0563 22.9487C73.0714 23.8933 72.9392 24.5717 72.5468 25.4591C71.4987 27.8311 67.6294 29.281 65.9987 26.6796C65.8278 26.4072 65.7235 26.074 65.6203 25.7635C63.609 29.949 59.5865 30.2869 57.4463 25.9738C57.1291 25.3343 56.7717 24.6566 56.4379 24.0215C56.6363 25.7196 56.6605 27.3161 55.2248 28.4626C52.2139 25.3737 49.1773 25.9927 46.2297 28.7383C45.1539 27.979 44.5909 26.9358 44.0261 25.7897C43.8992 26.6255 43.5292 27.5369 43.0561 28.2362C42.2088 29.479 40.9083 30.3404 39.4335 30.6358C39.9933 32.1863 40.8124 35.7513 40.4502 37.4214C40.1745 38.292 39.6168 39.2463 39.5112 40.1632C39.2346 42.5638 39.8276 44.1431 37.7482 45.9532C40.611 46.1673 43.2118 48.3777 42.3421 51.5214C42.2011 52.0309 41.8502 52.4943 41.5208 52.9006C45.0513 53.3526 48.4479 56.9957 46.5659 60.6231C46.2002 61.3283 45.6792 61.8137 45.0888 62.3339C46.8808 62.4409 48.3118 63.0687 49.4685 64.4946C50.7374 66.0587 50.8508 68.0339 50.6186 69.9624C52.6326 68.0302 54.8078 67.7023 57.1157 69.3857C57.8386 69.913 58.3578 70.5225 59.0173 71.1008C59.8628 70.9799 60.2342 70.8143 61.0098 70.4553C60.2546 71.5136 59.2742 72.3338 58.3519 73.2427C58.1735 73.419 57.9171 73.6103 57.8671 73.8656L57.9289 73.9479C59.1485 74.265 60.1971 73.5915 60.9694 72.709C61.2403 72.3994 61.4317 72.0543 61.7477 71.7818C61.8445 71.8936 61.8665 72.8148 61.8649 73.018C61.8563 74.3875 61.2683 75.2217 60.3481 76.1515C62.8598 76.5616 64.7135 78.3842 64.3314 81.0851C64.2669 81.5398 64.1476 81.8999 64.0041 82.3369C63.2484 81.5634 62.7136 81.2087 61.6773 80.8825C61.9595 81.2329 62.3481 81.6242 62.6539 81.9918C63.2812 82.7545 63.8057 83.5967 64.2137 84.4959C65.5332 87.3387 65.3892 90.1857 62.2739 91.6025C61.9643 91.0559 61.5446 90.2857 61.3618 89.6875C60.9506 88.3411 60.7598 87.0592 60.232 85.737C59.1189 87.8901 59.6752 90.0524 59.9466 92.3405L59.4796 92.2873C55.9865 91.8729 53.8086 90.1417 54.2472 86.3433C54.5272 83.9198 55.7435 82.439 57.6156 80.9744C56.1267 81.4156 54.8379 82.3621 53.9709 83.6505C52.7325 85.479 52.5267 87.3102 52.9448 89.4397C52.5691 89.4725 52.1193 89.5504 51.7436 89.6139C47.8464 90.2766 44.0145 90.183 40.1028 89.7832C40.0307 86.3906 38.2614 82.6986 34.8473 81.6016C35.1343 81.9397 35.6296 82.3804 35.963 82.7325C36.846 83.6698 37.5224 84.7813 37.9486 85.9966C38.5218 87.6225 38.7192 89.5053 37.9178 91.0882C37.5882 91.8186 36.7153 92.8156 35.9473 93.0425C34.4458 93.4542 34.3054 91.2843 34.2955 90.3077C34.285 89.2629 34.3151 88.3072 34.0648 87.2973L33.9991 87.3699C32.5607 88.9662 32.5165 91.7697 32.6246 93.7906C31.1604 93.3945 29.4653 92.7742 28.5768 91.4864C27.1509 89.4193 27.1506 86.6878 28.3551 84.5228C29.1605 83.0748 30.0944 82.1251 31.4181 81.1695C28.8177 81.658 27.2276 83.2764 26.2242 85.6725C24.1901 84.2654 21.8162 83.1324 19.8889 81.4033C19.992 81.0394 20.1396 80.69 20.3281 80.3622C20.9081 79.3759 21.6781 78.9873 22.736 78.71C20.3927 76.1144 21.1155 73.175 24.1686 71.6012C24.8802 71.2341 25.5889 71.1411 26.366 71.0154C25.4074 70.3516 24.4489 69.4432 24.6619 68.1769C25.0641 65.7862 27.7034 65.0531 29.7265 65.317C29.7167 64.7832 29.7316 64.3957 29.9158 63.8792C30.1784 63.1353 30.7393 62.5344 31.4634 62.2216C33.7126 61.2375 35.4314 63.425 37.1292 64.1211C35.4194 61.3944 34.0169 59.1478 35.2555 55.8696C33.6728 56.1604 32.0311 56.3039 30.7692 55.1134C30.2721 54.6506 29.9132 54.0589 29.7325 53.4047C29.0943 51.0296 31.3213 49.114 32.6288 47.4546C33.3507 46.5472 33.9718 45.5642 34.4814 44.5227C35.8508 41.6887 36.1903 38.766 36.1038 35.6685C34.8133 37.8606 33.0315 39.4437 30.7671 40.5874C28.3696 41.8017 25.7265 42.4527 23.0392 42.4906C19.2817 42.5559 14.979 41.0328 11.7013 43.0936C10.6962 43.7256 9.92488 44.6763 9.67882 45.8587C9.50097 46.6055 9.51763 47.0337 9.7538 47.7723C9.80728 47.9396 9.91402 48.1697 9.91305 48.3298C7.16405 45.8056 8.06121 42.6309 10.5695 40.3197C13.7481 37.391 17.9461 37.3729 21.9491 36.674C23.2908 36.4484 24.5118 36.1141 25.8482 35.8153C28.8233 35.1502 31.9121 34.3052 34.1912 32.1544C34.4679 31.8934 34.9252 31.2235 34.7896 30.8442C34.4608 30.9468 33.6627 31.377 33.3084 31.5388C31.9836 32.1439 30.2266 32.9873 28.7965 33.1615C28.7352 33.0773 28.675 32.9924 28.616 32.9065C27.9556 31.9454 27.7704 30.7105 27.9797 29.5872C28.4009 27.341 30.1235 25.6911 32.4041 25.4235C33.3453 25.313 33.937 25.4 34.8585 25.5801C34.1975 24.7907 33.7215 24.1628 33.3929 23.1691C32.2726 19.7824 35.0285 16.3574 38.1846 15.4034C40.2415 14.7817 42.1061 15.1943 43.9666 16.1817C43.9636 15.9741 43.9669 15.7665 43.9766 15.5591C44.0811 13.3812 44.9278 11.361 46.5628 9.88852C48.0449 8.53719 50.0027 7.82965 52.0064 7.92134C54.0144 8.02916 55.6758 9.00834 56.9899 10.4842Z" fill="#FDFCFC"/>
<path d="M74.0002 26.3477C74.7215 27.1266 76.0378 30.2142 76.493 31.2701C75.0934 30.6992 73.8018 30.3752 72.2969 30.837C70.6613 31.339 68.936 32.7635 68.1244 34.2682C68.2056 33.7219 68.2281 33.3007 68.2195 32.7533C67.3617 33.8403 66.5824 35.7625 66.6791 37.1403C66.9753 41.3604 71.0682 44.2404 74.6978 45.5962C76.7736 46.3717 78.6687 47.0945 80.2624 48.606C82.0156 50.2835 83.0218 52.5947 83.0551 55.0214C83.1094 57.8002 81.8426 60.7972 79.8136 62.7375C72.987 69.2642 61.8697 68.8879 53.6274 65.5749C53.0362 65.3368 52.1553 64.9589 51.7242 64.5359C50.56 63.0686 49.9841 62.0904 48.1372 61.2933C48.1783 61.2331 48.2177 61.1724 48.2551 61.11C48.9108 60.0109 49.0723 58.3952 48.7215 57.1767C47.9104 54.3603 46.0379 52.8984 43.6646 51.5014C43.8037 51.1145 43.7925 50.9645 43.8178 50.5539C44.769 51.036 45.6776 51.5181 46.6826 51.8766C49.7081 52.957 52.6541 52.9709 55.5715 51.6079C58.2933 50.3394 60.3986 48.0409 61.4247 45.2187C62.3798 42.6372 62.2497 39.7789 61.064 37.2948C59.4591 33.9514 56.8733 32.1315 53.4716 30.9285C55.2065 30.5219 56.0665 30.1228 57.342 28.8746C58.5841 29.7559 59.6908 30.4741 61.2409 30.6577C62.8732 30.851 64.3948 30.3135 65.6676 29.3076C67.6057 30.2131 68.7135 30.144 70.7183 29.3356C70.7511 29.3224 71.0123 29.2249 71.0112 29.2244C71.0875 29.3132 71.152 29.3198 71.2692 29.2401C72.6876 28.2783 73.36 28.4751 74.8693 29.089C74.9633 29.1274 75.0031 29.0897 75.074 29.0324C75.2267 28.4117 73.7572 27.5902 73.2617 27.4084C73.6368 27.0537 73.769 26.7949 74.0002 26.3477Z" fill="#31261E"/>
<path d="M79.2659 50.979C79.5029 50.9951 79.4158 50.9468 79.5588 51.0822C79.7975 52.384 77.6131 53.8492 76.6236 54.3367C76.2108 54.5404 75.7744 54.7167 75.3519 54.9005C75.5675 55.9126 75.6852 56.6156 75.4917 57.6492C75.3831 58.2264 74.7752 59.805 74.0362 59.6217C73.7094 59.2385 74.1985 58.2624 74.22 57.769C74.3087 55.6825 73.6637 54.765 71.8132 53.947C71.3783 53.7809 71.0634 53.6885 70.5726 53.5455C69.6724 53.2843 67.1586 53.1289 67.3961 51.7557C67.4284 51.5708 67.8793 51.2639 68.0599 51.2021C70.1341 50.491 71.7745 52.3372 73.4879 53.1182C75.7808 54.1039 77.5282 51.7234 79.1912 51.0107L79.2659 50.979Z" fill="black"/>
<path d="M71.952 58.6763C75.3726 58.5054 74.2202 64.3177 70.4938 64.8966C66.8965 64.8633 68.3498 59.1821 71.952 58.6763Z" fill="black"/>
<path d="M70.2054 61.79C71.5388 61.5471 72.1758 63.1466 70.7025 63.7653C69.1691 64.0571 68.7558 62.5135 70.2054 61.79Z" fill="#31261E"/>
<path d="M5.92002 47.9072C7.29254 50.5696 8.52122 51.7301 11.1784 53.156C16.1777 55.4989 20.9219 55.2318 25.9153 53.1399C26.8056 52.7061 27.436 52.3831 28.287 51.8612C28.2654 52.3487 28.2576 52.7443 28.2704 53.2313C28.6226 56.0057 30.6912 57.056 33.2775 57.2957C33.3542 58.7985 33.594 59.6961 34.2094 61.0871C32.0185 60.5743 30.3732 60.8065 28.9134 62.5963C28.6414 63.1236 28.487 63.5332 28.3002 64.0991C27.4173 64.1658 26.9757 64.248 26.1473 64.5512C23.9164 65.3676 22.393 68.1614 23.6569 70.3882C22.7226 70.8354 22.2773 71.0837 21.5092 71.7927C19.8462 73.7303 19.2116 76.0587 20.7216 78.322C19.6775 78.9519 19.3028 79.4007 18.7692 80.4977C15.7798 77.6587 13.5347 75.4416 11.3823 71.7921C9.70116 69.0069 8.16847 65.8331 7.32414 62.6823C6.2294 59.6703 5.48472 53.2081 5.79823 49.994C5.83865 49.3098 5.89326 48.589 5.92002 47.9072Z" fill="#3DAF4D"/>
<path d="M7.32422 62.6822L7.38243 62.5672C7.65138 62.4366 9.30382 62.4554 9.67882 62.4522L14.7265 62.4565L23.651 62.4522C25.2756 62.4506 26.92 62.4425 28.5454 62.4678C28.7661 62.471 28.7657 62.4834 28.9135 62.5962C28.6415 63.1235 28.487 63.5331 28.3003 64.0991C27.4173 64.1657 26.9758 64.2479 26.1473 64.5511C23.9165 65.3675 22.3931 68.1613 23.657 70.3881C22.7227 70.8353 22.2774 71.0836 21.5092 71.7926C19.8463 73.7302 19.2117 76.0586 20.7217 78.3219C19.6776 78.9518 19.3029 79.4006 18.7693 80.4976C15.7799 77.6587 13.5348 75.4415 11.3824 71.792C9.70123 69.0068 8.16855 65.833 7.32422 62.6822Z" fill="#106DE8"/>
<path d="M11.3823 71.792C13.6737 71.7684 15.9651 71.7598 18.2566 71.7668C18.8246 71.7716 21.1352 71.8474 21.5091 71.7926C19.8462 73.7302 19.2116 76.0586 20.7216 78.3219C19.6775 78.9518 19.3028 79.4006 18.7692 80.4976C15.7798 77.6586 13.5347 75.4415 11.3823 71.792Z" fill="#873691"/>
<path d="M5.92007 47.9072C7.29259 50.5696 8.52127 51.7301 11.1785 53.156C11.0601 53.2356 6.32845 53.2098 5.80344 53.2135C5.76684 52.145 5.81096 51.0657 5.79828 49.994C5.8387 49.3098 5.89331 48.589 5.92007 47.9072Z" fill="#FCE32B"/>
<path d="M25.915 53.1398C26.8053 52.706 27.4358 52.383 28.2868 51.8611C28.2652 52.3486 28.2574 52.7442 28.2702 53.2311C27.5214 53.2021 26.696 53.2591 25.9619 53.2134L25.915 53.1398Z" fill="#FCE32B"/>
<path d="M49.8693 32.0915C55.1253 31.5207 59.8503 35.3152 60.4281 40.5706C61.0053 45.826 57.2166 50.5561 51.9622 51.1398C46.698 51.7251 41.9579 47.9282 41.3794 42.6634C40.801 37.3986 44.6038 32.6632 49.8693 32.0915Z" fill="#FDFCFC"/>
<path d="M51.0569 35.7782C53.5427 35.6028 55.6824 37.0874 56.3392 39.5031C56.709 40.8757 56.5225 42.3386 55.8206 43.5746C54.6489 45.619 52.2216 46.7149 49.9398 45.9745C49.4848 45.8269 49.1402 45.638 48.7277 45.398C47.2611 44.359 46.3858 42.8775 46.4189 41.0524C46.4397 39.8997 46.8288 38.6207 47.6693 37.799C47.659 37.9261 47.652 38.0533 47.6481 38.1806C47.6281 39.0592 48.2828 39.871 49.2026 39.8409C50.4909 39.7763 51.2471 37.9408 50.1534 37.1134C49.6744 36.751 49.1536 36.8208 48.6087 36.8998C49.495 36.2181 49.9637 35.9917 51.0569 35.7782Z" fill="black"/>
<path d="M34.8581 14.7405C34.4087 15.1393 33.9518 15.4889 33.5357 15.9284C31.3286 18.2593 30.6021 21.1154 31.8145 24.1306C30.6497 24.2768 30.2179 24.3708 29.1403 24.8791C28.7523 25.1218 28.4383 25.3626 28.0903 25.6627C26.6748 27.1538 26.078 28.6128 26.0991 30.7114C26.1086 31.6638 26.3896 32.4465 26.689 33.3405C25.7322 33.7558 24.4899 34.2905 23.4362 34.3535C21.8709 34.6586 19.9092 34.8875 18.3077 35.0014C14.6672 35.2602 11.8114 35.5793 8.85945 38.0276C8.45091 38.4223 8.10504 38.7501 7.75218 39.202L7.67822 39.1758C7.92503 38.7065 8.12535 38.0992 8.35792 37.5899C8.59818 36.8776 9.58596 34.8484 9.96338 34.1908C10.7896 32.4291 13.3864 28.4333 14.7749 27.0958C15.3116 26.4102 16.283 25.4537 16.8994 24.8192C21.8431 20.1248 28.0896 16.1208 34.8581 14.7405Z" fill="#FC8317"/>
<path d="M34.858 14.7405C34.4086 15.1393 33.9518 15.4889 33.5357 15.9284C31.3286 18.2593 30.6021 21.1154 31.8144 24.1306C30.6497 24.2768 30.2179 24.3708 29.1403 24.8791C28.6457 24.8126 26.6333 24.8556 26.0202 24.8552L20.4273 24.8561C19.3386 24.857 17.9722 24.8864 16.8994 24.8192C21.8431 20.1248 28.0896 16.1208 34.858 14.7405Z" fill="#F33026"/>
<path d="M9.96338 34.1907C10.2162 34.4117 11.9763 34.3321 12.4254 34.3325L16.4632 34.3343L20.6837 34.3238C21.2749 34.3207 22.8955 34.3711 23.3823 34.2443C23.4003 34.2806 23.4183 34.317 23.4362 34.3533C21.8709 34.6584 19.9092 34.8873 18.3077 35.0012C14.6672 35.26 11.8114 35.5791 8.85945 38.0274C8.45091 38.4222 8.10504 38.7499 7.75218 39.2019L7.67822 39.1756C7.92503 38.7064 8.12535 38.0991 8.35792 37.5897C8.59818 36.8774 9.58596 34.8483 9.96338 34.1907Z" fill="#FCC321"/>
<path d="M8.35792 37.5898C8.35298 37.8794 8.30331 37.9766 8.31089 38.263C8.53868 38.2114 8.63435 38.0211 8.85945 38.0276C8.45091 38.4223 8.10504 38.7501 7.75218 39.202L7.67822 39.1757C7.92503 38.7065 8.12535 38.0992 8.35792 37.5898Z" fill="#FCE32B"/>
<path d="M9.67876 45.8587C9.67924 46.0251 9.64823 46.2492 9.72917 46.3589C9.89461 46.2172 9.81496 46.2117 9.86258 46.1141C10.2768 45.2652 11.1694 44.4795 11.9521 44.0646C15.1103 42.3908 18.2193 43.447 21.4219 43.9639C24.9686 44.5364 28.9437 43.653 31.9376 41.701C32.8935 41.0777 33.8972 40.2311 34.7498 39.448C33.9808 40.8394 33.3123 42.0524 32.4267 43.4417C27.9741 50.4261 17.7802 54.8221 10.6247 49.0657C10.4678 48.9394 10.023 48.4922 9.91299 48.3299C9.91396 48.1697 9.80721 47.9397 9.75374 47.7723C9.51757 47.0337 9.5009 46.6056 9.67876 45.8587Z" fill="#31261E"/>
<path d="M80.3205 65.6443C79.4992 67.6991 78.2469 69.964 77.0736 71.8264C74.1851 75.9919 71.1344 79.7494 66.8641 82.5863C66.6002 82.7615 65.3882 83.6086 65.1635 83.6338C64.9797 83.2748 65.479 82.303 65.5978 81.8537C65.9391 80.5648 65.9299 79.2958 65.3328 78.0843C64.6781 76.7583 63.8268 76.18 62.6319 75.4335C63.3274 74.1542 63.4591 73.3647 63.221 71.9232C63.0146 71.2744 62.5567 70.4924 62.4761 69.8845C62.4798 69.791 63.0485 69.8399 63.1259 69.8463C69.0489 70.3489 75.4498 69.3631 80.3205 65.6443Z" fill="#873691"/>
<path d="M80.3205 65.6443C79.4992 67.6991 78.2469 69.964 77.0736 71.8264C76.3512 71.9318 74.6205 71.8673 73.8358 71.8716L66.1111 71.8818C65.4962 71.8828 63.6919 71.8517 63.221 71.9232C63.0146 71.2744 62.5567 70.4924 62.4761 69.8845C62.4798 69.791 63.0485 69.8399 63.1259 69.8463C69.0489 70.3489 75.4498 69.3631 80.3205 65.6443Z" fill="#106DE8"/>
<path d="M74.6592 25.2952C74.9989 25.3403 77.0005 25.6668 77.2058 25.7583C77.6841 25.8001 78.758 26.3925 79.2702 26.6042C81.6658 27.6089 84.2683 28.0203 86.8573 27.8035C88.9535 27.6343 90.7847 26.9781 92.8024 26.5948C94.9905 26.1792 98.1617 26.7776 98.5981 29.3787C98.8217 30.5939 98.4868 31.4077 98.117 32.5187L98.0864 32.4549C98.1418 31.8688 98.1439 31.5009 97.9666 30.9371C97.9246 30.8203 97.8779 30.6904 97.8252 30.5787C97.5753 30.052 97.119 29.652 96.5637 29.4733C94.5277 28.8264 91.7103 31.1352 89.735 32.1161C86.4478 33.8251 81.9227 33.9703 78.8483 31.7302C78.5 31.4764 77.317 28.8822 76.9725 28.3496C76.6839 27.9041 75.997 26.7965 75.7664 26.3173C75.7003 26.2703 75.6702 26.2472 75.6207 26.1796C75.3085 25.755 75.0935 25.5825 74.6592 25.2952Z" fill="#FDFCFC"/>
<path d="M74.6592 25.2952C74.9989 25.3403 77.0005 25.6668 77.2058 25.7583C76.9102 25.8936 76.0513 26.274 75.7664 26.3173C75.7003 26.2703 75.6702 26.2472 75.6207 26.1796C75.3085 25.755 75.0935 25.5825 74.6592 25.2952Z" fill="#31261E"/>
<path d="M80.8389 34.6325C85.2946 36.3837 88.9237 34.8788 92.3931 32.0642C93.424 31.3239 94.5264 30.3551 95.8319 30.2022C96.8607 30.0816 97.2256 30.4466 97.9045 31.0221L97.9668 30.9371C98.1442 31.5009 98.142 31.8688 98.0867 32.4549L98.1173 32.5187C98.0953 32.6922 97.7776 33.2863 97.6782 33.4781C96.7274 35.3125 95.5573 36.8738 93.9212 38.161C91.5068 40.0785 88.4969 41.0892 85.415 41.0173C84.4685 40.9953 83.6203 40.8589 82.6857 40.7489C82.6642 38.3774 82.0939 36.6522 80.8389 34.6325Z" fill="#31261E"/>
<path d="M73.3543 31.8614L73.4688 31.8587C77.4015 31.7767 80.5345 35.5227 80.9086 39.2327C81.1403 41.529 80.3953 44.0413 78.7576 45.7042C77.5719 44.9954 75.5091 44.3728 74.161 43.9325C74.3239 43.8187 74.4997 43.6634 74.6539 43.5344C75.0092 43.1818 75.3129 42.7809 75.5563 42.3436C76.1836 41.2099 76.3233 39.8699 75.9428 38.6312C75.0167 35.5598 71.2054 34.1394 68.9958 36.8454C68.7142 37.1903 68.5384 37.5543 68.3347 37.9493C68.2315 36.5103 68.5347 35.408 69.4205 34.2502C70.3944 32.9767 71.7494 32.0738 73.3543 31.8614Z" fill="#FDFCFC"/>
<path d="M44.3567 29.0303C44.4187 29.0511 44.9384 29.5854 45.0798 29.6984C45.9039 30.3567 47.0434 30.6736 48.0433 30.9482C46.1689 31.4689 44.7231 32.3502 43.288 33.6692C42.6429 34.2765 42.2966 34.6852 41.7565 35.3685C41.7877 34.0417 41.5175 32.8005 41.1821 31.5313C42.8123 30.7617 43.2298 30.3788 44.3567 29.0303Z" fill="#31261E"/>
<path d="M50.6166 28.0502C52.0129 28.0036 53.3975 28.3414 54.6832 28.8715C53.3685 29.5062 52.5966 29.8073 51.1175 30.0058C49.4254 30.1526 48.5331 29.9286 47.0122 29.1834C48.3623 28.5533 49.0943 28.1481 50.6166 28.0502Z" fill="#FDFCFC"/>
<path d="M70.1122 36.6029C70.7658 36.4572 71.414 36.8674 71.5623 37.5202C71.7107 38.1731 71.3032 38.823 70.6507 38.974C70.2417 39.0686 69.8128 38.9456 69.5166 38.6484C69.2033 38.3346 69.0856 37.8751 69.2097 37.4494C69.3339 37.0237 69.6795 36.6993 70.1122 36.6029Z" fill="#FDFCFC"/>
<path d="M82.6372 44.3481C82.8328 44.5779 83.1881 47.3489 83.2198 47.787L82.7801 47.3023C82.42 46.9248 82.0336 46.5732 81.624 46.2499C82.0486 45.6211 82.3217 45.0305 82.6372 44.3481Z" fill="#FCE32B"/>
<path d="M7.75221 39.2021C7.68046 39.3973 7.58559 39.5721 7.42908 39.7076L7.38135 39.6771C7.43789 39.4574 7.53738 39.3617 7.67825 39.1758L7.75221 39.2021Z" fill="#31261E"/>
</svg>
