<svg width="104" height="101" viewBox="0 0 104 101" fill="none" xmlns="http://www.w3.org/2000/svg">
<path d="M59.0068 1.07617C59.9118 0.929693 61.0113 1.0158 62.0156 1.19922C63.0593 1.38985 64.1117 1.70407 64.8975 2.06836C66.7212 2.91374 68.3807 4.60496 69.3115 6.44238C70.7579 6.05294 72.2804 6.00551 73.7559 6.31055H73.7549C76.1729 6.80946 78.2938 8.24931 79.6504 10.3125L79.6533 10.3174C80.7893 12.0642 81.2865 14.1401 81.0781 16.1973L81.168 16.2344L81.1729 16.2363C84.8532 17.8145 86.88 21.8611 86.1484 25.6973L86.0693 26.0674C86.0263 26.2484 85.9816 26.4336 85.9229 26.6299C86.8931 27.9758 87.7857 29.3541 88.5713 30.8604C88.7555 31.2135 88.9438 31.5623 89.1328 31.9004C90.129 32.3033 91.5971 32.6972 92.6299 32.9111C95.121 33.4216 97.995 33.5365 100.365 35.7725C102.311 37.6075 103.14 39.8542 102.98 42.1123C102.823 44.3455 101.708 46.4966 99.9424 48.2236L99.9434 48.2246C97.3387 50.773 93.906 51.9465 90.4375 52.1846C90.4361 53.0553 90.4308 53.9833 90.3818 54.8252C90.1702 58.4616 89.4205 62.1113 88.333 65.5771C89.5228 65.4448 90.7754 65.4385 91.8213 65.5254L91.8408 65.5273C92.505 65.5955 93.4 65.7139 94.2617 65.9648C95.0982 66.2084 96.0514 66.6179 96.6895 67.3662C97.0713 67.814 97.2609 68.3304 97.2451 68.8721C97.2301 69.3849 97.0344 69.8289 96.8184 70.1738C96.7892 70.2203 96.7559 70.2642 96.7246 70.3096C97.0774 70.38 97.4475 70.4587 97.8115 70.5557C98.8139 70.8227 100.074 71.2859 100.744 72.3164C101.185 72.9948 101.222 73.7429 101.075 74.4043C100.932 75.0485 100.609 75.6594 100.248 76.1836C99.5296 77.228 98.5092 78.151 97.791 78.6211V78.6221C96.1476 79.6968 94.5549 80.3953 92.8623 80.7041C91.4228 80.9667 89.9539 80.9374 88.3711 80.6611C87.679 82.2061 86.5054 83.5143 84.8242 84.168C84.3929 86.4709 82.561 88.4469 80.7812 89.498C79.4439 90.2879 77.5502 90.6935 75.9648 90.5781C70.1998 94.9138 63.9815 97.3934 56.9297 98.5332L56.2324 98.6406C51.7992 99.2994 47.2953 99.3338 42.8525 98.7412L42.8438 98.7402C41.2684 98.5157 39.7477 98.2376 38.1924 97.8779H38.1904C37.8576 97.8001 37.5187 97.742 37.126 97.6689C36.749 97.5989 36.3337 97.5167 35.9238 97.3945C30.501 95.7806 25.1604 93.2936 20.7266 89.6201H20.7256C20.4301 89.3752 20.2386 89.2178 20.0039 89.0664L19.75 88.9141C18.6724 88.3118 17.4968 87.5959 16.5605 86.5342C16.3367 86.2803 16.1374 86.0103 15.9688 85.7832C15.7912 85.5441 15.6423 85.3459 15.4844 85.1689C15.3193 84.9842 15.1533 84.8216 14.9414 84.6045C14.87 84.5314 14.7967 84.4522 14.7207 84.3701C10.5205 85.014 5.98678 82.893 3.76172 79.2695C3.18993 78.3383 2.85038 77.4757 2.81543 76.6709C2.77817 75.8106 3.09365 75.1058 3.63672 74.5703C4.14171 74.0726 4.8108 73.7513 5.46289 73.5166C5.72705 73.4215 6.00536 73.337 6.28906 73.2568C5.70803 72.2045 5.17339 71.1068 4.70215 70.0439L4.59668 69.7891C4.49409 69.5281 4.40171 69.2521 4.31934 69C4.20306 68.6442 4.10518 68.335 4.00391 68.0664L3.74512 67.3623C2.47241 63.8189 1.54107 59.8969 1.20605 56.1504L1.20508 56.1514C0.0731392 44.5882 3.65196 33.0567 11.1318 24.166L11.1328 24.165C16.9932 17.2207 24.8068 12.1988 33.5576 9.75098L33.5605 9.75C35.147 9.31215 37.3242 8.83493 39.1025 8.62695C41.6289 4.36124 47.2938 2.5678 51.7832 4.60449C53.731 2.3706 56.1345 1.37206 59.0068 1.0752V1.07617Z" fill="#030201" stroke="white" stroke-width="2"/>
<path d="M52.942 10.2775C53.5954 8.83762 54.4502 7.57591 55.7386 6.63593C57.7944 5.13624 60.425 4.70997 62.7681 5.77967C64.278 6.46695 65.4496 7.73022 66.0215 9.28737C66.4157 10.3448 66.4805 11.2309 66.434 12.3451C69.1714 9.98102 73.123 9.10477 75.8603 12.0996C76.8354 13.1665 77.2102 14.7227 77.0823 16.1483C76.9799 17.3043 76.5635 18.4103 75.8786 19.3471C78.3641 18.9647 80.7759 19.9089 81.8882 22.2439C83.0592 24.7031 81.8063 27.8793 79.5013 29.1776C82.4845 32.7642 86.8442 35.2994 91.3871 36.3581C94.3924 37.0586 99.138 37.6529 99.0865 41.718C99.0643 42.8365 98.132 44.251 97.3513 45.0433C97.2732 44.9177 97.4687 44.6671 97.5268 44.4991C97.7416 43.8749 97.8856 43.408 97.7599 42.7495C97.4952 41.837 96.9299 41.0726 96.0806 40.6501C94.821 40.0238 92.7192 39.7048 91.3156 39.5484C87.4521 39.1178 83.8061 37.7809 80.8036 35.2711C80.4027 34.936 79.9376 34.4148 79.5013 33.9671C78.611 33.054 77.6465 31.8357 77.0386 30.7046C77.0075 30.6476 77.0297 30.3739 77.0363 30.2986L76.9854 30.2422L76.909 30.2669C75.5198 30.7196 74.0066 30.5824 72.7215 29.8871C71.37 29.1712 70.3568 27.9485 69.905 26.4869C69.6863 25.7643 69.5512 24.2064 69.5003 23.4066C68.9931 25.0228 68.2063 26.4158 66.6505 27.2384C65.717 27.7317 64.6135 27.8758 63.6025 27.5373C62.8157 27.2738 62.1652 26.7095 61.7931 25.9676C61.6763 25.7338 61.5866 25.4738 61.5113 25.2239C60.9138 26.3561 60.193 27.2747 58.9051 27.6608C58.0541 27.9136 57.1367 27.8132 56.3599 27.3821C54.8334 26.5368 54.2127 24.9616 53.5666 23.4496C53.5045 24.4188 53.432 25.3373 53.4874 26.3114C52.9697 26.7815 52.4753 27.1999 51.838 27.484C48.9706 28.7624 45.6478 27.5861 44.0326 24.9379C43.8593 24.6538 43.6926 24.3773 43.5286 24.0869C43.6356 26.7167 42.3306 28.6704 39.8151 29.4538C40.7115 30.6228 41.2582 32.3235 41.4202 33.7736C41.8002 37.1732 40.3656 40.382 37.6447 42.4201C37.6068 42.4485 37.5684 42.4762 37.5297 42.5033C39.0173 42.8849 40.1874 43.5678 40.9847 44.9295C41.6321 46.0188 41.8157 47.3223 41.4945 48.5481C41.1877 49.7046 40.4893 50.4886 39.5928 51.2416C44.0637 51.5971 45.8072 56.7895 42.1941 59.7195L42.1515 59.7533C43.8677 59.6592 45.3634 59.8513 46.6976 61.055C47.7423 61.989 48.3598 63.309 48.407 64.7098C48.4446 65.594 48.2136 66.5751 47.8769 67.3907C48.5335 67.0579 49.1863 66.6997 49.9246 66.5701C51.8208 66.2363 53.917 67.1188 54.7946 68.8795C55.3405 69.9753 55.34 70.9713 54.984 72.134C56.2868 71.5344 57.7712 70.9093 59.2058 70.7809C60.5008 70.6651 61.4531 70.669 62.746 70.4237C62.0068 72.5177 60.8668 73.6899 58.9389 74.7474C60.6852 74.7911 61.5068 74.5165 62.8617 73.2802C63.912 72.3212 64.4712 71.0987 64.4889 69.6691C64.4895 69.4626 64.4851 69.2555 64.4756 69.049C67.2473 68.9626 68.3597 68.7118 71.0179 67.9853C72.1319 68.8225 72.8605 69.5816 73.0621 71.0339C73.1977 72.0488 72.9701 73.0792 72.4192 73.9429C73.4563 74.0658 74.0531 74.3249 74.8798 74.9866C73.9657 76.1017 73.7409 76.8796 73.8837 78.3158C73.8904 78.3856 73.8987 78.4554 73.9086 78.5251C74.6666 77.2616 75.4578 75.6942 77.028 75.3077C77.1548 75.2778 77.2822 75.2501 77.4106 75.2263C77.5524 72.9081 79.2184 71.1374 81.546 70.9381C81.0953 72.4696 80.8894 73.7076 81.5914 75.2302C82.4934 77.1863 84.1223 77.8939 85.9677 78.7267C85.5818 80.7011 84.068 81.8959 82.0969 82.0869C82.1313 82.6982 82.1617 83.2125 81.9646 83.8017C81.1767 86.1609 79.039 87.6425 76.6039 87.7555C74.7818 87.8236 73.005 87.1763 71.6546 85.9516C71.1768 85.5103 70.5273 84.8105 70.0694 84.3271C70.5185 83.552 70.5611 82.294 70.3341 81.4413C70.0932 80.535 69.611 79.8434 68.9156 79.2322C69.4388 81.5321 69.5805 82.8322 68.2213 84.9057C69.9271 85.7284 70.7283 87.2068 70.7565 89.0638C68.5756 90.3168 67.1084 91.1174 64.7386 92.0658C56.0742 95.4366 46.5512 95.9133 37.5929 93.4257C34.8588 92.6848 32.2171 91.6378 29.7178 90.3046C31.9707 89.3434 33.5991 87.7616 34.1356 85.3093C36.1625 84.4954 37.4339 83.0714 37.6551 80.8234C37.7527 79.8312 37.5041 79.0821 37.1367 78.1746L37.0599 77.987C36.8319 80.8035 36.0792 83.3914 32.9617 84.0586C32.8116 84.8835 32.6428 85.4477 32.2211 86.1808C29.8074 90.3766 22.9769 90.1966 21.2365 85.4959C19.2438 85.2362 18.13 84.3465 17.7022 82.3549C18.9299 81.6822 19.8833 81.1158 20.8075 80.0245C22.445 78.0921 22.805 75.8702 21.8373 73.531C24.8092 73.4834 25.7943 75.0503 27.2647 77.3198C27.5939 75.0259 26.324 73.495 24.459 72.3843C25.285 70.1403 26.5855 69.328 28.9013 69.0323C28.4217 67.801 28.3897 66.8376 28.937 65.6101C29.4549 64.4424 30.4174 63.5299 31.6108 63.0748C33.3482 62.4082 33.9409 63.1064 35.4816 63.7226C33.4471 61.3141 32.1635 59.0385 34.2068 56.1179C32.803 56.2009 31.7393 56.0226 30.6352 55.0493C29.8028 54.3057 29.3043 53.2581 29.2517 52.143C29.2065 51.2671 29.5943 49.6803 30.2231 49.0917C31.051 48.3169 31.8264 47.6885 32.6024 46.8278C35.5479 43.6207 37.0986 39.3746 36.913 35.024C36.8973 34.6211 36.8682 34.2189 36.8259 33.8179C34.0785 38.5879 29.1076 40.7031 23.7945 40.9076C20.686 41.0272 17.1276 40.2454 14.4122 42.1193C12.5037 43.4363 12.0643 45.2674 13.2675 47.253C12.2087 46.3544 11.2852 45.2623 11.1758 43.8261C11.0849 42.6335 11.5051 41.297 12.2999 40.399C15.2205 37.0996 19.3965 36.9594 23.3362 36.1396C26.2212 35.5393 29.6328 34.5317 32.1175 32.9723C33.2258 32.2767 34.2051 31.4777 34.6737 30.2332C32.3785 31.2967 31.2178 32.0606 28.6645 32.6577C28.0182 31.5458 27.7203 30.5256 28.0706 29.2395C28.4207 27.9875 29.2567 26.9274 30.3926 26.295C31.5351 25.6522 32.8121 25.4982 34.099 25.6933C33.1148 24.817 32.2874 23.6707 32.0642 22.381C31.4325 18.7302 34.6736 15.5182 38.2023 15.3472C39.4381 15.2873 40.509 15.5496 41.6156 16.0192C40.8044 12.5744 42.8937 8.96995 46.3999 8.16319C48.1457 7.76167 49.9797 8.07975 51.4881 9.04575C51.9725 9.35525 52.5655 9.84033 52.942 10.2775Z" fill="#FDFDFD"/>
<path d="M44.2925 27.3933C45.4073 28.8185 47.983 29.6098 49.7379 29.5272C51.5078 29.444 53.0471 28.8669 54.2757 27.5763C56.1936 29.6791 59.2272 29.8197 61.4347 28.068C61.8693 28.5599 62.598 28.9347 63.2253 29.1083C65.2628 29.6715 67.3247 29.0026 68.7809 27.521C69.5328 30.131 72.3814 32.1527 75.1011 31.9199C75.3253 31.9007 75.7677 31.8647 75.9742 31.8982C76.2599 32.2186 76.5556 32.8953 76.7566 33.3036C77.7432 35.3074 78.6513 37.4885 79.0848 39.6864C76.0645 39.1346 72.9534 38.1755 69.8605 37.7932C69.2476 37.7175 68.5456 37.5589 67.9365 37.5594C68.1298 37.1043 68.3258 36.5426 68.5179 36.0684L68.4714 36.0967C66.0612 37.5767 65.4527 41.0295 66.2694 43.5653C67.1099 46.1731 68.983 47.5602 71.4352 48.5596C72.7895 49.1118 74.2147 49.5968 75.4289 50.4002C76.3845 51.0314 77.1907 51.8641 77.7892 52.8408C78.0494 53.2245 78.3855 54.0694 78.504 54.5273C79.061 56.6877 78.6629 58.6555 77.5561 60.5585C75.7151 63.7238 72.6317 65.4524 69.2039 66.3848C62.9983 68.0735 55.2861 66.5697 49.7826 63.3678C49.4937 62.0429 48.7975 60.8696 47.7988 59.9538C46.9722 59.1959 46.0436 58.893 44.9663 58.6544C46.34 55.8871 45.7231 53.0739 43.2639 51.1028C42.9592 50.8586 42.5788 50.5751 42.2103 50.4422C42.5298 50.0165 42.7012 49.6344 42.8165 49.1195C43.4526 46.2778 42.7657 43.5033 40.1045 42.0165C43.2073 39.5536 43.6328 33.4293 41.7805 30.1154C42.8246 29.5866 43.873 28.4873 44.2925 27.3933Z" fill="#32281E"/>
<path d="M57.5352 33.9121C57.8985 33.9142 58.0801 34.0251 58.353 34.2713C59.8103 35.5866 60.9863 38.2116 61.1502 40.1175C61.3966 42.7032 60.5976 45.2798 58.9322 47.2728C57.3752 49.1234 55.1434 50.275 52.7332 50.4721C50.6027 50.6427 48.2479 50.0779 46.5937 48.6816C45.4036 47.7394 44.4982 46.4857 43.9777 45.0599C43.1792 42.803 43.3412 40.4752 44.3734 38.3249C44.1625 38.3264 43.8865 38.3576 43.7406 38.2293C43.9148 38.0212 44.3867 37.9596 44.5688 37.7707C44.9673 37.3571 45.2021 36.891 45.597 36.4292L45.1258 37.6406C46.2637 37.377 47.4938 36.9391 48.6715 36.6441C51.7449 35.8621 54.8887 35.3918 58.0563 35.2403C57.785 34.8112 57.476 34.4171 57.5352 33.9121Z" fill="#030201"/>
<path d="M58.1026 36.5122C58.21 36.4838 58.1912 36.4976 58.3124 36.5147C58.5522 36.7599 58.6507 37.0169 58.8174 37.308C60.1994 39.7212 60.0875 42.6177 58.7664 45.0404C57.7814 46.8409 56.1254 48.1799 54.1582 48.7667C52.2851 49.3226 50.2679 49.1139 48.548 48.1867C46.7328 47.1927 45.792 45.8577 45.2183 43.9194C45.4353 44.1575 45.6283 44.3443 45.8604 44.5664C46.6066 45.2611 47.6791 45.6267 48.6926 45.5419C49.7385 45.4558 50.7056 44.9519 51.3754 44.144C52.5442 42.7617 52.6533 40.6058 51.5072 39.1814C51.2353 38.8436 51.0291 38.6584 50.6943 38.3735C50.7329 39.57 51.113 40.1326 49.7213 40.4984C49.3165 40.4051 48.762 40.2944 48.6721 39.8072C48.5575 39.1858 48.8008 38.6206 49.4537 38.4762C49.7813 38.4038 50.102 38.451 50.4338 38.3777L50.435 38.3013C50.1991 38.0704 49.9486 37.9541 49.6605 37.7985C50.3618 37.7272 51.7536 37.3953 52.5237 37.2626C54.3736 36.9457 56.2345 36.6954 58.1026 36.5122Z" fill="#FDFDFD"/>
<path d="M46.2255 38.6619L46.2157 38.7546C45.8421 39.0812 45.6188 39.2651 45.338 39.6735C45.2759 39.4421 45.4466 39.0805 45.5342 38.8455L46.2255 38.6619Z" fill="#FDFDFD"/>
<path d="M66.1111 52.6733C68.2151 52.8489 68.8789 54.0913 70.6114 54.924C72.2929 55.6698 73.8598 54.2131 75.234 53.5365C76.0684 53.1257 76.1349 54.1096 75.4987 54.7308C74.7728 55.4395 74.274 55.8553 73.2995 56.2601C73.0453 56.3653 72.2099 56.6205 72.0919 56.7523L72.1279 56.9715C72.1905 57.6404 72.2392 58.405 71.9601 59.096C71.8239 59.4326 71.0809 61.2144 70.4093 60.8307C70.3218 60.7509 70.2775 60.6734 70.3113 60.5522C70.6214 59.4359 70.9862 58.6824 70.6889 57.5003C70.422 56.4406 69.9165 56.2268 69.0628 55.6842C67.9676 54.9406 66.4306 54.8244 65.3553 54.1096C64.4888 53.5338 65.3016 52.7691 66.1111 52.6733Z" fill="#030201"/>
<path d="M56.5396 29.9993C56.5756 30.0061 56.642 30.0035 56.6553 30.0488C57.0639 31.4162 55.9958 32.3936 55.0419 33.0025C52.5005 34.6244 49.6956 34.4526 46.9031 33.8608C46.7063 33.8035 46.4104 33.7499 46.2856 33.6065C46.3828 33.3185 47.5824 33.239 47.9179 33.2047C50.4092 32.9504 52.6993 32.5244 54.8785 31.1902C55.4621 30.8331 55.9682 30.3896 56.5396 29.9993Z" fill="#030201"/>
<path d="M63.0892 60.0181C63.1556 60.0347 63.1241 60.0164 63.1717 60.0906C63.1002 60.1277 62.9663 60.1936 62.9319 60.2633C62.6191 60.9006 62.2487 61.6437 61.9552 62.2782C62.0804 62.1685 62.2088 62.0628 62.3406 61.9604C63.634 60.9726 65.3155 60.0419 66.9799 60.3237C67.7196 60.4339 69.0578 60.8984 69.4941 61.5196C69.9022 62.1004 69.5251 62.5988 68.74 62.2145L68.6652 62.1774C66.9145 61.2766 65.0713 61.5374 63.469 62.6497C62.8876 63.0539 62.1645 64.0139 61.3628 63.6402C60.581 63.2759 60.8025 62.2793 61.0937 61.6592C61.5389 60.6841 62.149 60.3636 63.0892 60.0181Z" fill="#030201"/>
<path d="M69.0949 32.2964C69.2776 32.3654 70.7011 33.7392 71.2039 34.0471C72.1584 34.6274 73.1783 35.0931 74.2419 35.4344C74.6217 35.5531 75.3376 35.7025 75.6493 35.8228C76.1731 36.0247 77.1282 35.9998 77.4986 36.2603L77.5158 36.3572C77.4078 36.5173 77.2638 36.5461 77.0789 36.6198C77.0341 36.634 76.9892 36.6475 76.9438 36.6602C74.3249 37.3918 69.8606 36.3714 68.9753 33.3517C68.859 32.9549 68.8889 32.652 69.0949 32.2964Z" fill="#030201"/>
<path d="M6.33262 44.0371C6.59528 44.0726 7.86779 44.0303 8.24081 44.0371C8.98173 50.5716 16.4795 52.9175 22.1472 52.247C24.2362 51.9996 25.9677 51.3844 27.8597 50.5146C27.6041 51.638 27.5779 52.6053 27.9276 53.7171C28.5893 55.6931 29.9153 56.837 31.9146 57.3547C31.4698 58.8674 31.6291 60.0633 32.2562 61.5034C30.7987 61.5649 29.7574 62.2276 28.6741 63.1506C27.2841 64.8172 26.9259 65.7817 27.0367 67.9393C24.8764 68.3585 23.7188 69.9337 23.0875 71.9252C22.4843 71.7957 21.6585 71.8466 21.0558 71.9839C18.4573 69.071 12.8904 67.7278 9.20237 68.8512C8.99829 68.2494 8.55518 67.3519 8.29983 66.7124C7.80323 65.4683 7.46123 64.4252 7.09287 63.1417C6.22565 59.9969 5.59927 56.9854 5.53001 53.6999C5.45764 50.6464 5.59966 47.0146 6.33262 44.0371Z" fill="#34AB43"/>
<path d="M7.09277 63.1418L22.4301 63.1241L26.7246 63.1218C27.0777 63.1218 28.3836 63.1008 28.674 63.1506C27.284 64.8172 26.9258 65.7817 27.0366 67.9394C24.8764 68.3585 23.7187 69.9337 23.0874 71.9253C22.4843 71.7957 21.6584 71.8467 21.0557 71.984C18.4572 69.0711 12.8903 67.7279 9.20228 68.8513C8.99819 68.2494 8.55509 67.3519 8.29973 66.7124C7.80314 65.4683 7.46113 64.4252 7.09277 63.1418Z" fill="#0568E9"/>
<path d="M6.33262 44.0371C6.59528 44.0726 7.86779 44.0303 8.24081 44.0371C8.98173 50.5716 16.4795 52.9175 22.1472 52.247C24.2362 51.9996 25.9677 51.3844 27.8597 50.5146C27.6041 51.638 27.5779 52.6053 27.9276 53.7171C27.1411 53.6584 25.9027 53.6932 25.0881 53.6932L19.8563 53.6955C15.1025 53.6971 10.2762 53.6467 5.53001 53.6999C5.45764 50.6464 5.59966 47.0146 6.33262 44.0371Z" fill="#FEDB2B"/>
<path d="M34.4985 14.2493L34.6708 14.3742C30.9531 16.1509 28.935 20.3461 30.7988 24.2065C30.8291 24.2693 30.86 24.3317 30.8915 24.3939C30.5197 24.5069 30.2202 24.6005 29.8588 24.7422C26.7267 26.072 25.3599 29.5578 26.6956 32.6772C26.7497 32.803 26.805 32.9281 26.8616 33.0527C25.3781 33.5286 23.9395 33.9245 22.3976 34.1732C18.4736 34.8059 14.8558 34.7405 11.5435 37.3334C10.4595 38.1689 9.57291 39.233 8.94676 40.4499C8.33937 41.6346 8.20577 42.7284 8.24071 44.0373C7.8677 44.0305 6.59518 44.0728 6.33252 44.0372C6.50682 42.7939 7.11625 40.9766 7.5129 39.774C9.28738 34.3942 12.8531 28.4801 17.0016 24.555C18.4669 22.9937 19.8009 22.0027 21.4879 20.7554C24.4099 18.5948 27.1917 16.9282 30.5864 15.5964C31.898 15.0818 33.1682 14.7001 34.4985 14.2493Z" fill="#FF8816"/>
<path d="M34.4984 14.2493L34.6706 14.3742C30.9529 16.1509 28.9348 20.3461 30.7986 24.2065C30.829 24.2693 30.8599 24.3317 30.8914 24.3939C30.5195 24.5069 30.22 24.6005 29.8586 24.7422C29.4364 24.5263 26.9027 24.6217 26.2558 24.6225L19.4958 24.6326C19.0519 24.6335 17.3384 24.6837 17.0015 24.555C18.4667 22.9937 19.8007 22.0027 21.4877 20.7554C24.4097 18.5948 27.1915 16.9282 30.5862 15.5964C31.8978 15.0818 33.168 14.7001 34.4984 14.2493Z" fill="#F92A23"/>
<path d="M11.154 70.174C11.7496 70.081 12.8407 70.1795 13.4365 70.2471C16.7606 70.623 21.537 72.3854 21.0093 76.5352C20.8847 77.5163 20.164 78.911 19.3372 79.504C16.9156 81.2409 14.6154 81.9313 11.6374 81.4834C11.0415 81.3594 10.4593 81.1761 9.89966 80.9369C8.08139 80.1512 6.12725 78.483 5.38477 76.6088C6.62323 75.7827 8.11467 75.646 9.5452 75.2579C11.2507 74.795 12.3045 74.2828 13.7099 73.2397C13.6038 73.2248 13.4986 73.2032 13.395 73.1755C11.7493 72.7281 10.425 71.9917 9.57333 70.4924C10.1676 70.2676 10.5165 70.2349 11.154 70.174Z" fill="#32281E"/>
<path d="M10.685 75.4878C11.8525 75.7237 14.6907 78.9909 13.9684 79.6531C13.6747 79.6132 12.5434 78.213 12.1655 77.847C11.4855 77.8138 8.35602 78.0081 7.96729 77.7496L8.00959 77.6599C8.61586 77.2856 10.8427 77.1704 11.623 77.1787C11.2713 76.7939 10.6541 76.0232 10.685 75.4878Z" fill="#030201"/>
<path d="M81.132 44.9624C81.132 44.6246 81.1619 44.1946 81.1912 43.8549C81.4022 41.429 80.694 39.2994 80.1841 36.9506L80.2195 36.9136C80.7809 37.5881 82.375 38.5609 83.1678 38.9899C85.5586 40.3174 88.2517 40.6406 90.9415 40.6896C93.0067 40.7274 95.0143 40.7213 96.7971 41.9294C97.2091 42.2086 97.2102 42.6793 97.76 42.7494C97.8857 43.4079 97.7417 43.8748 97.5269 44.499C97.4687 44.667 97.2733 44.9176 97.3514 45.0432C97.2356 45.198 96.6155 45.6359 96.4411 45.7692C92.0538 49.126 85.1445 48.7312 81.132 44.9624Z" fill="#32281E"/>
<path d="M89.1855 68.1254C90.7375 68.0191 93.0353 68.147 94.3973 68.9293C93.4837 70.0494 91.5592 70.5001 90.2015 70.7144C91.7147 72.0498 93.9361 72.5841 95.8656 72.9091C96.7266 73.0536 97.69 73.289 98.4491 73.7219C97.8683 75.2445 96.2576 76.3973 94.8784 77.1464C92.4395 78.3595 89.2531 78.3119 86.6707 77.4592C86.0805 77.2644 83.9572 76.1553 83.491 75.7689C82.0055 74.5369 82.052 71.9009 83.3769 70.5388C84.9776 68.8402 87.0157 68.2854 89.1855 68.1254Z" fill="#32281E"/>
<path d="M92.8163 72.7974C92.8988 72.7968 92.9874 72.8073 93.0704 72.8134L93.1347 72.9009C93.1391 73.2459 92.6574 73.8472 92.4376 74.1639C93.3312 74.2353 94.8721 74.346 95.7236 74.6002C95.8006 74.6229 95.7862 74.6561 95.81 74.7474C95.382 75.4041 92.7 74.949 92.0245 74.7718C91.5561 74.965 90.446 76.548 90.0457 76.6881L89.9937 76.6022C90.2583 75.0575 91.4631 73.5515 92.8163 72.7974Z" fill="#030201"/>
<path d="M78.6553 50.4217C79.3861 49.6898 79.7837 49.0425 80.2482 48.1313C81.5992 49.4844 84.0054 50.3138 85.8171 50.7988C85.8492 51.538 85.8625 52.2777 85.8564 53.0179C85.9439 56.2077 85.1792 60.121 84.3149 63.1735C82.3649 63.1148 80.3163 63.1956 78.4155 63.1131C78.5899 62.8562 78.761 62.5971 78.9288 62.3352C80.633 59.6537 81.0604 56.815 80.3661 53.7145C80.2781 52.6005 79.3164 51.2805 78.6553 50.4217Z" fill="#34AB43"/>
<path d="M78.6553 50.4217C79.3861 49.6898 79.7837 49.0425 80.2482 48.1313C81.5992 49.4844 84.0055 50.3138 85.8171 50.7988C85.8492 51.538 85.8625 52.2777 85.8564 53.0179C85.8425 53.2566 85.8298 53.4625 85.8337 53.7034C84.0387 53.7006 82.1545 53.6696 80.3661 53.7145C80.2781 52.6005 79.3164 51.2805 78.6553 50.4217Z" fill="#FEDB2B"/>
<path d="M78.4154 63.113C80.3162 63.1955 82.3648 63.1147 84.3149 63.1734C83.9334 64.5205 83.481 65.8465 82.9595 67.146C82.6511 67.9012 82.2928 68.642 81.99 69.379C79.5378 69.2605 77.5999 70.6691 76.4942 72.7974C76.3226 73.2863 76.2478 73.6318 76.1415 74.1401C75.7943 73.7868 75.5313 73.5465 75.115 73.2686C74.9112 73.1324 74.6693 73.0521 74.5131 72.907L74.522 72.7918C75.069 70.6347 74.3476 68.8115 72.7358 67.3525C75.1454 66.2745 76.6797 65.0819 78.4154 63.113Z" fill="#0568E9"/>
<path d="M74.522 72.7919C75.2535 72.7249 75.7623 72.7205 76.4942 72.7975C76.3226 73.2864 76.2479 73.6319 76.1415 74.1401C75.7944 73.7869 75.5314 73.5466 75.115 73.2687C74.9113 73.1324 74.6693 73.0522 74.5132 72.9071L74.522 72.7919Z" fill="#742787"/>
<path d="M71.3442 39.4709C71.5928 39.4828 71.9505 39.5415 72.1985 39.5977C74.1862 40.0485 76.2166 40.2753 78.1937 40.7501C78.5841 40.8437 78.9573 40.9284 79.3498 40.9991C79.7042 42.7054 79.738 44.1472 79.1389 45.8639C78.6937 47.1413 77.7901 48.6053 76.5969 49.382C76.5355 49.4218 76.4967 49.377 76.4292 49.3432C74.0666 47.8778 72.4964 47.7177 70.0752 46.6763C71.1698 46.6437 72.1166 46.1085 72.7522 45.225C73.3679 44.3647 73.6193 43.2958 73.4499 42.2513C73.2018 40.7507 72.4848 40.2752 71.3442 39.4709Z" fill="#FDFDFD"/>
<path d="M56.0049 68.0247C57.8774 68.6066 59.5097 68.6769 61.2936 69.0827C60.8783 69.0933 60.545 69.1082 60.1325 69.1492C59.0019 69.204 57.5823 69.5821 56.5641 70.0461C56.5309 69.4155 56.2657 68.5977 56.0049 68.0247Z" fill="#32281E"/>
<path d="M70.8184 39.9793C72.3631 39.9116 72.5165 41.3999 71.2929 41.9438C70.1047 42.0699 69.3572 40.6502 70.8184 39.9793Z" fill="#FDFDFD"/>
<path d="M67.7509 38.8413C68.2597 38.9182 68.7525 38.981 69.2646 39.0655C68.7918 39.1573 68.6611 39.191 68.2525 39.4116C67.8804 39.677 67.7254 39.7885 67.4087 40.1107C67.5261 39.6884 67.6401 39.2653 67.7509 38.8413Z" fill="#FDFDFD"/>
<path d="M34.4985 14.2492C35.1936 13.9547 36.3902 13.7097 37.1452 13.5725L37.5617 13.6252C36.8435 13.7492 36.1941 13.8356 35.4988 14.0805C35.388 14.1195 34.7352 14.366 34.6708 14.3741L34.4985 14.2492Z" fill="#4E2620"/>
<path d="M37.145 13.5725C37.528 13.4889 38.5139 13.2258 38.8462 13.3287L38.8908 13.4097C38.75 13.6403 37.9024 13.5573 37.5616 13.6252L37.145 13.5725Z" fill="#F92A23"/>
</svg>
