<svg width="104" height="100" viewBox="0 0 104 100" fill="none" xmlns="http://www.w3.org/2000/svg">
<path d="M47.498 1.01074C47.9608 1.02935 48.445 1.0716 48.7695 1.125C51.6227 1.59486 54.2104 3.15206 56.0469 5.32324C56.5731 5.08607 57.1238 4.88037 57.707 4.72852L57.7129 4.72754C60.2664 4.07961 62.9633 4.39823 65.2891 5.61035L65.75 5.86426L65.7539 5.86719C68.0798 7.24412 70.0104 9.6969 70.8799 12.292C72.0314 12.3632 73.1632 12.636 74.2217 13.1045L74.2285 13.1074C76.1757 13.9864 77.9268 15.6143 78.9941 17.458L79.125 17.7119C79.1645 17.7976 79.1996 17.8823 79.2305 17.958C79.2889 18.101 79.3645 18.298 79.415 18.4248C79.4749 18.5748 79.5263 18.6949 79.5732 18.7881C79.5998 18.8408 79.6168 18.8695 79.624 18.8809C79.7965 19.0602 79.978 19.2368 80.1689 19.4189L80.7793 20.0059L80.7842 20.0107C81.4 20.6265 81.9953 21.263 82.5674 21.9199L83.0791 22.5156C85.5094 25.4184 87.9955 29.4756 89.4102 32.9814C91.883 33.2429 95.0875 34.0147 97.2783 34.8047L97.665 34.9541C99.5977 35.7477 101.549 37.2767 102.441 39.3496L102.568 39.6621C103.163 41.2406 103.144 42.9897 102.509 44.5605L102.508 44.5596C101.57 46.9123 99.4434 48.8777 97.249 49.9893C97.9344 59.5571 94.809 69.4776 89.4004 77.249C88.581 78.426 87.4763 79.8917 86.3965 81.0527C86.956 82.3347 87.2663 83.9131 86.998 85.3418C86.54 87.7791 84.9013 89.4058 83.1963 90.6572L82.8545 90.9023C80.3875 92.6405 77.2278 93.674 74.2041 93.7363C73.6039 93.7486 72.9061 93.6467 72.3398 93.5508C72.055 93.7439 71.7271 93.9412 71.4258 94.1113C70.9469 94.3817 70.4573 94.6348 70.1396 94.7939H70.1387C65.563 97.0846 60.7571 98.0352 55.8086 98.4844L55.7793 98.4863L55.749 98.4873C55.2343 98.5033 54.691 98.5737 54.0957 98.6562C53.6629 98.7163 53.1967 98.7843 52.7295 98.8301L52.2627 98.8672C51.318 98.9242 50.4071 98.7418 49.7158 98.1406C49.2748 97.757 48.9942 97.2652 48.8369 96.7148C46.3253 96.8484 44.302 96.7205 41.8496 96.3379C41.44 97.3183 40.7812 98.0001 39.8691 98.335C38.7974 98.7284 37.5843 98.5595 36.4863 98.2578C35.5535 98.0017 34.6377 97.7623 33.6738 97.4316C30.9128 98.2094 27.8441 97.4888 26.0254 94.9717C25.2599 93.9124 24.6027 92.5907 24.2793 91.251C22.8645 90.4483 21.4825 89.5891 20.1387 88.6719V88.6709C10.4201 82.0655 3.76513 71.8311 1.66992 60.2686C1.56498 59.6978 1.48629 59.1256 1.41406 58.5752C0.421155 51.0127 1.14273 43.1483 4.34668 36.085C4.82444 35.0317 5.37365 33.7914 6.05273 32.7021C4.76934 28.9367 7.37072 24.9489 11.2969 24.5957C14.3481 20.6561 19.3561 16.529 23.8223 14.2881C23.9374 13.6911 24.121 13.1087 24.3701 12.5527C25.6155 9.74548 27.922 7.54553 30.7852 6.43457L30.7891 6.43359C33.1253 5.53726 35.3808 5.55235 37.623 6.36133C39.5491 3.50055 42.701 1.41937 46.2021 1.04785V1.0498C46.5778 0.994928 47.076 0.99378 47.498 1.01074Z" fill="black" stroke="white" stroke-width="2"/>
<path d="M46.3601 5.99505C48.1228 5.87818 49.577 6.30673 51.0337 7.32337C52.3869 8.26763 53.8835 10.0869 54.1642 11.7513C55.8019 9.59249 59.2559 8.49259 61.8322 9.43915C63.6869 10.1163 65.1907 11.5126 66.003 13.3122C66.7345 14.9362 66.7938 16.6728 66.1573 18.3343C67.4304 17.4901 68.6304 16.9805 70.194 16.9692C73.4211 16.9485 76.3331 19.7979 76.2589 23.0572C76.2051 25.4058 75.2434 26.6196 73.6562 28.1676C75.1484 27.7996 75.9278 27.2842 77.5847 27.8198C78.8765 28.2456 79.9463 29.1665 80.5598 30.3804C81.2271 31.728 81.0689 32.9425 80.612 34.3075C78.6656 34.2387 77.0059 34.0265 75.1297 33.5077C74.703 33.3899 73.5502 33.0977 73.2509 33.5155C73.2454 33.8044 73.4865 34.0275 73.6738 34.2272C74.4515 35.0576 75.5208 35.4196 76.5841 35.7366C78.5316 36.3173 80.439 35.9825 82.4139 35.8414C83.4712 35.7728 84.5317 35.7608 85.59 35.8053C87.197 35.8865 89.9238 36.4721 91.5072 36.9671C93.5102 37.6252 96.9131 38.8651 97.9231 40.7933C99.2275 43.2851 96.0772 45.7683 94.1259 46.6734C89.5894 48.7774 84.9634 48.2037 80.4335 46.521C76.1068 44.7467 73.2284 42.1798 70.5219 38.3853C70.5762 38.9122 70.6674 39.4348 70.7937 39.9492C69.5218 39.22 67.32 37.9114 66.1468 37.1048C66.4528 35.9678 66.528 35.554 67.4386 34.7363C66.3253 34.6244 65.2742 34.171 64.4284 33.4381C62.9455 32.1684 62.4682 30.8076 62.3183 28.9299C61.539 30.2364 60.5279 31.1693 59.1329 31.7951C57.3798 32.5992 55.3774 32.6672 53.5738 31.9839C50.6123 30.8553 49.9244 28.889 51.1094 26.0619C50.6232 26.5664 50.1307 27.2286 49.7811 27.8382C48.4665 30.1302 46.287 31.7483 43.7503 30.0073C42.6744 29.2689 42.1318 28.2226 41.9028 26.9294C40.0434 31.1255 35.0785 29.2635 34.5216 25.4027C34.3955 24.5292 34.7376 23.2725 35.3135 22.592C31.4901 23.9667 27.7635 20.5947 28.0524 16.709C28.3023 13.3479 31.4859 10.2876 34.9322 10.6366C37.1313 10.8593 38.7056 11.8945 40.1003 13.5659C39.8609 9.909 42.7429 6.47846 46.3601 5.99505Z" fill="#FFFFFD"/>
<path d="M74.2899 39.4883C75.6498 39.9981 76.5697 40.4045 78.0624 40.5018C79.9413 40.6244 81.5856 40.2401 83.42 40.0088C85.9123 39.6946 89.8507 40.3586 91.8844 41.9301C90.1737 41.4156 87.2431 40.9825 85.5114 41.2291C80.9282 41.8818 78.0399 43.2789 73.9741 39.8306C74.1213 39.7182 74.1861 39.6421 74.2899 39.4883Z" fill="black"/>
<path d="M73.1294 38.9353C73.51 39.1318 73.8972 39.3162 74.2899 39.4883C74.1861 39.642 74.1213 39.7182 73.9741 39.8306C73.6533 39.5827 73.3804 39.2502 73.1294 38.9353Z" fill="#10100D"/>
<path d="M32.5952 43.6787C33.4271 43.0777 34.3194 42.5147 35.1567 41.9058C35.9161 41.3537 36.6586 40.6766 37.5033 40.2666C37.931 40.0591 38.2481 40.0487 38.6864 40.0918C39.1475 40.1372 40.086 40.6376 40.2781 41.0396C40.6835 41.888 40.6437 43.2035 40.8937 44.2342C41.2488 45.6981 41.6101 46.1914 42.0807 47.3851L42.3784 47.9636C44.1303 50.829 46.9539 52.8759 50.2219 53.6503C52.6665 54.2483 55.4115 54.1533 57.794 53.3301C58.4333 53.1098 59.0643 52.799 59.6772 52.509C59.7849 52.4255 59.8854 52.3448 59.9991 52.269C59.8936 52.8435 59.9167 53.0121 59.9683 53.5964C60.026 53.8139 60.0814 53.8617 60.0194 54.0331C58.1883 54.8052 56.6 55.5082 55.25 57.0735C55.1309 57.2124 54.6794 57.8166 54.5795 57.8896L54.223 58.4256C54.0572 58.7629 53.8342 59.0765 53.687 59.4175C53.068 60.8482 53.0054 62.1433 53.7122 63.5372C52.359 63.6245 51.3567 64.2577 50.287 65.0349C50.0764 65.1881 49.6226 65.5555 49.4237 65.6752C49.172 65.9916 48.7541 66.365 48.4642 66.6682C47.0471 68.1313 40.6765 69.2698 38.5866 69.5362C37.4142 69.69 36.234 69.7762 35.0517 69.7943C31.8905 69.8443 28.7039 69.3264 25.8944 67.8188C25.508 67.6118 24.6881 67.1515 24.3949 66.8247C24.1472 66.6122 23.7978 66.3617 23.5307 66.1503C23.8953 66.2755 24.0973 66.3293 24.4748 66.4106C26.6585 66.6149 27.7835 66.2321 29.7488 65.232C30.3172 64.9426 30.9326 64.6043 31.5493 64.4373C32.2352 64.2154 33.3564 64.2209 33.9941 64.5878C34.4481 64.7405 34.8529 65.2968 35.3474 65.0777C35.5787 64.7833 35.5363 64.5301 35.5307 64.1594C35.4417 64.1028 35.1898 63.7607 35.1009 63.6464C34.821 63.435 34.3534 63.1659 34.0348 63.0116C33.3529 62.8045 32.9216 62.7946 32.2257 62.8825C29.8858 63.4509 27.9777 65.0651 25.4834 65.0013C24.7024 64.9816 23.8209 64.7773 23.6116 63.8854C23.2379 63.0978 23.2432 62.1185 23.4303 61.2826C23.6064 60.4292 23.9637 59.378 24.6006 58.7447C24.8859 58.4613 25.4347 58.2504 25.8132 58.1126C26.4443 57.8781 27.093 57.6941 27.7531 57.5612C28.9895 57.3157 30.5992 57.3228 31.4715 56.2914C31.8768 55.7576 31.8127 55.0579 31.209 54.736C29.5162 53.8331 27.5985 54.9211 26.1156 55.7554C25.141 56.304 24.4663 56.6539 23.4099 56.0294L23.3483 55.9926C23.0928 55.8416 22.8467 55.7109 22.6882 55.4627C22.3482 55.3023 21.6938 54.5795 21.4597 54.2599C21.0111 53.9485 20.1537 52.4156 19.6536 52.9198C19.4532 53.1219 19.3918 53.8837 19.4956 54.1445C19.9951 55.7647 21.2659 57.1454 22.6664 57.9885C22.7516 58.0401 22.8373 58.0906 22.9237 58.1395C21.9613 59.6065 21.4188 61.3788 21.7943 63.1307C21.9284 63.7733 22.1875 64.3829 22.5569 64.925C19.6164 63.8821 17.395 61.2837 17.0524 58.1412C16.728 56.6775 17.0178 54.7608 17.5464 53.3735C17.6464 52.9703 18.0444 52.2174 18.2353 51.8379C19.918 48.4963 23.6869 47.0693 27.1448 46.0741C27.4552 45.9537 27.6283 45.9002 27.9453 45.8153C28.0602 45.7236 29.1628 45.3069 29.3689 45.2304C30.3744 44.8571 31.2503 44.3639 32.2061 43.9003C32.3301 43.8257 32.4684 43.7506 32.5952 43.6787Z" fill="#2E270F"/>
<path d="M17.5464 53.3733L17.6015 53.4562C17.2025 54.799 16.9288 55.8178 17.0548 57.2408C17.0663 57.3721 17.1277 58.0712 17.0524 58.141C16.728 56.6773 17.0178 54.7606 17.5464 53.3733Z" fill="#33322E"/>
<path d="M23.4301 61.2825C23.5165 61.4049 23.4047 62.0816 23.4101 62.3831C23.4207 62.9675 23.5772 63.3634 23.6114 63.8852C23.2377 63.0976 23.243 62.1184 23.4301 61.2825Z" fill="#33322E"/>
<path d="M31.5493 64.4373C32.2352 64.2154 33.3565 64.2209 33.9942 64.5878C33.4752 64.5614 32.9241 64.3538 32.3608 64.4137C32.1383 64.4373 31.7649 64.462 31.5493 64.4373Z" fill="#33322E"/>
<path d="M32.2256 62.8825L32.2284 62.8057C32.6194 62.6777 33.7757 62.6305 34.0346 63.0116C33.3528 62.8046 32.9215 62.7947 32.2256 62.8825Z" fill="#33322E"/>
<path d="M21.4595 54.2598C21.7712 54.4092 22.5625 55.1539 22.688 55.4625C22.3479 55.3022 21.6936 54.5794 21.4595 54.2598Z" fill="#33322E"/>
<path d="M48.4639 66.668C48.5434 66.2742 49.0459 65.7091 49.4234 65.675C49.1716 65.9914 48.7538 66.3649 48.4639 66.668Z" fill="#33322E"/>
<path d="M59.6772 52.5088C59.7849 52.4253 59.8854 52.3446 59.9991 52.2688C59.8936 52.8433 59.9167 53.0119 59.9683 53.5962L59.9293 53.5732C59.7832 53.1733 59.9678 52.7312 59.6772 52.5088Z" fill="#33322E"/>
<path d="M24.3949 66.8246C24.1473 66.612 23.7978 66.3616 23.5308 66.1501C23.8954 66.2754 24.0973 66.3292 24.4749 66.4105C24.326 66.455 24.3556 66.428 24.2403 66.5148L24.3949 66.8246Z" fill="#42423F"/>
<path d="M22.688 55.4626C22.9686 55.5697 23.2118 55.7488 23.4252 55.9591L23.348 55.9926C23.0925 55.8416 22.8464 55.7109 22.688 55.4626Z" fill="#33322E"/>
<path d="M35.1006 63.6465C35.3873 63.702 35.57 63.8371 35.5304 64.1594C35.4414 64.1029 35.1894 63.7607 35.1006 63.6465Z" fill="#33322E"/>
<path d="M27.1445 46.074C27.4549 45.9536 27.6281 45.9001 27.9451 45.8152C27.7011 46.0647 27.4909 46.1056 27.1445 46.074Z" fill="#33322E"/>
<path d="M42.3781 47.9635C42.1183 47.878 41.9856 47.6436 42.0804 47.385L42.3781 47.9635Z" fill="#33322E"/>
<path d="M54.2227 58.4257C54.2216 58.3016 54.2321 58.2516 54.2474 58.1264C54.3381 57.9704 54.4111 57.9605 54.5792 57.8896L54.2227 58.4257Z" fill="#33322E"/>
<path d="M32.2061 43.9003C32.3301 43.8257 32.4684 43.7506 32.5952 43.6787C32.5532 43.8671 32.5982 43.7904 32.4594 43.9193C32.2937 43.9368 32.3517 43.9507 32.2061 43.9003Z" fill="#33322E"/>
<path d="M65.4857 43.5986C66.8582 43.6337 68.2307 43.653 69.6031 43.6562C70.187 43.6598 71.3777 43.695 71.9131 43.6115C73.513 45.462 75.924 47.4597 78.1846 48.4377C78.3059 50.2649 77.8463 51.8318 76.169 52.8407C75.299 53.3641 74.3401 53.3647 73.3784 53.1082C75.6648 56.4682 72.5843 61.2162 68.2949 58.5547C68.6151 59.3252 68.6569 59.8025 68.6349 60.6296C68.3993 60.8202 67.6573 61.2156 67.3596 61.3925C66.6023 61.8423 65.8575 62.3135 65.126 62.8045C61.8433 64.9558 58.938 67.6343 56.527 70.7318C53.642 74.4659 50.5065 79.8158 49.8908 84.6164C49.6679 86.3541 50.104 89.9899 50.3265 91.7276C48.9987 91.9489 46.6117 91.9319 45.2555 91.8759C43.8137 91.8512 42.3211 91.615 40.9014 91.3937C41.0354 90.2854 41.0873 88.9563 41.1591 87.826C41.4301 83.5597 41.6428 79.4159 42.233 75.1733C42.9721 75.354 43.3392 75.3408 44.0849 75.2771C42.4809 74.5961 41.2291 73.212 41.0068 71.4551C42.4092 70.7384 44.1446 69.7998 45.7416 70.198C47.1042 70.5374 47.5473 71.3041 48.2146 72.3948C48.1953 69.3615 50.0975 67.0126 52.7424 65.6478C54.1566 64.9184 55.4763 64.8487 56.9762 65.3561C56.8713 65.2562 56.7675 65.1546 56.6648 65.0519C52.9346 61.2986 56.9153 56.4386 61.0783 55.5472C61.7692 55.3995 62.2305 55.3901 62.939 55.4022C60.1979 52.6336 62.5645 49.1434 65.7455 48.1751C66.4172 47.9707 66.9938 47.971 67.688 47.9563C67.0669 47.6389 66.1486 46.901 65.7784 46.3012C65.1721 45.3191 65.2737 44.6293 65.4857 43.5986Z" fill="#FFFFFD"/>
<path d="M81.0245 49.9375C84.7454 51.2358 88.7618 51.4303 92.5904 50.4988C92.6239 51.2353 92.7189 53.5826 92.6107 54.2658C92.4926 55.8003 92.2257 58.7688 91.7962 60.2671C91.7083 60.8679 91.158 63.0461 90.9427 63.5958C90.2134 65.8844 89.4368 67.9395 88.3131 70.0754C88.027 70.618 87.6348 71.4144 87.2971 71.9213C87.1081 72.2448 86.9088 72.6117 86.6787 72.9022L86.6402 72.9967C86.0103 74.1154 84.5164 76.1371 83.7074 77.1333C83.4636 76.2689 82.179 73.7947 81.7132 72.9516C81.197 72.0015 80.8158 71.4463 80.1881 70.5697C80.2985 70.1254 80.3397 69.6712 80.176 69.2373C79.5065 67.459 76.4935 65.372 74.8832 64.5169C74.8596 64.2088 74.8223 63.9666 74.7745 63.6639C74.5449 62.9209 74.3813 62.3942 74.088 61.6736C73.9309 61.3419 73.8227 61.1205 73.6338 60.8069C74.9426 60.2594 75.1397 59.7794 76.0586 58.8545C76.6967 57.7731 77.2256 56.5615 76.9966 55.2725C77.5046 55.099 77.7919 54.9304 78.2422 54.6497C78.4251 54.4866 78.5706 54.3751 78.7678 54.229C80.0585 52.9884 80.8581 51.7691 81.0245 49.9375Z" fill="#5AD439"/>
<path d="M75.2769 63.6068C77.0828 63.4509 80.1474 63.5525 82.0482 63.5475C84.2456 63.5387 86.443 63.5437 88.6409 63.5618C89.3378 63.5722 90.2737 63.5558 90.9426 63.5959C90.2133 65.8844 89.4367 67.9396 88.313 70.0754C88.0269 70.6181 87.6347 71.4144 87.297 71.9213C87.1081 72.2448 86.9087 72.6117 86.6786 72.9022L86.6401 72.9967C86.0102 74.1154 84.5163 76.1371 83.7073 77.1334C83.4635 76.2689 82.1789 73.7947 81.7131 72.9517C81.1969 72.0015 80.8157 71.4463 80.188 70.5697C80.2984 70.1254 80.3396 69.6712 80.1759 69.2373C79.5064 67.459 76.4934 65.372 74.8832 64.5169C74.8595 64.2088 74.8222 63.9666 74.7744 63.664C74.8991 63.6337 75.1391 63.6195 75.2769 63.6068Z" fill="#1D80D9"/>
<path d="M86.6399 72.9967C86.0099 74.1154 84.5161 76.1371 83.7071 77.1334C83.4632 76.2689 82.1786 73.7947 81.7129 72.9517C81.9298 73.0055 86.3938 73.0604 86.6399 72.9967Z" fill="#B73AA0"/>
<path d="M81.0243 49.9375C84.7452 51.2358 88.7616 51.4303 92.5901 50.4988C92.6236 51.2353 92.7186 53.5826 92.6105 54.2658L92.4775 54.2807C92.3529 54.2559 92.1052 54.2461 91.9679 54.2367C90.7157 54.2834 89.2037 54.2494 87.9361 54.2521L78.9137 54.2466L78.7676 54.229C80.0582 52.9884 80.8579 51.7691 81.0243 49.9375Z" fill="#F8E800"/>
<path d="M81.0243 49.9375C84.7452 51.2358 88.7616 51.4303 92.5901 50.4988C92.6236 51.2353 92.7186 53.5826 92.6105 54.2658L92.4775 54.2807C92.3529 54.2559 92.1052 54.2461 91.9679 54.2367C92.1266 54.1521 92.2123 54.1708 92.3809 54.1038C92.5506 53.8281 92.4517 51.3072 92.444 50.8201C91.7191 50.8042 91.0441 51.0013 90.3323 51.0799C87.7961 51.36 85.2697 51.2265 82.784 50.6454C82.4193 50.5598 81.9706 50.5839 81.5944 50.6037L81.6273 50.6114C81.5329 50.6207 81.0929 50.6092 81.0721 50.7004C80.714 52.2321 79.9945 53.1828 78.9137 54.2466L78.7676 54.229C80.0582 52.9884 80.8579 51.7691 81.0243 49.9375Z" fill="#F7F62E"/>
<path d="M92.4778 54.2807L92.6107 54.2659C92.4927 55.8004 92.2257 58.7689 91.7963 60.2671C91.754 60.1633 91.7336 60.1117 91.7567 59.9958C91.9292 59.122 92.0599 58.257 92.1879 57.3772C92.3394 56.3342 92.3663 55.3143 92.4778 54.2807Z" fill="#67DB5B"/>
<path d="M78.2423 54.6497C78.1247 55.1088 77.2866 55.212 77.246 55.4713C77.1026 56.3868 76.9274 58.2629 76.0586 58.8544C76.6968 57.773 77.2257 56.5615 76.9966 55.2725C77.5047 55.0989 77.7919 54.9303 78.2423 54.6497Z" fill="#67DB5B"/>
<path d="M74.0879 61.6736C74.5212 61.924 74.6294 63.1581 74.9293 63.5272C74.9694 63.5766 75.1929 63.5942 75.2769 63.6068C75.1391 63.6194 74.8991 63.6337 74.7744 63.6639C74.5448 62.9208 74.3812 62.3941 74.0879 61.6736Z" fill="#67DB5B"/>
<path d="M15.6901 63.5283C17.1889 65.601 19.7008 68.3833 22.5486 68.0022C24.8112 69.9579 28.191 71.6819 31.2005 71.8335C31.0847 71.9763 30.3652 72.9292 30.3325 72.961C30.0528 73.5245 29.8936 73.8661 30.1147 74.5191C30.1604 74.6509 30.2092 74.7822 30.2608 74.9124C29.0123 76.6874 27.91 78.8749 26.8062 80.7543C25.9688 82.1801 24.4209 84.383 24.4997 86.0235C19.3045 82.3487 15.0604 78.5729 11.5935 73.1318C10.1496 70.745 8.93815 68.4114 8.00246 65.7696C7.75487 65.0711 7.47225 64.3225 7.31396 63.5997L7.84258 63.5344L15.6901 63.5283Z" fill="#B73AA0"/>
<path d="M15.6901 63.5283C17.1889 65.601 19.7008 68.3833 22.5486 68.0022C24.8112 69.9579 28.191 71.6819 31.2005 71.8335C31.0847 71.9763 30.3652 72.9292 30.3325 72.961C30.0239 73.1867 28.5996 73.0967 28.1638 73.0923C27.1769 73.0813 26.1899 73.0764 25.2029 73.0769L15.5932 73.0791C14.9217 73.078 12.0657 73.0346 11.5935 73.1318C10.1496 70.745 8.93815 68.4114 8.00246 65.7696C7.75487 65.0711 7.47225 64.3225 7.31396 63.5997L7.84258 63.5344L15.6901 63.5283Z" fill="#1D80D9"/>
<path d="M7.28394 41.4938C7.59073 40.3061 8.06975 39.1443 8.55207 38.0174C8.76198 37.5268 9.12852 36.8426 9.30037 36.3713C9.71151 36.8394 10.2135 37.4351 10.6562 37.8607C12.7248 39.8843 15.4415 41.1123 18.3271 41.3283C18.6922 41.3513 19.0582 41.3569 19.4238 41.3449C19.5632 42.697 20.1511 44.5506 21.0653 45.5728C20.64 45.6986 20.3693 45.8076 19.9576 45.9802C16.7631 47.7732 14.7426 50.663 13.9766 54.2378C12.9573 54.1807 11.7641 54.2186 10.7288 54.223C9.08991 54.2203 7.45112 54.2345 5.8126 54.2658C5.70474 51.5484 5.85154 48.8269 6.25115 46.1369C6.34237 45.4972 6.48956 44.6417 6.65037 44.0273C6.83315 43.1058 7.0235 42.3921 7.28394 41.4938Z" fill="#F8E800"/>
<path d="M7.28396 41.4938C7.59075 40.3061 8.06977 39.1443 8.55209 38.0174C8.762 37.5268 9.12854 36.8426 9.30039 36.3713C9.71153 36.8394 10.2135 37.4351 10.6562 37.8607C12.7248 39.8843 15.4415 41.1123 18.3271 41.3283C18.6922 41.3513 19.0582 41.3569 19.4238 41.3449C19.5632 42.697 20.1512 44.5506 21.0653 45.5728C20.64 45.6986 20.3693 45.8076 19.9577 45.9802C20.1332 45.7786 20.402 45.7055 20.6511 45.4592C20.7038 45.2453 20.4531 44.7848 20.3499 44.5563L20.1192 44.4029C19.8282 44.4396 18.9084 44.4277 18.5787 44.4289L15.43 44.4344L9.74218 44.4316C9.2609 44.4295 6.95125 44.4625 6.72613 44.3456L6.65039 44.0273C6.83317 43.1058 7.02353 42.3921 7.28396 41.4938Z" fill="#FDA60A"/>
<path d="M7.28418 41.4938C7.59097 40.3061 8.06999 39.1443 8.55231 38.0174C8.76222 37.5268 9.12876 36.8426 9.30061 36.3713C9.71175 36.8394 10.2137 37.4351 10.6564 37.8607C12.725 39.8843 15.4417 41.1123 18.3273 41.3283C18.6925 41.3513 19.0584 41.3569 19.424 41.3449C19.5634 42.697 20.1514 44.5506 21.0655 45.5728C20.6402 45.6986 20.3695 45.8076 19.9579 45.9802C20.1334 45.7786 20.4022 45.7055 20.6513 45.4592C20.704 45.2453 20.4533 44.7848 20.3501 44.5563L20.1194 44.4029C20.0274 44.1272 19.4571 42.4418 19.3868 42.3571L19.1563 42.3416L19.0868 42.2582C19.0644 41.914 19.2053 41.963 19.1884 41.673C19.0641 41.5073 16.4752 41.3852 16.0421 41.1095C15.9026 41.0207 15.0674 40.7479 14.8783 40.8751C14.9741 41.0085 15.0103 40.9805 15.2069 41.0424L15.1956 41.1055C14.97 41.1412 14.8478 41.0796 14.6864 40.9275C14.3953 40.6532 14.4721 40.8425 14.1936 40.8498C14.1352 40.7583 14.159 40.8064 14.1705 40.6644C14.0576 40.59 13.9768 40.5406 13.8437 40.5087C12.8914 40.2803 10.7336 37.7945 10.1949 37.7915C10.1 37.7909 10.0333 37.7854 9.94055 37.7569C10.0026 37.5297 10.0029 37.5498 9.88162 37.3735C9.68808 37.3794 9.59438 37.4044 9.40847 37.4442C9.33894 37.3899 9.26875 37.3364 9.19796 37.2837L9.06225 37.312L9.19412 37.3621C9.13293 37.639 8.89101 37.871 8.77133 38.1865C8.64941 38.5079 8.72679 39.0655 8.58142 39.2238L8.40644 39.1485L8.38925 39.26C8.46713 39.3519 8.48404 39.3723 8.54473 39.4758L8.49338 39.6027C8.35706 39.6783 8.22827 39.7243 8.16006 39.8566C8.27287 40.3293 8.30341 40.3041 8.09421 40.7057L8.03182 40.7219L8.00612 40.6004L8.07922 40.5009C7.87694 40.5109 7.68747 40.9051 7.67104 41.1037C7.76716 41.1069 7.71828 41.0935 7.81263 41.1588L7.8095 41.2855C7.58191 41.3588 7.49716 41.3889 7.28418 41.4938Z" fill="#FCB017"/>
<path d="M69.9604 61.1573L70.2312 61.1233C70.4042 61.3281 70.3426 61.4501 70.196 61.6341C70.3707 61.5429 70.5656 61.4473 70.7353 61.3512L70.8946 61.9636C71.1906 61.7763 71.2159 61.6324 71.3856 61.3254C71.6437 61.901 72.1847 63.034 72.3346 63.6052C72.4346 63.8386 72.512 64.0347 72.5966 64.2741L72.1671 64.6849L71.2494 65.8256L71.1961 65.9102L70.7243 66.6094C69.984 67.911 69.2656 69.2148 68.7148 70.6065C68.6302 70.8196 68.5066 71.1513 68.399 71.3458C68.198 71.4644 68.2051 71.4237 68.0036 71.3392L67.9585 71.2453C68.0085 71.0942 68.0371 71.0497 68.0266 70.891L67.9464 70.8394C67.8102 71.0475 67.6279 71.3469 67.4763 71.5336L66.9255 71.4864C66.7036 71.6357 66.5267 71.7709 66.2801 71.8758C65.1614 71.5847 61.4789 70.4522 60.4821 70.9124C60.2377 71.3441 61.8667 72.5991 62.1753 72.9368C62.919 73.5887 64.1239 74.5564 64.7385 75.2638C64.8709 75.45 64.839 75.4923 64.7566 75.7197C64.3409 76.0421 63.087 76.4743 62.5241 76.7181C61.6717 77.0488 60.7584 77.3547 59.9274 77.7029C58.3858 78.3493 56.8024 79.0589 55.2893 79.769L54.4704 80.1535L54.2821 80.2595C52.9057 80.9817 52.116 81.6314 51.1938 82.8358C51.7277 81.5303 52.2698 80.0101 52.8624 78.7502C54.9774 74.3357 57.9222 70.3693 61.5366 67.068C61.9265 66.7071 62.428 66.2375 62.8509 65.9261C63.2326 65.5746 63.7928 65.143 64.2025 64.8376C65.018 64.1775 66.2939 63.3811 67.1704 62.8226L68.1277 62.2305L68.3682 62.0712C68.8823 61.7384 69.4139 61.4336 69.9604 61.1573Z" fill="black"/>
<path d="M61.5366 67.0679C61.5756 67.203 61.5641 67.2365 61.5366 67.3743L61.5937 67.4172L61.809 67.3584C60.7249 68.2454 59.4578 69.3899 58.5851 70.4939C55.8962 73.8957 53.8048 77.8851 51.8298 81.7137C52.8585 80.802 53.1183 80.4165 54.348 79.7211C54.3128 79.8486 54.2716 79.9178 54.2035 80.0315C54.2348 80.1451 54.2332 80.1517 54.2821 80.2594C52.9057 80.9816 52.116 81.6313 51.1938 82.8357C51.7277 81.5302 52.2698 80.01 52.8624 78.7501C54.9774 74.3356 57.9222 70.3692 61.5366 67.0679Z" fill="#6B6B67"/>
<path d="M60.4165 70.1843C62.1312 70.1266 63.5284 70.4166 65.1678 70.8988C65.7351 71.0652 66.2728 71.3178 66.8582 71.47L66.9258 71.4865C66.7039 71.6358 66.5271 71.7709 66.2805 71.8758C65.1617 71.5848 61.4793 70.4523 60.4824 70.9125C60.238 71.3442 61.867 72.5991 62.1757 72.9369C62.2416 73.1604 62.403 73.6289 62.2531 73.7915C61.5331 73.1522 60.6774 72.4772 60.0969 71.7149C59.5911 71.0509 59.7547 70.5748 60.4165 70.1843Z" fill="#4A4A48"/>
<path d="M54.5947 79.5828C55.6195 78.8326 59.3074 77.4041 60.5948 76.8373C61.1319 76.6001 62.0551 76.3738 62.7087 76.0679L62.9514 76.214C62.9075 76.3458 62.7861 76.3315 62.6922 76.4084C62.6922 76.4084 62.5373 76.6945 62.5242 76.7181C61.6718 77.0488 60.7584 77.3547 59.9275 77.7029C58.3859 78.3493 56.8025 79.0589 55.2894 79.769L54.4705 80.1535L54.2821 80.2595C54.2333 80.1518 54.2349 80.1452 54.2036 80.0315C54.2717 79.9178 54.3129 79.8486 54.3481 79.7212C54.3958 79.6872 54.5364 79.6147 54.5947 79.5828Z" fill="#434441"/>
<path d="M54.5947 79.5828L54.6671 79.6613C54.8044 79.6426 54.8621 79.6344 54.995 79.5987L55.0137 79.6503L55.2894 79.7689L54.4705 80.1534L54.2821 80.2594C54.2333 80.1518 54.2349 80.1452 54.2036 80.0315C54.2717 79.9178 54.3129 79.8486 54.3481 79.7212C54.3958 79.6871 54.5364 79.6146 54.5947 79.5828Z" fill="#42423F"/>
<path d="M55.014 79.6504L55.2897 79.769L54.4708 80.1535C54.4538 80.0898 54.456 80.0299 54.4521 79.9623C54.5741 79.8097 54.8157 79.7784 55.014 79.6504Z" fill="#42423F"/>
<path d="M70.131 66.4358C70.287 66.175 70.4556 65.936 70.628 65.6873C70.6961 65.751 70.7637 65.8163 70.8301 65.8822C70.9905 65.8663 71.0416 65.8498 71.1965 65.9102L70.7247 66.6094C69.9843 67.911 69.266 69.2148 68.7151 70.6065C68.6305 70.8196 68.507 71.1514 68.3993 71.3458C68.1983 71.4644 68.2055 71.4238 68.0039 71.3392L67.9589 71.2453C68.0088 71.0942 68.0374 71.0498 68.027 70.891L67.9468 70.8394C68.4037 69.4329 69.3319 67.6853 70.131 66.4358Z" fill="#7C7973"/>
<path d="M70.1309 66.4358C70.2868 66.175 70.4554 65.936 70.6279 65.6873C70.696 65.751 70.7635 65.8163 70.83 65.8822C70.9904 65.8663 71.0414 65.8498 71.1963 65.9102L70.7246 66.6094L70.5988 66.4446C70.3989 66.4238 70.3352 66.4111 70.1309 66.4358Z" fill="#AEABA6"/>
<path d="M70.8945 61.9636C71.1906 61.7763 71.2158 61.6324 71.3855 61.3254C71.6437 61.901 72.1846 63.034 72.3346 63.6052C72.4345 63.8386 72.512 64.0347 72.5965 64.2742L72.1671 64.685L72.1539 64.2961C72.0819 64.183 72.0336 64.1094 71.9748 63.988L71.9342 63.9023L71.8491 63.9007L71.7689 64.0742C71.5426 63.826 71.0302 62.3393 70.8945 61.9636Z" fill="#E3E2DE"/>
<path d="M72.335 63.6052C72.4349 63.8386 72.5124 64.0347 72.597 64.2742L72.1675 64.685L72.1543 64.2961C72.2032 64.2813 72.2356 64.2494 72.2806 64.217C72.3652 64.0188 72.3361 63.9737 72.2905 63.7469L72.2751 63.6766L72.335 63.6052Z" fill="#D5D1CB"/>
<path d="M67.1706 62.8225C67.2711 63.1059 67.226 63.0504 67.5353 63.174C66.6395 63.7792 65.3873 64.5937 64.5668 65.2577C64.5766 65.1523 64.5245 64.8914 64.4377 64.8035L64.2026 64.8376C65.0182 64.1774 66.294 63.3811 67.1706 62.8225Z" fill="#AEABA6"/>
<path d="M62.1753 72.9368C62.9189 73.5887 64.1239 74.5564 64.7385 75.2638C64.8708 75.45 64.839 75.4922 64.7566 75.7196C64.6643 75.289 64.1393 75.2451 63.8235 74.9244C63.734 74.8337 63.5978 74.8848 63.4939 74.9128C63.3105 74.7783 63.0332 74.4971 62.8596 74.3312C62.7673 74.2664 62.3571 73.8853 62.2527 73.7913C62.4027 73.6288 62.2412 73.1603 62.1753 72.9368Z" fill="#6B6B67"/>
<path d="M62.8599 74.3312L63.0103 74.2263C63.8084 74.5059 63.8309 75.0337 64.7387 75.2638C64.8711 75.45 64.8392 75.4923 64.7568 75.7196C64.6646 75.289 64.1395 75.2451 63.8237 74.9244C63.7342 74.8338 63.598 74.8848 63.4942 74.9128C63.3108 74.7783 63.0334 74.4971 62.8599 74.3312Z" fill="#595956"/>
<path d="M63.4943 74.9129C63.5981 74.8849 63.7343 74.8338 63.8238 74.9245C64.1396 75.2452 64.6647 75.2891 64.757 75.7197C64.3412 76.0421 63.0874 76.4743 62.5244 76.7182C62.5376 76.6946 62.6925 76.4084 62.6925 76.4084C62.7864 76.3315 62.9078 76.3458 62.9517 76.214L62.7089 76.0679C63.0802 75.9026 63.6734 75.7461 63.7898 75.3468C63.7634 75.1513 63.6366 75.0612 63.4943 74.9129Z" fill="#42423F"/>
<path d="M71.7692 64.0742L71.8494 63.9006L71.9345 63.9023L71.9751 63.988C72.0339 64.1093 72.0822 64.1829 72.1542 64.2961L72.1674 64.6849L71.2496 65.8256L71.1964 65.9102C71.0415 65.8498 70.9904 65.8663 70.83 65.8822C70.7636 65.8163 70.696 65.7509 70.6279 65.6872C70.7153 65.5422 70.8613 65.3604 70.9662 65.2209C71.176 64.887 71.689 64.3603 71.7692 64.0742Z" fill="#D5D1CB"/>
<path d="M70.6279 65.6872C70.7153 65.5422 70.8613 65.3604 70.9662 65.2209C71.3243 65.4796 71.0437 65.5258 71.2496 65.8256L71.1964 65.9102C71.0415 65.8498 70.9904 65.8663 70.83 65.8822C70.7636 65.8163 70.696 65.7509 70.6279 65.6872Z" fill="#C1BDB6"/>
<path d="M69.9606 61.1573L70.2314 61.1233C70.4044 61.3281 70.3429 61.4501 70.1963 61.6341C69.9195 61.8329 68.9682 62.3524 68.637 62.5188L68.4624 62.6243C68.4097 62.4529 68.3119 62.4189 68.1872 62.292L68.1279 62.2305L68.3685 62.0712C68.8825 61.7384 69.4142 61.4336 69.9606 61.1573Z" fill="#70706B"/>
<path d="M68.3685 62.0713L68.6255 62.2053C68.6239 62.3113 68.62 62.3514 68.609 62.4552L68.637 62.5189L68.4624 62.6243C68.4097 62.453 68.3119 62.4189 68.1872 62.2921L68.1279 62.2306L68.3685 62.0713Z" fill="#6B6B67"/>
<path d="M64.2027 64.8375L64.4377 64.8035C64.5245 64.8913 64.5767 65.1522 64.5668 65.2577C64.134 65.5828 63.6452 65.9337 63.2289 66.2726C63.241 66.0815 63.263 66.1485 63.1839 65.9931C63.0307 65.9909 62.9928 65.9832 62.8511 65.9261C63.2328 65.5746 63.793 65.1429 64.2027 64.8375Z" fill="#7F7C74"/>
<path d="M61.5366 67.0681C61.9266 66.7073 62.428 66.2377 62.8509 65.9263C62.9926 65.9834 63.0305 65.9911 63.1837 65.9933C63.2628 66.1487 63.2408 66.0817 63.2287 66.2728L63.1628 66.325L62.3939 66.9176C62.2446 67.0373 61.9661 67.2762 61.809 67.3586L61.5937 67.4174L61.5366 67.3745C61.5641 67.2367 61.5756 67.2032 61.5366 67.0681Z" fill="#62615C"/>
<path d="M62.394 66.9174C62.4023 66.8284 62.4424 66.7719 62.4808 66.6922C62.4429 66.4319 62.6851 66.2732 62.9048 66.2117C63.0075 66.3023 63.0273 66.3078 63.1629 66.3248L62.394 66.9174Z" fill="#595956"/>
<path d="M67.1704 62.8225L68.1277 62.2305L68.187 62.292C68.3117 62.4188 68.4094 62.4529 68.4622 62.6242L67.5351 63.174C67.2259 63.0504 67.2709 63.1059 67.1704 62.8225Z" fill="#96948C"/>
<path d="M66.1655 70.5608C65.9853 70.3291 65.9584 70.0133 66.0957 69.7546C66.2336 69.4954 66.5098 69.341 66.8025 69.3603C67.0953 69.3789 67.3496 69.5679 67.4528 69.8425C67.5819 70.1874 67.4396 70.5757 67.1178 70.7552C66.796 70.9348 66.3912 70.8519 66.1655 70.5608Z" fill="#FFFFFD"/>
<path d="M67.4529 69.8425C67.582 70.1874 67.4397 70.5757 67.1179 70.7553C66.796 70.9349 66.3913 70.852 66.1655 70.5609C66.1524 70.3659 66.1084 70.2786 66.1913 70.1473C66.6428 70.3072 66.7971 70.294 67.1656 69.9864L67.2162 69.9436L67.3628 69.9639L67.4529 69.8425Z" fill="#D5D1CB"/>
<path d="M61.2528 75.01C61.3022 74.7041 61.5417 74.4635 61.8476 74.413C62.1535 74.3625 62.4572 74.513 62.6022 74.787C62.7472 75.0611 62.701 75.3972 62.4874 75.6218C62.2694 75.8508 61.9283 75.9113 61.6449 75.7707C61.3615 75.6306 61.2028 75.3225 61.2528 75.01Z" fill="#FFFFFD"/>
<path d="M61.2528 75.01L61.3039 75.1215L61.2665 75.0726L61.294 75.1221L61.3857 75.0155C61.6334 75.2011 61.5779 75.3708 62.0085 75.3923C62.1507 75.3994 62.3787 75.3895 62.4956 75.4532L62.4874 75.6218C62.2694 75.8509 61.9283 75.9113 61.6449 75.7707C61.3615 75.6306 61.2028 75.3225 61.2528 75.01Z" fill="#C1BDB6"/>
<path d="M23.0677 30.7663C27.207 29.4853 33.1371 30.7965 36.6267 33.2539C37.2479 33.6913 37.896 34.4215 38.452 34.9622C39.776 34.8812 40.5014 34.9843 41.78 35.3455C42.2165 35.4095 42.9777 35.9032 43.3867 35.8548C43.8832 35.7959 44.7144 35.4835 45.2024 35.3326C45.7298 35.1705 46.2652 35.0356 46.8064 34.9282C52.1498 33.8581 62.3509 35.6675 66.8616 38.6936C66.833 39.6841 66.5908 40.6985 66.3151 41.6478C65.9713 42.8317 65.3545 42.3814 64.4906 42.8187C64.2989 43.1237 63.7651 44.5319 63.5954 44.9501C62.7249 47.1881 61.1965 49.6058 59.1946 50.9651C54.1094 54.4196 45.563 51.9795 42.8827 46.5081C42.5457 45.8201 42.1596 44.915 41.9747 44.162C41.4997 42.2273 41.6002 39.5484 39.0788 39.1091C37.6343 38.8574 35.8373 40.516 34.724 41.3193C35.3619 40.3988 36.681 38.7885 37.6996 38.3679C39.4632 37.6397 41.5882 38.8295 42.2562 40.5448C42.5927 41.4086 42.6584 42.4048 42.843 43.3234C42.9836 44.0218 43.1913 44.705 43.463 45.3636C45.5816 50.4499 52.1125 52.7797 57.1768 50.8525C60.5281 49.5772 62.2625 45.6883 63.3016 42.5387C63.6014 41.6294 64.4093 41.7223 65.1771 41.3947C65.3699 40.8796 65.589 39.7396 65.7192 39.1471C64.54 38.633 62.9578 37.9541 61.7275 37.5444C57.4173 36.1087 52.4678 35.3643 47.9309 35.7513C47.1678 35.8164 46.1782 36.0934 45.4413 36.2802C44.9436 36.4064 43.6548 36.9015 43.2342 36.8704C42.3707 36.8064 41.239 36.2296 40.3309 36.0561C39.4325 35.8844 38.6804 35.9233 37.7842 35.842C37.5424 35.6221 37.1472 35.0938 36.8897 34.8124C36.2429 34.1058 35.215 33.4498 34.3585 33.0391C31.7107 31.7695 28.6677 31.1869 25.7382 31.3877C25.2004 31.4246 24.361 31.494 23.857 31.6657C23.491 32.4294 23.2663 33.0809 23.1173 33.9104C23.3008 34.2469 23.5111 34.547 23.7253 34.8643C22.8553 37.9829 22.0764 43.3416 25.9526 44.8019L26.1994 44.8984L26.2327 44.9784C26.0988 45.0999 25.8496 45.1309 25.6612 45.1734C25.4067 45.2871 25.0174 45.4185 24.7454 45.5184C23.8905 44.8057 23.3699 44.3491 22.8448 43.3274C21.5386 40.7858 21.8551 37.6668 22.7081 35.0354C22.4462 34.7041 22.2637 34.4721 22.0401 34.116C22.184 33.0943 22.6818 31.7221 23.0677 30.7663Z" fill="#FFFFFD"/>
<path d="M25.9526 44.8018L26.1994 44.8983L26.2327 44.9783C26.0988 45.0998 25.8496 45.1308 25.6612 45.1733L25.6245 45.0884C25.7864 44.9665 25.7634 45.0301 25.9193 44.8425L25.9526 44.8018Z" fill="#FFFFFD"/>
<path d="M20.9411 37.376C19.5868 37.4665 18.3662 37.5573 17.0123 37.2263C14.634 36.645 12.5047 34.7947 11.2544 32.7364C10.8614 32.0895 10.3815 30.9864 10.6288 30.2553C11.0602 28.9798 12.3658 29.1676 13.356 29.2754C17.7689 29.7556 21.7183 28.3114 25.5673 26.3019C26.66 25.7315 27.8607 25.2008 28.9528 24.5798C29.474 25.3284 30.2428 25.8688 31.1235 26.1057L31.3016 26.1914C30.1293 26.9927 29.2136 28.168 28.5601 29.4171C27.1484 29.2438 23.9655 29.2113 22.6982 29.8984C21.8433 30.3619 21.3506 32.6599 21.0509 33.5955C20.8328 34.2761 21.0621 34.8101 21.4186 35.3851C21.1502 36.1567 21.0721 36.5816 20.9411 37.376Z" fill="#FFFFFD"/>
<path d="M5.8125 54.2658C7.45102 54.2345 9.08981 54.2202 10.7287 54.2229C11.764 54.2185 12.9572 54.1806 13.9765 54.2378L13.9182 54.5129C13.3828 57.494 13.7459 60.0297 15.1919 62.7L15.6899 63.5282L7.84239 63.5343L7.31377 63.5996C6.5234 60.9639 6.04701 58.2443 5.8945 55.4965C5.84479 55.2296 5.82749 54.5673 5.8125 54.2658Z" fill="#5AD439"/>
<path d="M15.1922 62.7001L15.0856 62.6782C14.1899 61.5435 14.1894 60.065 13.5801 58.8798C13.5446 58.8106 13.5163 58.7606 13.5017 58.6821C13.4039 58.1532 13.4387 57.5178 13.3536 57.04C13.2336 56.365 13.4681 55.4335 13.5143 54.7294C13.5159 54.7058 13.5166 54.6822 13.5177 54.6586C13.5819 54.741 13.5448 54.7124 13.6223 54.753C13.7195 54.5982 13.7515 54.5119 13.8876 54.3977L13.9186 54.513C13.3832 57.4942 13.7462 60.0299 15.1922 62.7001Z" fill="#67DB5B"/>
<path d="M5.89453 55.4966L5.95407 55.4346C6.02332 55.6345 6.05644 56.1321 6.07956 56.3644C6.0867 56.2018 6.08632 55.9646 6.13091 55.8168C6.24317 55.9459 6.20577 55.9003 6.26673 56.0733C5.94852 58.118 6.68001 60.3258 7.13734 62.314C7.1944 62.5622 7.3534 63.3383 7.45583 63.4992L7.84242 63.5343L7.3138 63.5997C6.52343 60.964 6.04705 58.2443 5.89453 55.4966Z" fill="#67DB5B"/>
<path d="M29.8924 25.3007L29.684 25.0586L29.7125 24.7923L29.6573 24.746L29.4894 24.8072L29.4434 24.7728L29.5313 24.7079C29.8339 24.69 30.1957 24.7774 30.4786 24.8788C31.0854 25.0166 32.3988 25.0761 32.959 24.7836C32.1019 27.4867 34.5153 30.8112 37.1526 31.424C37.2286 31.4417 37.3151 31.4718 37.3911 31.4942C38.2266 31.5867 38.672 31.5855 39.5087 31.4996C40.1611 31.3032 40.6606 31.1408 41.1456 30.6368C41.8443 31.7176 43.0361 32.3884 44.275 32.6542C45.7126 32.9765 47.2195 32.699 48.4479 31.8856C48.7556 31.6802 49.0477 31.4524 49.322 31.2041C49.8153 32.1915 50.6269 32.7978 51.5807 33.3212C51.8773 33.4435 52.2107 33.5721 52.5001 33.7021C51.9784 33.6581 51.4561 33.6229 50.9331 33.5963C50.5242 33.6592 49.449 33.6264 48.9541 33.6637C47.2367 33.7932 45.022 34.2649 43.4725 35.0166C41.4103 34.1725 41.0625 34.1095 38.8619 34.0885C37.5685 32.0114 34.1938 30.4716 31.8398 29.9614C31.9304 29.7352 32.2966 28.9087 32.3092 28.7564C32.3562 28.1889 32.0028 26.5154 31.7122 26.105C31.4972 26.0653 31.5433 26.0901 31.3015 26.1913L31.1235 26.1055L31.1495 26.0366C30.8995 25.8516 30.2545 25.6261 29.8742 25.3448L29.8924 25.3007Z" fill="#2E270F"/>
<path d="M29.8924 25.3007L29.684 25.0586L29.7125 24.7923L29.6573 24.746L29.4894 24.8072L29.4434 24.7728L29.5313 24.7079C29.8339 24.69 30.1957 24.7774 30.4786 24.8788C30.2476 24.9672 30.0415 25.0217 29.9586 25.2758L29.8924 25.3007Z" fill="#10100D"/>
<path d="M39.5088 31.4998C39.2703 31.7928 37.7713 31.6584 37.3929 31.5689L37.3911 31.4944C38.2267 31.5869 38.6721 31.5857 39.5088 31.4998Z" fill="#33322E"/>
<path d="M51.5808 33.3213C51.8774 33.4435 52.2107 33.5722 52.5002 33.7021C51.9784 33.6581 51.4561 33.6229 50.9331 33.5964C51.2244 33.525 51.3078 33.6241 51.5753 33.5001L51.5808 33.3213Z" fill="#42423F"/>
<path d="M24.7903 18.8926C25.055 20.3649 25.7725 21.7113 26.7385 22.8404C23.303 24.2524 20.1192 25.965 16.2183 25.8661C16.9384 25.0571 18.575 23.4047 19.4042 22.7434C19.8583 22.3451 20.3203 21.9561 20.79 21.5764C22.434 20.3082 23.0848 19.9432 24.7903 18.8926Z" fill="#FD4E39"/>
<path d="M53.109 37.8096C53.5358 38.5407 53.2617 41.3496 54.4579 41.9505C55.4833 42.4659 56.7794 42.7853 57.8927 43.1553C56.7558 43.437 55.5365 43.4494 54.4458 43.9197C53.7664 44.2123 53.4973 44.6317 53.2194 45.2847C52.7801 46.3174 52.456 47.3893 52.0534 48.4345L52.0123 48.5218C51.8887 48.4215 51.881 44.7526 51.3065 44.1373C50.3746 43.1388 48.5331 42.6576 47.3354 42.4232C51.463 41.4931 51.7431 42.5869 53.109 37.8096Z" fill="#FFFFFD"/>
<path d="M53.5694 95.2321C53.2382 93.3071 51.8218 85.4105 52.9131 84.1106C52.9943 84.0134 53.0976 83.9617 53.2091 83.9062C53.2607 84.0825 53.2091 83.9908 53.191 84.1693C52.979 86.2475 53.2376 89.4818 53.521 91.5408C54.7458 91.5326 56.2451 91.3332 57.4726 91.1778C57.8197 91.1503 58.4941 90.979 58.7671 91.0949C58.805 91.2701 58.8292 91.3277 58.7973 91.5073C58.4771 91.7369 54.2756 92.09 53.6276 92.1043C53.7253 93.0325 53.9027 93.7756 54.1109 94.6818C55.6333 94.5752 57.7016 94.3693 59.1867 93.9771L59.2356 94.5296C57.12 94.8713 55.7091 95.0898 53.5694 95.2321Z" fill="#42423F"/>
<path d="M57.4727 91.1779C57.8198 91.1504 58.4942 90.9791 58.7672 91.095C58.5217 91.285 57.7681 91.2685 57.4727 91.1779Z" fill="#595956"/>
<path d="M76.2373 70.4594C76.691 70.4539 77.1748 70.4363 77.5307 70.7669C78.8658 72.0076 81.6926 78.8628 82.3934 80.8307C82.1556 81.0399 82.1177 81.0734 81.9568 81.3436C81.9101 81.4205 81.8662 81.4782 81.814 81.5507L81.7475 81.5144L81.6734 81.1487C80.6151 78.613 79.5331 76.052 78.2864 73.603C77.8668 72.7781 77.3582 71.4721 76.524 71.0618L76.6536 70.9866C76.7415 70.8235 76.7261 70.9097 76.6866 70.7164C76.4608 70.4753 76.5762 70.5472 76.2373 70.4594Z" fill="#D5D1CB"/>
<path d="M81.6733 81.1487C81.9018 81.2179 81.8106 81.1553 81.9567 81.3437C81.9101 81.4205 81.8661 81.4782 81.8139 81.5507L81.7475 81.5145L81.6733 81.1487Z" fill="#E3E2DE"/>
<path d="M52.3848 82.7325C53.5156 81.5171 55.2983 80.7636 56.7878 80.0727C58.3552 79.3445 59.9386 78.6514 61.5368 77.9934C62.164 77.7358 63.5068 77.1427 64.1 76.9812L64.1494 77.0888C64.1176 77.2629 64.1038 77.2915 64.0061 77.4294L63.9572 77.4969C63.7117 77.8429 63.687 77.8858 63.3223 78.1192C63.2059 77.9385 63.174 77.8934 63.0285 77.7375C62.817 77.7375 62.912 77.7106 62.7324 77.8204L62.7121 77.9204C62.7868 78.0478 62.8264 78.0901 62.8489 78.2356C62.688 78.3927 62.482 78.4481 62.2678 78.5327C62.1283 78.3246 62.1102 78.2883 61.9268 78.1252C61.7521 78.1494 61.8131 78.5629 61.6933 78.7403C61.6928 78.7409 61.411 78.9611 61.3874 78.9798C61.2397 78.7837 61.1029 78.5547 60.8563 78.5179C60.7558 78.7151 60.7992 78.8524 60.8069 79.0973C60.6839 79.2324 60.5334 79.2769 60.361 79.3571C60.2226 79.1671 60.1495 79.0193 59.9194 78.9776C59.7195 79.1671 59.8897 79.4905 59.5888 79.7273C59.3647 79.7668 59.4652 79.7827 59.2735 79.7064C59.1966 79.5878 59.1554 79.4911 59.0302 79.4334C58.7825 79.5026 58.8605 79.4318 58.7419 79.5971C58.7869 79.9508 58.7155 80.2946 58.2646 80.1584C58.1647 80.0282 58.1125 79.9349 57.9664 79.8591C57.7961 79.8673 57.7418 79.931 57.6045 80.0343L57.8478 80.4692C57.6544 80.5401 57.3634 80.6884 57.1975 80.651L57.1799 80.6357C57.0437 80.3874 57.1124 80.4259 56.8987 80.3182C56.6917 80.3632 56.6675 80.4292 56.6494 80.6505L56.7867 80.9844C56.2929 81.1135 56.3237 81.1904 55.9047 80.8564C55.7525 80.8537 55.7602 80.8455 55.6372 80.9322C55.6026 81.0761 55.6647 81.1612 55.7278 81.3002C55.518 81.7588 55.1522 81.5567 54.8644 81.3452C54.6991 81.3568 54.7771 81.3337 54.6288 81.4337C54.6437 81.9587 54.6003 81.9142 54.1796 82.1751C54.0368 82.0252 53.9885 81.945 53.7891 81.8901L53.6858 81.9285C53.565 82.2707 53.4865 82.766 53.0405 82.821C52.9461 82.7496 52.8747 82.6903 52.7851 82.6134C52.5698 82.6276 52.6758 82.5969 52.4781 82.7677L52.3848 82.7325Z" fill="#E3E2DE"/>
<path d="M57.1797 80.6356C57.485 80.2264 57.1638 80.3972 57.3736 80.1067L57.557 80.1105L57.6042 80.0342L57.8475 80.4692C57.6542 80.54 57.3631 80.6883 57.1973 80.6509L57.1797 80.6356Z" fill="#D5D1CB"/>
<path d="M68.71 78.6777C69.3987 78.8694 71.1391 82.492 71.3187 83.2801C71.9822 82.8556 72.6516 82.5574 73.4557 82.4365C74.3789 82.2981 75.4664 82.3141 76.2737 82.8644C76.3775 82.9352 76.355 82.9083 76.3693 83.0176L76.1759 83.0379C73.6946 82.9138 73.0383 83.1642 70.8859 84.227C70.7777 83.9908 70.3153 82.7188 70.211 82.4135C69.9276 81.5809 68.8 79.4005 68.71 78.6777Z" fill="#42423F"/>
<path d="M80.2101 26.3943L79.9976 26.1083L80.0404 26.0159C81.1147 27.2855 83.1012 30.1707 83.8206 31.683C84.0194 32.037 84.2446 32.4412 84.3885 32.8224C84.4967 32.9368 84.7279 33.5247 84.807 33.7087L82.5695 33.6969C82.714 33.0137 82.7519 32.3122 82.6816 31.6175C82.5069 29.9482 81.6754 28.5382 80.3782 27.4958L80.4792 27.3214C80.449 27.1765 80.4512 27.2137 80.4523 27.0635L80.4765 27.0855L80.488 26.8036C80.3957 26.6421 80.3425 26.5275 80.2101 26.3943Z" fill="#FA974B"/>
<path d="M82.7471 33.5841C82.8443 32.7331 82.8937 31.947 82.8542 31.0897C82.8481 30.9664 82.8849 30.9451 82.9684 30.8845C83.3457 30.9764 83.488 31.5105 83.8202 31.6831C84.019 32.0372 84.2442 32.4414 84.3881 32.8226C84.3261 33.144 84.5908 33.3081 84.4754 33.564C84.2579 33.6429 83.0667 33.5897 82.7471 33.5841Z" fill="#FDA60A"/>
<path d="M51.3023 91.5035C51.4874 91.4815 51.6433 91.4409 51.8103 91.5436C51.9904 91.6551 52.1354 91.8094 52.1777 92.0225C52.2606 92.4427 52.8329 95.8494 52.7764 95.9142C52.6358 96.074 52.3617 96.0834 52.1645 96.1037C51.8745 96.1361 51.7235 96.1636 51.4297 96.1345C51.3973 96.1125 51.3643 96.0911 51.3314 96.0691C51.1144 95.0316 51.1683 93.8838 50.883 92.8568C50.8436 92.7151 50.6379 92.4295 50.5684 92.3306C50.9119 92.0093 50.9755 91.6875 51.3023 91.5035Z" fill="#E3E2DE"/>
<path d="M51.2608 92.0632C51.6754 92.1835 51.4069 92.9969 51.7106 93.3577L51.7655 93.339C51.9588 93.099 51.9468 92.9519 52.0819 92.6729L52.1648 93.1309C52.1873 93.4418 52.2153 93.5582 51.9814 93.7921C51.2317 94.0212 51.0528 92.4944 51.2608 92.0632Z" fill="black"/>
<path d="M51.7775 95.0898C52.1312 95.0711 52.3838 95.0233 52.4453 95.4775C52.3453 95.7049 52.4217 95.617 52.2004 95.7455C52.0202 95.7692 51.9576 95.7867 51.7742 95.7576C51.5298 95.5769 51.4359 95.405 51.6187 95.1233L51.7775 95.0898Z" fill="black"/>
<path d="M31.8675 76.5522C32.1491 76.6176 32.1345 76.5742 32.2885 76.8422C32.1867 77.0537 31.8651 77.7572 31.7583 77.9181C31.0548 79.4801 30.1113 81.1195 29.2931 82.6353C28.9123 83.3416 28.4566 84.0061 28.0669 84.7487L27.9392 84.6262C27.7718 84.6377 27.789 84.6762 27.6314 84.8239C27.4588 84.6251 27.5085 84.7168 27.4687 84.4417L27.3145 84.4153C27.4552 84.1857 27.6082 83.9589 27.755 83.7326C28.9284 81.9219 29.9485 80.0584 30.9766 78.1631C31.2684 77.6227 31.5556 77.0811 31.8675 76.5522Z" fill="#D5D1CB"/>
<path d="M31.8674 76.5522C32.149 76.6176 32.1344 76.5742 32.2885 76.8422C32.1866 77.0537 31.865 77.7572 31.7583 77.9181L31.6632 77.9176C31.5836 78.073 31.5128 78.207 31.4248 78.3581C31.2375 78.4075 31.0927 78.3158 30.9766 78.1631C31.2683 77.6227 31.5555 77.0811 31.8674 76.5522Z" fill="#E3E2DE"/>
<path d="M70.3348 86.3682C70.985 86.5099 71.7001 86.494 72.3619 86.4995C75.2085 86.5248 77.5717 85.8278 80.0613 84.4839L79.9679 84.6684C80.0613 84.8255 80.1102 84.8392 80.0904 84.9793L80.1299 85.0523C79.7927 85.2901 79.2369 85.5219 78.847 85.6905C76.1267 86.8702 72.8425 87.5776 69.9316 86.7582C69.947 86.673 69.947 86.4989 69.9498 86.4056C70.019 86.3194 69.9739 86.349 70.0909 86.3243C70.1738 86.399 70.2062 86.4374 70.2727 86.5248L70.3348 86.3682Z" fill="#42423F"/>
<path d="M57.167 34.1952C58.4412 33.9577 59.8362 33.7395 60.7682 32.6897C61.2767 33.833 61.7408 34.3508 62.5559 35.2453L62.5339 35.5494C61.3141 35.0781 58.4472 34.3663 57.167 34.1952Z" fill="#2E270F"/>
<path d="M58.7951 38.7702C60.2554 38.6362 61.7663 40.3745 60.5114 41.5836C59.8748 41.7156 59.4086 41.2531 59.0241 40.7997C58.4969 40.1771 58.024 39.3743 58.7951 38.7702Z" fill="#FFFFFD"/>
<path d="M73.6875 66.252C74.9528 66.9714 76.5423 68.0396 77.3496 69.2803C77.4485 69.4939 77.4611 69.4099 77.41 69.5692C77.2057 69.5648 77.1288 69.5302 76.9377 69.4698C76.7202 69.3363 76.6949 69.4028 76.4198 69.1809C76.0985 69.1529 75.8535 69.2018 75.5378 69.2479C75.4021 68.8431 75.7833 68.9046 75.451 68.4323L75.4158 68.5982C75.0138 69.2353 74.0033 68.87 74.0933 68.1022L74.2103 67.8293L74.0593 67.7414L74.0368 67.653L74.1708 67.4635L74.1147 67.3861C73.9549 67.3268 73.8681 67.3158 73.7786 67.1735L73.8802 66.8852L73.7226 66.5441C73.654 66.3453 73.6562 66.4398 73.6875 66.252Z" fill="#E3E2DE"/>
<path d="M74.2105 67.8291C74.5269 67.6885 74.7493 67.6286 75.0706 67.8099L75.1645 67.7659C75.2727 67.8538 75.3501 67.8972 75.4221 68.0109L75.3825 68.118C75.4133 68.2295 75.4468 68.3179 75.4512 68.4321L75.416 68.598C75.014 69.2351 74.0035 68.8699 74.0935 68.1021L74.2105 67.8291Z" fill="#FFFFFD"/>
<path d="M74.0935 68.1021L74.1523 68.2037C74.2775 68.1877 75.2249 68.5233 75.416 68.598C75.014 69.2351 74.0035 68.8698 74.0935 68.1021Z" fill="#AEABA6"/>
<path d="M75.1642 67.7661C75.2724 67.854 75.3499 67.8974 75.4218 68.0111L75.3823 68.1182C75.2785 68.0308 75.167 67.9089 75.0703 67.8101L75.1642 67.7661Z" fill="#AEABA6"/>
<path d="M75.4219 68.011C75.4955 68.0956 75.6004 68.2241 75.6762 68.2999L75.8508 68.123C75.8969 68.24 75.8865 68.2071 75.909 68.3422L75.9788 68.3762C76.6224 68.6964 76.9102 69.2022 77.3496 69.2802C77.4485 69.4939 77.4611 69.4098 77.41 69.5691C77.2057 69.5647 77.1288 69.5301 76.9377 69.4697C76.7202 69.3362 76.6949 69.4027 76.4198 69.1808C76.0985 69.1528 75.8535 69.2017 75.5377 69.2478C75.4021 68.843 75.7832 68.9045 75.451 68.4322C75.4466 68.318 75.4131 68.2296 75.3823 68.1181L75.4219 68.011Z" fill="#D5D1CB"/>
<path d="M75.4219 68.011C75.4955 68.0956 75.6004 68.2241 75.6762 68.2999C75.9189 68.5349 76.2841 68.8716 76.4198 69.1808C76.0985 69.1528 75.8535 69.2017 75.5377 69.2478C75.4021 68.843 75.7832 68.9045 75.451 68.4322C75.4466 68.318 75.4131 68.2296 75.3823 68.1181L75.4219 68.011Z" fill="#10100D"/>
<path d="M73.8804 66.885C74.2901 67.1195 74.7679 67.4847 75.1645 67.7659L75.0706 67.8099C74.7493 67.6286 74.5268 67.6885 74.2105 67.8291L74.0595 67.7412L74.0369 67.6528L74.1709 67.4633L74.1149 67.3859C73.9551 67.3266 73.8683 67.3156 73.7788 67.1733L73.8804 66.885Z" fill="#33322E"/>
<path d="M33.8951 79.2161C34.1276 79.4121 34.033 79.6725 33.9748 79.9443C33.7466 81.0087 33.4623 82.0626 33.2093 83.1215C32.9654 84.1645 32.7599 85.2156 32.5932 86.2734C32.5394 86.5975 32.3317 88.3006 32.2389 88.5098L32.1384 88.4703C32.0697 88.4296 31.8498 88.3165 31.8343 88.266C31.7348 87.9403 31.8772 87.1357 31.9263 86.8215C32.3349 84.2035 32.9234 81.6831 33.8951 79.2161Z" fill="#D5D1CB"/>
<path d="M39.1034 88.9229L39.1826 88.9624C39.1772 89.1134 39.1296 89.4501 39.1905 89.5308L39.2896 89.3886C39.4265 89.4265 39.4057 89.4457 39.5166 89.4787L39.5547 89.6346C39.4859 90.4705 39.2395 94.4205 38.9508 95.007C38.5388 95.292 35.8279 94.5089 35.6234 94.2134C35.623 94.0602 35.6058 93.9679 35.6851 93.8383C36.8029 94.2222 37.3638 94.3578 38.5227 94.6044C38.7663 92.9079 38.9358 90.6518 39.1034 88.9229Z" fill="#454642"/>
<path d="M78.1763 24.0198C78.4684 24.302 79.44 25.2262 79.6311 25.5344C79.7602 25.6789 79.9326 25.8606 80.0403 26.0159L79.9974 26.1084L80.21 26.3943C80.3423 26.5275 80.3956 26.6422 80.4879 26.8037L80.4764 27.0856L80.4522 27.0636C80.4511 27.2138 80.4489 27.1765 80.4791 27.3215L80.378 27.4958C80.0666 27.2502 79.786 27.0563 79.4581 26.8325C78.6903 26.4094 78.3097 26.2311 77.459 26.079L77.7396 25.4861C77.9258 24.9596 78.0527 24.5667 78.1763 24.0198Z" fill="#FD4E39"/>
<path d="M78.1764 24.0198C78.4686 24.302 79.4401 25.2262 79.6312 25.5344C79.3709 25.6007 78.6355 24.6223 78.2697 24.4052L78.2027 24.4467C78.1258 24.7558 77.9852 25.2827 77.7397 25.4861C77.9259 24.9596 78.0528 24.5667 78.1764 24.0198Z" fill="#FB724D"/>
<path d="M68.3079 91.2964C68.6517 91.0954 69.1416 90.65 69.4569 90.6911L69.6134 90.9218L69.6738 91.0229C69.5541 91.1997 67.9147 92.0071 67.5967 92.1455C66.0457 92.8204 64.3755 93.4345 62.7202 93.798C62.4352 93.8607 61.8239 94.0194 61.5861 94.0161C61.507 93.8749 61.5175 93.7843 61.4966 93.6141L61.5345 93.5525C64.1916 92.988 65.8452 92.4184 68.3079 91.2964Z" fill="#33322E"/>
<path d="M68.3081 91.2964C68.6519 91.0954 69.1418 90.65 69.4571 90.6911L69.6136 90.9218C69.06 91.0207 68.7255 91.4134 68.3081 91.2964Z" fill="#42423F"/>
<path d="M27.585 33.169C27.6597 33.1595 27.7347 33.1535 27.81 33.1511C28.0041 33.1445 28.406 33.2124 28.5023 33.3648C28.9586 34.0866 27.3307 35.1578 26.9375 35.4107C25.7123 35.8135 25.4502 33.9563 27.585 33.169Z" fill="#FFFFFD"/>
<path d="M34.8779 78.5899C35.0786 78.2296 35.2152 78.3564 35.5389 78.4383L35.6123 78.4558C36.2996 79.1308 37.8966 81.1574 38.4042 81.9411C38.2087 82.4761 38.2393 82.2613 38.2501 82.7589C37.7742 82.2009 37.3402 81.5073 36.8719 80.9454C36.2147 80.1568 35.5386 79.378 34.8779 78.5899Z" fill="#6B6B67"/>
<path d="M63.929 89.9224C64.61 89.561 65.8682 89.3374 66.619 88.9612C66.8293 88.8558 68.2265 88.261 68.3375 88.2681C68.41 88.4142 68.4122 88.4137 68.444 88.5724C68.2919 88.7339 68.0272 88.8289 67.8179 88.9239C67.3247 89.1622 66.8727 89.3825 66.3636 89.5884C64.9944 90.0684 63.7807 90.4941 62.3566 90.8181C62.3242 90.7517 62.3176 90.7044 62.2983 90.6319C62.3977 90.4858 62.3588 90.5331 62.5878 90.4825C62.6015 90.437 62.668 90.303 62.6916 90.2524C63.1216 90.1212 63.4907 90.0267 63.929 89.9224Z" fill="#595956"/>
<path d="M66.3639 89.5884L66.2305 89.5016L66.2129 89.4187C66.6962 89.2468 67.5167 88.6998 67.7891 88.7766L67.8182 88.9238C67.325 89.1622 66.873 89.3824 66.3639 89.5884Z" fill="#42423F"/>
<path d="M62.6917 90.2524C63.1217 90.1212 63.4908 90.0267 63.9291 89.9224C63.6457 90.0707 63.51 90.1074 63.2112 90.1986C63.2859 90.2431 63.3458 90.2788 63.4232 90.3194L62.5879 90.4826C62.6016 90.437 62.6681 90.303 62.6917 90.2524Z" fill="#6B6B67"/>
<path d="M63.2769 83.8858L63.3252 83.8562C63.5306 83.7282 63.6075 83.664 63.7882 83.5042C64.1517 83.876 65.2727 85.7631 65.6176 86.2826L65.8922 86.7346C66.0163 86.9598 66.0383 86.9142 66.0163 87.1229C65.8691 87.2613 65.8592 87.2569 65.6824 87.3387C65.5907 87.4008 65.6445 87.3788 65.516 87.3931L65.4303 87.247C65.2617 86.9944 65.1425 86.8033 64.9909 86.5385C64.9333 86.4573 64.8718 86.3535 64.8179 86.2678C64.7086 86.1211 64.6224 85.9707 64.5285 85.8147C64.1413 85.2056 63.6915 84.4686 63.2769 83.8858Z" fill="#E3E2DE"/>
<path d="M64.9908 86.5386L64.981 86.3464C65.1776 86.1624 65.3791 86.1673 65.6175 86.2827L65.8921 86.7347C66.0162 86.9598 66.0382 86.9142 66.0162 87.1229C65.869 87.2614 65.8591 87.257 65.6823 87.3388C65.5906 87.4008 65.6444 87.3789 65.5159 87.3932L65.4302 87.2471C65.2616 86.9944 65.1424 86.8033 64.9908 86.5386Z" fill="#C1BDB6"/>
<path d="M65.4303 87.247C65.4017 87.0405 65.4006 86.9257 65.5269 86.7599C65.7082 86.761 65.6604 86.7703 65.8411 86.9093L65.8922 86.7346C66.0163 86.9598 66.0382 86.9142 66.0163 87.1229C65.8691 87.2613 65.8592 87.2569 65.6824 87.3388C65.5906 87.4008 65.6445 87.3788 65.5159 87.3931L65.4303 87.247Z" fill="#AEABA6"/>
<path d="M65.8407 86.9093L65.8918 86.7346C66.0159 86.9598 66.0379 86.9142 66.0159 87.1229C65.8687 87.2613 65.8589 87.2569 65.682 87.3388L65.6655 87.3107C65.6694 87.1438 65.7507 87.0532 65.8407 86.9093Z" fill="#E3E2DE"/>
<path d="M64.5283 85.8148C64.6052 85.7253 64.6184 85.7083 64.7063 85.6287L64.8403 85.6473C64.9677 85.8654 64.8952 86.0417 64.8177 86.2679C64.7085 86.1213 64.6222 85.9708 64.5283 85.8148Z" fill="#C1BDB6"/>
<path d="M35.2993 73.3328C35.9841 73.1774 37.4459 73.0462 38.1204 73.189C38.2876 73.2708 38.4219 73.3224 38.5592 73.4487C38.8579 74.0001 38.5599 74.1539 38.1022 74.4362C38.0591 74.3269 38.1297 74.1995 38.014 73.926C37.9616 73.7777 37.9889 73.831 37.8778 73.7107C37.3575 73.519 35.4821 73.8107 34.8199 73.8628C34.6686 73.8859 33.9032 74.0111 33.7993 74.0084C33.6024 73.954 33.5816 73.9837 33.4644 73.8562C33.5263 73.7634 33.5873 73.6717 33.6445 73.5761C33.8534 73.5036 34.9901 73.3718 35.2993 73.3328Z" fill="#42423F"/>
<path d="M33.6445 73.5761C33.8534 73.5036 34.9901 73.3718 35.2993 73.3328L35.5278 73.4602L35.5328 73.5124C35.2018 73.6392 34.9022 73.5821 34.6499 73.7095L34.6426 73.7804C34.7207 73.8221 34.7362 73.8353 34.8199 73.8627C34.6686 73.8858 33.9032 74.011 33.7993 74.0083C33.6024 73.9539 33.5816 73.9836 33.4644 73.8562C33.5263 73.7633 33.5873 73.6716 33.6445 73.5761Z" fill="#838280"/>
<path d="M38.1204 73.189C38.2876 73.2708 38.4218 73.3224 38.5592 73.4487L38.5189 73.5767C38.2766 73.6256 37.9785 73.6223 37.8452 73.3828C37.95 73.2021 37.8768 73.2807 38.1204 73.189Z" fill="#33322E"/>
<path d="M59.4204 90.6621C59.4254 90.6176 59.4462 90.5666 59.4605 90.5215C59.7148 90.3908 59.7488 90.3826 60.0339 90.3628L60.1179 90.443C60.18 90.7302 60.3392 91.5293 60.3579 91.8078C60.5326 92.2477 60.6962 93.769 60.7605 94.2831C60.5463 94.3336 60.3101 94.3764 60.0926 94.4204C60.0114 93.6097 59.784 92.5679 59.6379 91.7391C59.5863 91.3942 59.4946 91.007 59.4204 90.6621Z" fill="#42423F"/>
<path d="M59.4204 90.6621C59.4254 90.6176 59.4462 90.5666 59.4605 90.5215C59.7148 90.3908 59.7488 90.3826 60.0339 90.3628L60.1179 90.443C60.18 90.7302 60.3392 91.5293 60.3579 91.8078L60.3057 91.8188C60.2673 91.6573 60.2129 91.3464 60.1201 91.2267L60.0048 91.2498C59.7796 91.4387 59.6934 91.4711 59.6379 91.7391C59.5863 91.3942 59.4946 91.007 59.4204 90.6621Z" fill="#595956"/>
<path d="M59.4204 90.6621C59.4254 90.6176 59.4462 90.5666 59.4605 90.5215C59.7148 90.3908 59.7488 90.3826 60.0339 90.3628L60.1179 90.443C59.8235 90.5105 59.695 90.5407 59.4204 90.6621Z" fill="#AEABA6"/>
<path d="M81.0893 83.792C81.5127 83.4422 82.1306 82.8781 82.4211 82.4053C82.7105 81.9329 82.4216 82.0131 82.3728 81.8099C82.5057 81.6182 82.5447 81.5133 82.7891 81.5545C83.14 81.8659 83.2158 82.4882 83.2718 82.9358C83.0939 82.9451 83.0461 82.9226 82.9055 83.0056C82.2355 83.4372 81.8708 84.0188 80.9635 84.5373C80.7185 84.7416 80.4126 84.8998 80.1298 85.0525L80.0902 84.9794C80.11 84.8394 80.0611 84.8256 79.9678 84.6686L80.0611 84.484C80.1638 84.3945 80.947 83.8881 81.0893 83.792Z" fill="#D5D1CB"/>
<path d="M80.0611 84.484C80.1638 84.3945 80.947 83.8881 81.0893 83.792L81.2222 83.8282C81.2403 84.1292 81.1261 84.2736 80.9635 84.5373C80.7185 84.7416 80.4126 84.8997 80.1298 85.0524L80.0902 84.9794C80.11 84.8393 80.0611 84.8256 79.9678 84.6685L80.0611 84.484Z" fill="#6B6B67"/>
<path d="M75.2765 70.6467C75.4451 70.6852 75.4863 70.6753 75.6022 70.8005C75.6137 70.9488 75.6181 70.9389 75.5445 71.068L75.3776 71.1712L75.3056 71.224C73.4729 71.8825 72.2959 73.0287 71.0366 74.4824L70.9092 74.2386C71.6319 73.138 72.8007 71.7814 74.0067 71.197C74.1698 71.0894 74.4049 70.9878 74.5862 70.9005L74.9355 70.7533C75.0343 70.7159 75.1722 70.678 75.2765 70.6467Z" fill="#4D4F4E"/>
<path d="M75.2766 70.6467C75.4452 70.6852 75.4864 70.6753 75.6023 70.8005C75.6138 70.9488 75.6182 70.9389 75.5446 71.068L75.3777 71.1712L75.3057 71.224L75.1399 71.1075C75.1437 70.9757 75.1563 71.0207 75.2865 70.8736L75.2799 70.8087C75.1201 70.7599 75.1053 70.7637 74.9355 70.7533C75.0344 70.7159 75.1723 70.678 75.2766 70.6467Z" fill="#676765"/>
<path d="M74.5858 70.9004C74.5627 71.1481 74.5643 71.1344 74.4106 71.3337C74.2178 71.3914 74.3123 71.3886 74.1173 71.3436L74.0887 71.2585L74.0063 71.197C74.1695 71.0893 74.4045 70.9877 74.5858 70.9004Z" fill="#42423F"/>
<path d="M34.1944 77.6963C33.7921 77.2289 33.4838 76.6945 34.0788 76.2414C34.5831 75.8581 35.2892 75.489 35.8456 75.1721C35.8356 75.4105 35.8338 75.3616 36.0551 75.4742L36.1102 75.6499C35.0073 76.2568 33.8817 76.5556 35.0962 77.8517C35.2622 78.0445 35.4562 78.2592 35.6125 78.4558L35.5391 78.4383C35.2154 78.3564 35.0788 78.2296 34.8782 78.5899C34.6563 78.3103 34.4399 78.0269 34.2289 77.7391L34.1944 77.6963Z" fill="#96948C"/>
<path d="M34.6148 77.5815C34.7553 77.8287 34.7057 77.8408 34.9092 77.9188C34.9587 77.8979 35.0499 77.8534 35.0963 77.8518C35.2622 78.0445 35.4563 78.2593 35.6126 78.4559L35.5391 78.4383C35.2155 78.3565 35.0789 78.2296 34.8782 78.5899C34.6564 78.3103 34.44 78.027 34.229 77.7392C34.3903 77.7123 34.3805 77.7556 34.5519 77.7661L34.6148 77.5815Z" fill="#838280"/>
<path d="M34.1945 77.6962L34.1802 77.498L34.246 77.4326C34.408 77.4612 34.5045 77.4672 34.6148 77.5815L34.5519 77.766C34.3805 77.7556 34.3903 77.7122 34.229 77.7391L34.1945 77.6962Z" fill="#89847A"/>
<path d="M71.3247 85.1973C72.7719 84.3444 74.3558 83.8336 76.0457 84.2653C74.5618 84.6146 73.3963 84.8925 71.9794 85.4988C71.8931 85.3385 71.769 85.4318 71.6811 85.2067L71.8558 85.1243C71.7152 85.0902 71.5147 85.1896 71.3247 85.1973Z" fill="#42423F"/>
<path d="M71.3549 67.677C71.9398 67.9895 73.9532 69.44 74.1147 70.0584C74.0093 70.1984 73.934 70.2045 73.761 70.288C73.6292 70.3275 73.549 70.1633 73.4716 70.0699C72.8219 69.2928 71.9234 68.5997 71.0518 68.0917C71.1462 67.9846 71.2687 67.7995 71.3549 67.677Z" fill="#42423F"/>
<path d="M38.4042 81.9412C38.9495 82.6892 39.4671 83.5729 39.8553 84.4165C40.1076 84.9646 40.0534 85.2024 39.9298 85.7445C39.6728 84.8157 38.7533 83.5701 38.2501 82.7589C38.2393 82.2614 38.2088 82.4761 38.4042 81.9412Z" fill="#4D4F4C"/>
<path d="M24.8796 39.7207C25.1077 39.9172 25.2427 41.1827 25.4929 41.6433C25.596 41.8335 25.6955 42.0257 25.7913 42.2197C25.8746 42.3901 25.9374 42.4938 25.8836 42.6514L25.7198 42.674C24.5004 42.1331 24.2239 40.8301 24.8796 39.7207Z" fill="#FFFFFD"/>
<path d="M33.7992 74.0084C33.4905 74.0485 32.8507 74.1622 32.5837 74.0441C32.2736 73.5317 33.8035 71.8709 34.1964 71.5584C34.342 71.5441 34.4323 71.5189 34.5632 71.5809C34.4338 72.0554 33.2871 73.0808 33.4562 73.5493L33.6444 73.5762C33.5872 73.6718 33.5262 73.7635 33.4643 73.8563C33.5815 73.9837 33.6023 73.9541 33.7992 74.0084Z" fill="#E3E2DE"/>
<path d="M61.4218 82.2717L61.5619 82.325C62.3143 83.8309 63.438 85.294 64.2816 86.7725C64.4623 87.0889 64.9049 87.6436 64.9917 87.9099C64.292 87.4629 61.2878 83.0093 61.4218 82.2717Z" fill="#42423F"/>
<path d="M27.3144 84.4153L27.4687 84.4416C27.5085 84.7168 27.4588 84.6251 27.6314 84.8239C27.0753 85.6252 27.4222 86.0481 27.8789 86.8027C27.7948 87.0202 27.828 87.046 27.5906 87.1443C27.4534 87.0526 27.3816 87.0707 27.2154 87.0724L27.154 87.0735C26.7712 86.7439 26.7652 86.0937 26.8023 85.6279C26.8419 85.1293 27.0372 84.8058 27.3144 84.4153Z" fill="#E3E2DE"/>
<path d="M27.2167 86.3376C27.412 86.4266 27.3427 86.3596 27.4453 86.5304C27.4101 86.7188 27.3171 86.7655 27.1682 86.8918L27.1055 86.8512C27.121 86.6573 27.1656 86.5233 27.2167 86.3376Z" fill="#C1BDB6"/>
<path d="M35.3157 77.324C35.2771 77.0483 35.2704 76.8188 35.4494 76.5804C35.5556 76.4404 35.7147 76.3503 35.8893 76.3316C36.6093 76.252 37.0102 76.9583 36.4321 77.5179C36.079 77.8974 35.5718 77.7359 35.3157 77.324Z" fill="#FFFFFD"/>
<path d="M35.3159 77.324C35.3518 77.1834 35.3817 77.0664 35.4286 76.928C35.6998 77.0938 35.4966 77.3207 36.2372 77.2542C36.3337 77.2454 36.4833 77.1103 36.5625 77.0439C36.5989 77.2158 36.508 77.2976 36.4322 77.5178C36.0792 77.8973 35.572 77.7359 35.3159 77.324Z" fill="#E3E2DE"/>
<path d="M72.1525 66.4452C72.4759 65.9915 72.6671 65.9619 73.2152 66.0415C73.4063 66.2744 73.4618 66.3298 73.5727 66.6055L73.6106 66.8818L73.503 67.0257C73.0625 67.5425 72.5237 67.358 72.1799 66.845C72.1118 66.6726 72.1305 66.6264 72.1525 66.4452Z" fill="#FFFFFD"/>
<path d="M72.1525 66.4451C72.4227 66.8103 73.3201 67.0541 73.5727 66.6054L73.6106 66.8817L73.503 67.0256C73.0625 67.5424 72.5237 67.3579 72.1799 66.8449C72.1118 66.6724 72.1305 66.6263 72.1525 66.4451Z" fill="#96948C"/>
<path d="M72.1797 66.845C72.758 66.9861 72.8069 67.2437 73.5027 67.0257C73.0623 67.5425 72.5235 67.3579 72.1797 66.845Z" fill="#D5D1CB"/>
<path d="M75.9185 73.9539C75.958 73.6941 76.1425 73.4799 76.3941 73.403C76.6451 73.3262 76.918 73.3998 77.0965 73.5931C77.2745 73.7858 77.3261 74.0643 77.2294 74.3081C77.1015 74.6311 76.7511 74.8068 76.4155 74.7162C76.0805 74.6256 75.8663 74.2972 75.9185 73.9539Z" fill="#FFFFFD"/>
<path d="M75.9185 73.9539C76.3205 74.1087 76.3023 74.7876 77.0361 73.9539L77.1207 73.955C77.1976 74.0994 77.1976 74.1488 77.2294 74.3081C77.1015 74.631 76.7511 74.8068 76.4155 74.7162C76.0805 74.6255 75.8663 74.2971 75.9185 73.9539Z" fill="#838280"/>
<path d="M73.8792 88.4641C73.9176 88.1554 74.1588 87.9121 74.4669 87.871C74.7744 87.8292 75.0715 88.0011 75.1896 88.2884C75.2984 88.5531 75.2303 88.8579 75.0194 89.0518C74.8085 89.2451 74.4993 89.2868 74.2444 89.1556C73.9901 89.0243 73.8441 88.748 73.8792 88.4641Z" fill="#96948C"/>
<path d="M73.8794 88.4641C73.9178 88.1554 74.1589 87.9121 74.467 87.871C74.7746 87.8292 75.0717 88.0011 75.1898 88.2884L75.1041 88.3438C74.6033 88.6739 74.6241 88.9782 74.0019 88.3757C73.9261 88.4372 73.9601 88.3982 73.9069 88.4993L73.8794 88.4641Z" fill="#FFFFFD"/>
<path d="M27.8786 86.8027C28.965 88.1269 29.016 88.0511 30.3244 88.9331C29.8961 88.8716 29.541 88.7618 29.1104 88.6261C29.0508 88.6541 28.9913 88.6821 28.9317 88.7102C28.8688 88.5998 28.8028 88.4949 28.7275 88.3922C28.5864 88.3817 28.6356 88.374 28.5075 88.4279C28.3437 88.3482 28.2672 88.2109 28.1549 88.0621L28.1005 88.0818L28.062 88.1829C27.8909 88.0983 27.867 88.0703 27.8859 87.8512C27.9121 87.5491 27.7575 87.3789 27.5903 87.1443C27.8278 87.046 27.7945 87.0202 27.8786 86.8027Z" fill="#242422"/>
<path d="M62.8229 81.918C63.1612 82.0756 63.6028 82.99 63.7698 83.3212C63.5655 83.4772 63.4089 83.5711 63.1915 83.7035C62.9135 83.559 62.3418 82.6006 62.1743 82.3002C62.3869 82.1552 62.5989 82.0432 62.8229 81.918Z" fill="#FFFFFD"/>
<path d="M76.8818 87.58C77.3464 87.0483 77.738 87.2131 78.0461 87.7733C77.8962 89.1947 76.4001 88.7311 76.8818 87.58Z" fill="#AEABA6"/>
<path d="M76.8818 87.58C77.3465 87.0483 77.7381 87.2131 78.0462 87.7733C78.0132 87.8359 77.949 88.0023 77.8847 87.9633C77.5859 87.7837 77.4223 87.9699 77.0252 88.1083L76.9472 88.0133C76.9648 87.8244 76.9516 87.8046 76.8972 87.6289L76.8818 87.58Z" fill="#FFFFFD"/>
<path d="M71.2186 88.4109C71.6058 87.6403 72.1407 87.7771 72.4087 88.5262C72.4406 88.8135 72.3027 89.0084 72.1462 89.2429C71.7695 89.3522 71.7288 89.3363 71.3834 89.1479C71.1307 88.9271 71.1241 88.7075 71.2186 88.4109Z" fill="#FFFFFD"/>
<path d="M71.3834 89.1479C71.1307 88.9271 71.1241 88.7075 71.2186 88.4109C71.4822 88.8744 71.898 88.7613 72.3115 88.5768L72.3511 88.6355L72.4087 88.5262C72.4406 88.8135 72.3027 89.0084 72.1462 89.2429C71.7695 89.3522 71.7288 89.3363 71.3834 89.1479Z" fill="#89847A"/>
<path d="M71.3838 89.1479C71.6145 89.1523 71.9198 89.193 72.1466 89.243C71.7699 89.3523 71.7292 89.3363 71.3838 89.1479Z" fill="#E3E2DE"/>
<path d="M55.1707 93.6273C55.0669 93.3406 55.1767 93.0198 55.4348 92.8573C55.693 92.6947 56.0296 92.7342 56.2433 92.9517C56.4289 93.1412 56.4805 93.4241 56.374 93.6668C56.2669 93.909 56.0236 94.0622 55.7589 94.054C55.4941 94.0452 55.2613 93.8761 55.1707 93.6273Z" fill="#838280"/>
<path d="M55.1707 93.6273C55.0669 93.3406 55.1767 93.0198 55.4348 92.8573C55.693 92.6947 56.0296 92.7342 56.2433 92.9517C56.3031 94.0084 55.5557 93.1407 55.1707 93.6273Z" fill="#FFFFFD"/>
<path d="M64.9556 91.052C65.3878 90.2611 66.0387 90.6868 66.1518 91.4232C66.0617 91.5962 65.9925 91.8066 65.803 91.8961C65.1995 92.1801 64.6739 91.6869 64.9556 91.052Z" fill="#FFFFFD"/>
<path d="M64.9556 91.052C65.1539 91.2788 64.8798 91.3942 65.2703 91.5639C65.7344 91.5424 65.8289 91.024 66.0332 91.1723C66.065 91.2915 66.076 91.3261 66.1518 91.4233C66.0617 91.5963 65.9925 91.8066 65.803 91.8961C65.1995 92.1801 64.6739 91.6869 64.9556 91.052Z" fill="#96948C"/>
<path d="M39.1033 88.9226C39.1952 86.9795 39.3186 87.3909 38.7588 85.5801L38.799 85.5554C39.5777 86.9889 39.7845 88.0104 39.5547 89.6344L39.5165 89.4784C39.4056 89.4455 39.4265 89.4263 39.2895 89.3884L39.1904 89.5306C39.1296 89.4499 39.1771 89.1132 39.1826 88.9622L39.1033 88.9226Z" fill="#42423F"/>
<path d="M67.9466 70.8394L68.0268 70.891C68.0372 71.0497 68.0086 71.0942 67.9587 71.2452L68.0037 71.3391C68.2053 71.4237 68.1981 71.4644 68.3991 71.3457L68.186 71.8653C68.0938 72.013 68.001 72.1899 67.8302 72.2344C67.4314 72.3376 66.6741 72.0125 66.2803 71.8757C66.5269 71.7708 66.7037 71.6357 66.9256 71.4863L67.4765 71.5336C67.628 71.3468 67.8104 71.0475 67.9466 70.8394Z" fill="#595956"/>
<path d="M68.0039 71.3391C68.2055 71.4237 68.1983 71.4643 68.3993 71.3457L68.1862 71.8653C68.0391 71.6428 68.0456 71.6121 68.0039 71.3391Z" fill="#6B6B67"/>
<path d="M56.4172 45.8318C56.4579 45.8705 56.6666 46.5234 56.8126 46.7765C56.995 46.8631 57.3207 46.9671 57.52 47.0378C56.5935 47.248 56.6309 47.2559 56.3376 48.1558C56.0185 47.2587 56.3524 47.267 55.3325 46.9022C56.158 46.7637 56.1821 46.5888 56.4172 45.8318Z" fill="#FFFFFD"/>
<path d="M37.5355 74.2654L38.0139 73.926C38.1296 74.1995 38.059 74.327 38.1022 74.4362C37.9583 74.5373 37.653 74.7658 37.5068 74.8273C37.3111 74.9827 36.9452 75.2079 36.7148 75.3216C36.5135 75.438 36.3225 75.555 36.1102 75.65L36.0551 75.4743C35.8338 75.3617 35.8357 75.4105 35.8456 75.1722C36.1187 75.0184 36.3952 74.8707 36.6748 74.729L37.5355 74.2654Z" fill="#838280"/>
<path d="M36.6748 74.729L36.6958 74.8048C36.7194 74.8877 36.7319 74.9262 36.7623 75.0042C36.7455 75.1382 36.7526 75.1316 36.672 75.2387L36.7148 75.3216C36.5135 75.438 36.3225 75.555 36.1102 75.65L36.0551 75.4743C35.8338 75.3617 35.8357 75.4106 35.8456 75.1722C36.1187 75.0184 36.3952 74.8707 36.6748 74.729Z" fill="#89847A"/>
<path d="M37.5352 74.2654L38.0136 73.926C38.1293 74.1995 38.0587 74.327 38.1019 74.4362C37.958 74.5373 37.6527 74.7658 37.5065 74.8273C37.5382 74.5714 37.6303 74.7647 37.5463 74.4725L37.5139 74.473L37.4785 74.4313L37.5352 74.2654Z" fill="#595956"/>
<path d="M79.1904 86.9319C79.4326 86.2519 80.0066 86.0031 80.3883 86.7605C80.436 87.877 79.2261 87.955 79.1904 86.9319Z" fill="#AEABA6"/>
<path d="M79.1904 86.9319C79.4326 86.2519 80.0066 86.0031 80.3883 86.7605L80.2971 86.8769C79.8533 86.8193 79.459 87.2213 79.1904 86.9319Z" fill="#FFFFFD"/>
<path d="M27.711 89.407L27.6508 89.3538C27.6241 89.1917 27.5948 89.1088 27.6548 88.949L27.4843 88.9149C27.4403 89.0704 27.4337 89.2071 27.3341 89.295L27.2959 89.184C27.3249 89.027 27.7258 88.4371 27.8069 88.464C28.0808 88.5541 27.8971 88.5568 28.2232 88.469C28.4983 88.6024 28.5134 88.6129 28.7029 88.8534C28.7143 89.1269 28.76 89.451 28.5603 89.6564C28.2087 90.0183 27.9053 89.6811 27.711 89.407Z" fill="#FFFFFD"/>
<path d="M28.7029 88.8535C28.7143 89.127 28.76 89.4511 28.5602 89.6565C28.2087 90.0184 27.9052 89.6812 27.7109 89.4071L27.7383 89.0117C28.0397 89.0606 28.0757 89.1254 28.31 89.328C28.4399 89.1688 28.5709 89.0106 28.7029 88.8535Z" fill="#AEABA6"/>
<path d="M27.711 89.407L27.6508 89.3538C27.6241 89.1917 27.5948 89.1088 27.6548 88.949L27.4843 88.9149C27.4403 89.0704 27.4337 89.2071 27.3341 89.295L27.2959 89.184C27.3249 89.027 27.7258 88.4371 27.8069 88.464C28.0808 88.5541 27.8971 88.5568 28.2232 88.469C27.9976 88.6585 27.8557 88.7425 27.7384 89.0116L27.711 89.407Z" fill="#10100D"/>
<path d="M31.5972 90.8396C31.6169 90.5573 31.6806 89.2375 31.7503 89.0991C32.2338 89.4138 33.5622 89.9641 33.681 90.3002L33.6332 90.4463C33.356 90.4634 32.1692 89.9015 31.9132 89.7422C31.8699 90.1613 31.8166 90.6018 31.7831 91.0192C31.6891 90.9489 31.6777 90.9274 31.5972 90.8396Z" fill="#96948C"/>
<path d="M81.2486 85.9026C81.1937 85.2814 81.4908 84.8739 82.1405 85.2199C82.7782 86.1267 81.5781 87.0235 81.2486 85.9026Z" fill="#D5D1CB"/>
<path d="M81.2486 85.9026C81.1937 85.2814 81.4908 84.8739 82.1405 85.2199C82.0982 85.4539 82.1059 85.5198 81.962 85.6961C81.6775 85.8367 81.5985 85.734 81.2486 85.9026Z" fill="#FFFFFD"/>
<path d="M36.3091 92.7413C36.6168 91.9515 37.1321 92.0575 37.4297 92.7924C37.3749 92.9193 37.2752 93.168 37.2122 93.2779C36.8963 93.5948 36.5814 93.5541 36.3105 93.2142C36.2544 93.0335 36.2673 92.9143 36.3091 92.7413Z" fill="#96948C"/>
<path d="M36.3091 92.7413C36.6168 91.9515 37.132 92.0575 37.4296 92.7924C36.9388 92.95 36.8185 92.8369 36.3091 92.7413Z" fill="#FFFFFD"/>
<path d="M36.3105 93.2144C36.6473 93.3011 36.8676 93.3225 37.2123 93.2781C36.8963 93.595 36.5814 93.5543 36.3105 93.2144Z" fill="#D5D1CB"/>
<path d="M71.325 85.1973C71.515 85.1896 71.7155 85.0902 71.8561 85.1243L71.6814 85.2067C71.7693 85.4318 71.8934 85.3385 71.9796 85.4988C71.4903 85.7526 70.7802 86.0936 70.3348 86.3682L70.2727 86.5248C70.2062 86.4374 70.1738 86.399 70.0909 86.3243C69.9739 86.349 70.019 86.3193 69.9498 86.4056C69.9536 86.3331 69.9404 86.187 69.936 86.1079C70.1634 85.8745 71.0147 85.361 71.325 85.1973Z" fill="#33322E"/>
<path d="M62.175 91.8738C62.5127 91.5448 62.6204 91.5321 63.0246 91.7606C63.7907 93.0529 61.495 93.1001 62.175 91.8738Z" fill="#838280"/>
<path d="M62.1748 91.8738C62.5126 91.5448 62.6202 91.5321 63.0244 91.7606C62.8888 92.0715 62.8245 92.1539 62.5142 92.2961C62.3011 92.2879 62.3912 92.3236 62.2325 92.1945C62.183 92.0391 62.1836 92.0369 62.1748 91.8738Z" fill="#FFFFFD"/>
<path d="M46.6725 37.3679C46.8043 37.7057 46.7252 38.0844 47.1336 38.2701C47.2472 38.3217 47.2612 38.343 47.3255 38.4451C47.0438 38.6423 46.7368 38.6018 46.6397 38.9769C46.6085 39.0972 46.5299 39.2284 46.4604 39.3318C46.3414 38.8059 46.3005 38.6817 45.8461 38.3517L45.793 38.3138L45.795 38.2707L46.1518 38.1664C46.4179 37.8801 46.5014 37.7047 46.6725 37.3679Z" fill="#FFFFFD"/>
<path d="M34.8886 72.8425C34.2611 71.7748 36.2803 71.4299 35.8466 72.5432C35.5896 72.9413 35.3474 73.1402 34.8886 72.8425Z" fill="#FFFFFD"/>
<path d="M34.8887 72.8425L34.9199 72.804C34.886 72.5113 35.4817 72.6398 35.7155 72.3229L35.7661 72.2532L35.8199 72.2927L35.8467 72.5432C35.5897 72.9413 35.3475 73.1401 34.8887 72.8425Z" fill="#AEABA6"/>
<path d="M35.0141 90.7877L35.0821 90.8839C35.0793 91.0574 35.0931 91.3035 35.0285 91.4528C34.8615 91.4869 34.7476 91.4638 34.5796 91.4682L34.4944 91.471C34.4668 91.086 34.6032 90.043 34.657 89.6509C34.8313 89.7228 34.9505 89.7305 35.1284 89.825C35.2292 90.0469 35.1568 90.2413 35.1634 90.556L35.0141 90.7877Z" fill="#FFFFFD"/>
<path d="M35.0142 90.7879C34.8216 90.7649 34.6687 90.7792 34.6177 90.5683L34.7188 90.4842C34.9334 90.448 34.9651 90.4754 35.1635 90.5562L35.0142 90.7879Z" fill="#10100D"/>
<path d="M35.2611 84.8525C35.5257 84.9223 35.6625 84.9097 35.8269 85.086C35.8488 85.2919 35.8381 85.3408 35.8122 85.5495C35.7976 85.7252 35.7382 85.7626 35.7221 85.9004C35.6964 86.2843 35.7406 86.3997 35.3876 86.5765C34.9813 86.5271 35.0717 86.0883 35.1113 85.8065C35.102 85.6489 35.106 85.6538 35.1476 85.4995L35.2611 84.8525Z" fill="#FFFFFD"/>
<path d="M35.1113 85.8064L35.7221 85.9003C35.6964 86.2842 35.7406 86.3995 35.3876 86.5764C34.9813 86.527 35.0717 86.0881 35.1113 85.8064Z" fill="#FFFFFD"/>
<path d="M35.1116 85.8065C35.1023 85.6489 35.1062 85.6538 35.1479 85.4995C35.4409 85.5759 35.5069 85.5665 35.8125 85.5495C35.7979 85.7252 35.7384 85.7626 35.7224 85.9004L35.1116 85.8065Z" fill="#10100D"/>
<path d="M82.5966 84.0777C82.8355 83.7218 82.8113 83.7432 83.2101 83.7685C83.3204 83.9102 83.3918 84.0217 83.527 84.1387L83.5292 84.2029C83.7406 85.0026 82.8465 85.4304 82.6136 84.5028C82.5565 84.3298 82.5834 84.2688 82.5966 84.0777Z" fill="#D5D1CB"/>
<path d="M82.5967 84.0777C82.8356 83.7218 82.8114 83.7432 83.2101 83.7685C83.3205 83.9102 83.3919 84.0217 83.527 84.1387L83.5292 84.2029L83.4837 84.3864L83.3755 84.3496L83.3101 84.3891C83.1536 84.4665 83.1316 84.483 82.957 84.5264C82.7576 84.4358 82.8328 84.3737 82.6538 84.1486L82.5967 84.0777Z" fill="#FFFFFD"/>
<path d="M82.6136 84.5027C82.5565 84.3297 82.5834 84.2688 82.5966 84.0776L82.6537 84.1485C82.8327 84.3737 82.7575 84.4357 82.9569 84.5263C83.1315 84.483 83.1535 84.4665 83.31 84.389L83.3682 84.511C83.2853 84.7449 83.3523 84.6527 83.17 84.8059C82.8805 84.857 82.7163 84.7004 82.6619 84.428L82.6136 84.5027Z" fill="#6B6B67"/>
<path d="M65.19 84.2771C65.1054 84.1881 64.565 83.2929 64.4623 83.1308C64.1893 82.6997 63.2557 81.6007 63.2178 81.1768C63.6357 81.3163 65.1428 83.6196 65.3756 84.1222L65.19 84.2771Z" fill="#33322E"/>
<path d="M74.5192 69.7437C74.3797 69.6251 74.1655 69.2807 74.1353 69.099C74.2973 69.0797 74.7377 69.2802 74.9843 69.3192C75.148 69.3219 75.3693 69.2753 75.5379 69.2478C75.8537 69.2017 76.0987 69.1528 76.42 69.1808C76.6951 69.4027 76.7204 69.3362 76.9379 69.4697C76.5078 69.4653 74.5208 69.7443 74.5192 69.7437Z" fill="#6B6B67"/>
<path d="M74.5192 69.7437C74.3797 69.6251 74.1655 69.2807 74.1353 69.099C74.2973 69.0797 74.7377 69.2802 74.9843 69.3192C74.8245 69.3906 74.5812 69.507 74.4966 69.6592L74.5192 69.7437Z" fill="#10100D"/>
<path d="M26.7852 87.7386C26.9491 87.4403 27.0615 87.1965 27.4348 87.3634C27.5889 87.5485 27.6177 87.6507 27.6483 87.8995C27.6059 88.0681 27.5795 88.1626 27.5625 88.3394C27.3409 88.5486 27.2163 88.6003 26.9465 88.4679C26.7435 88.1972 26.7411 88.0763 26.7852 87.7386Z" fill="#89847A"/>
<path d="M26.7852 87.7386C26.949 87.4403 27.0614 87.1965 27.4348 87.3634C27.5888 87.5485 27.6177 87.6507 27.6482 87.8995C27.5095 87.9127 27.3362 87.9495 27.2178 87.9094L27.1243 87.8187C27.0031 87.8012 26.9016 87.7765 26.7852 87.7386Z" fill="#FFFFFD"/>
<path d="M27.5625 88.3394C27.3409 88.5486 27.2163 88.6002 26.9465 88.4679C26.7435 88.1971 26.7411 88.0763 26.7852 87.7385C26.9017 87.7764 27.0032 87.8011 27.1244 87.8187L27.2178 87.9093C26.9675 87.9989 26.996 87.9456 26.8648 88.1235C26.9376 88.4075 27.3335 88.3608 27.5625 88.3394Z" fill="#D5D1CB"/>
<path d="M32.1304 91.2778C32.1937 91.0411 32.1895 91.0197 32.3616 90.8588C32.7348 90.7341 32.8594 90.9703 33.0047 91.2614L33.033 91.3168C33.0067 91.6908 32.9975 91.9336 32.5691 92.0012C32.1457 91.8759 32.1322 91.6573 32.1304 91.2778Z" fill="#C1BDB6"/>
<path d="M32.1304 91.2778C32.1937 91.0411 32.1895 91.0197 32.3616 90.8588C32.7348 90.7341 32.8594 90.9703 33.0047 91.2614L33.033 91.3168C32.7754 91.4338 32.367 91.4371 32.1304 91.2778Z" fill="#FFFFFD"/>
<path d="M63.2771 39.6399C63.6341 39.6568 64.2415 39.6848 64.4459 40.0096C64.4354 40.2272 64.4667 40.121 64.2915 40.3186C63.8879 40.4225 63.3035 40.5475 63.1206 40.0598C63.1475 39.8253 63.1459 39.8379 63.2771 39.6399Z" fill="#FFFFFD"/>
<path d="M57.6768 93.0243C57.9129 92.4399 58.3331 92.3444 58.6922 92.9276C58.6033 93.824 57.8437 93.7888 57.6768 93.0243Z" fill="#96948C"/>
<path d="M57.6768 93.0243C57.9129 92.4399 58.3331 92.3444 58.6922 92.9276C58.4105 93.1072 58.0672 93.1083 57.7586 92.9875L57.6768 93.0243Z" fill="#FFFFFD"/>
<path d="M54.4075 86.086C54.6635 86.0371 54.9133 86.1963 54.9776 86.449C55.0419 86.7016 54.8985 86.9608 54.6503 87.0405C54.4756 87.0971 54.2839 87.0515 54.1527 86.9224C54.022 86.7939 53.9731 86.6028 54.0269 86.427C54.0802 86.2513 54.2268 86.12 54.4075 86.086Z" fill="#FFFFFD"/>
<path d="M69.9604 61.1575C70.5668 60.8428 71.0133 60.5412 71.3857 61.3255C71.216 61.6325 71.1907 61.7764 70.8947 61.9637L70.7354 61.3513C70.5657 61.4474 70.3707 61.543 70.1961 61.6342C70.3427 61.4502 70.4042 61.3283 70.2312 61.1234L69.9604 61.1575Z" fill="#AEABA6"/>
<path d="M60.9121 90.7044C61.4998 90.5347 62.0935 90.3837 62.6916 90.2524C62.6679 90.303 62.6015 90.437 62.5878 90.4826C62.3587 90.5331 62.3977 90.4859 62.2983 90.6319C62.3175 90.7044 62.3241 90.7517 62.3565 90.8181C61.915 90.9274 61.5909 91.1246 61.1565 91.0966C60.9659 90.9774 61.0143 90.9686 60.9121 90.7044Z" fill="#6B6B67"/>
<path d="M40.6841 76.6318C40.7489 76.7911 40.1735 82.2354 40.1607 83.1081C39.9154 82.5139 40.515 77.5979 40.6841 76.6318Z" fill="#33322E"/>
<path d="M47.9488 45.886C48.0617 46.009 48.1101 46.2657 48.1633 46.4434C48.3132 46.5195 48.4337 46.5832 48.5783 46.6688L48.5668 46.7302C48.2093 46.9127 48.1594 46.9067 47.9207 47.2406L47.8784 47.3008L47.8108 47.393C47.7026 46.9085 47.6814 46.8635 47.2793 46.6098C47.7398 46.3764 47.7697 46.3636 47.9488 45.886Z" fill="#FFFFFD"/>
<path d="M54.4734 88.2224C54.7145 88.1324 54.9836 88.2515 55.0781 88.4904C55.1731 88.7299 55.0588 89.0012 54.8216 89.1006C54.664 89.1665 54.4833 89.1423 54.3487 89.0369C54.2142 88.9315 54.1466 88.7617 54.1724 88.5931C54.1982 88.424 54.3136 88.2823 54.4734 88.2224Z" fill="#FFFFFD"/>
<path d="M29.3676 89.7717C29.5741 89.8234 29.634 89.8909 29.7761 90.0364C29.8601 90.4725 29.4501 90.6258 29.1098 90.762L29.246 90.8317L29.2514 90.8806C29.0516 90.8377 29.0402 90.8465 28.8654 90.7285C28.6509 90.322 29.0338 89.9563 29.3676 89.7717Z" fill="#FFFFFD"/>
<path d="M54.4276 84.0522C55.1196 84.1451 55.0048 84.7415 54.5737 85.1122C53.8674 84.9469 53.8805 84.4592 54.4276 84.0522Z" fill="#FFFFFD"/>
<path d="M35.7438 81.9346C35.8284 81.6594 35.7865 81.6083 35.9681 81.5034C36.1652 81.5496 36.3062 81.8187 36.3314 82.0054L36.2712 82.252C36.2568 82.576 36.261 82.8331 35.8832 82.9067C35.5747 82.6546 35.6578 82.5063 35.713 82.1482L35.7438 81.9346Z" fill="#FFFFFD"/>
<path d="M35.7437 81.9346C35.8283 81.6594 35.7864 81.6083 35.968 81.5034C36.1651 81.5496 36.3061 81.8187 36.3313 82.0054L36.2711 82.252L35.7129 82.1482L35.7437 81.9346Z" fill="#D5D1CB"/>
<path d="M35.7129 82.1482L35.7437 81.9346C35.9925 81.9911 36.075 81.9966 36.3313 82.0054L36.2711 82.252L35.7129 82.1482Z" fill="#10100D"/>
<path d="M24.5867 32.725C24.851 32.7108 24.946 32.697 25.168 32.8487C25.3758 33.2183 25.1448 33.364 24.8608 33.5783C24.6346 33.5991 24.5914 33.5681 24.4106 33.4677C24.1773 33.1283 24.2942 32.9631 24.5867 32.725Z" fill="#FFFFFD"/>
<path d="M75.2764 70.6467C75.5933 70.5385 75.9014 70.4501 76.2375 70.4594C76.5764 70.5473 76.461 70.4753 76.6867 70.7165C76.7263 70.9098 76.7417 70.8235 76.6538 70.9867L76.5242 71.0619C75.9909 71.0526 75.8959 71.091 75.3774 71.1712L75.5444 71.0679C75.618 70.9389 75.6136 70.9488 75.6021 70.8005C75.4862 70.6753 75.445 70.6851 75.2764 70.6467Z" fill="#96948C"/>
<path d="M32.0269 92.6904C32.1639 92.6173 32.254 92.5602 32.4101 92.5586L32.4214 92.5059C32.8247 92.6519 33.2783 92.7371 33.4659 93.1029C33.47 93.2358 33.4777 93.3797 33.4766 93.512C32.9681 93.2852 32.4826 93.01 32.0269 92.6904Z" fill="#33322E"/>
<path d="M54.3877 90.2204C54.3877 90.0474 54.4882 89.8898 54.6453 89.8167C54.8023 89.7442 54.9869 89.769 55.1192 89.8805C55.2516 89.9925 55.3065 90.1704 55.2609 90.3374C55.2022 90.5521 54.994 90.69 54.7732 90.6609C54.5525 90.6312 54.3877 90.4428 54.3877 90.2204Z" fill="#FFFFFD"/>
<path d="M54.3877 90.2205C54.681 90.2891 54.7216 90.2704 55.0292 90.2287L55.2609 90.3374C55.2022 90.5522 54.994 90.69 54.7732 90.6609C54.5525 90.6313 54.3877 90.4429 54.3877 90.2205Z" fill="#96948C"/>
<path d="M67.4717 90.4654C67.6831 89.7476 68.1 89.6882 68.3636 90.4291C68.2554 90.6433 68.2543 90.6713 68.0615 90.7966C67.7424 90.8432 67.6392 90.7312 67.4717 90.4654Z" fill="#FFFFFD"/>
<path d="M67.4717 90.4655C67.8622 90.3392 67.9682 90.3304 68.3636 90.4292C68.2554 90.6434 68.2543 90.6714 68.0615 90.7966C67.7424 90.8433 67.6392 90.7313 67.4717 90.4655Z" fill="#96948C"/>
<path d="M52.3845 82.7327L52.4779 82.7678C52.6399 82.9666 52.6349 82.9046 52.6756 83.1276L52.6003 83.2352C51.8117 83.5307 52.3235 83.5362 52.0341 83.8789L51.8836 83.8662C51.692 83.7152 51.7579 83.8069 51.6694 83.5889C51.7007 83.3549 52.1961 82.9101 52.3845 82.7327Z" fill="#FFFFFD"/>
<path d="M31.5655 92.0718C31.5544 91.7357 31.531 91.1513 31.5968 90.8394C31.6774 90.9272 31.6887 90.9486 31.7827 91.0189C31.7942 91.3067 31.7898 91.5632 31.7841 91.8494C32.0204 92.2107 32.072 92.264 32.4211 92.5057L32.4098 92.5584C32.2537 92.56 32.1636 92.6172 32.0266 92.6902C31.7767 92.448 31.7346 92.3618 31.5655 92.0718Z" fill="#42423F"/>
<path d="M59.6356 42.4018C59.7658 42.3441 59.9168 42.3645 60.0266 42.4544C60.1365 42.5445 60.1859 42.6887 60.1546 42.8272C60.1239 42.9656 60.0168 43.0748 59.8795 43.1091C59.6905 43.1562 59.4967 43.051 59.4335 42.867C59.3703 42.6829 59.4582 42.481 59.6356 42.4018Z" fill="#FFFFFD"/>
<path d="M26.0932 35.9925C26.6893 35.9654 26.5867 36.4498 26.2768 36.7874C26.1044 36.7807 26.1052 36.7713 25.9415 36.7067C25.6817 36.4051 25.8588 36.2415 26.0932 35.9925Z" fill="#FFFFFD"/>
<path d="M34.7396 88.646C34.9332 88.6817 35.1362 88.6932 35.2734 88.8234C35.358 89.0008 35.2881 89.265 35.2586 89.4726C35.0079 89.4396 34.8905 89.4544 34.7251 89.3078C34.648 89.1123 34.7104 88.8629 34.7396 88.646Z" fill="#FFFFFD"/>
<path d="M34.4353 91.6462C34.6416 91.6973 34.8099 91.7396 35.0117 91.8055C34.9923 92.0433 35.0136 92.3229 34.9015 92.4909C34.7563 92.5074 34.7645 92.5052 34.6217 92.4684C34.5592 92.4508 34.5123 92.4245 34.4527 92.3965C34.3717 92.168 34.4176 91.8967 34.4353 91.6462Z" fill="#FFFFFD"/>
<path d="M34.4353 91.6462C34.6605 91.8665 34.6882 91.9318 34.7207 92.308L34.6217 92.4684C34.5592 92.4508 34.5123 92.4245 34.4527 92.3965C34.3717 92.168 34.4176 91.8967 34.4353 91.6462Z" fill="#E3E2DE"/>
<path d="M82.9053 83.0055C83.0459 82.9226 83.0937 82.9451 83.2716 82.9358C83.354 83.3373 83.4391 83.7382 83.527 84.1386C83.3919 84.0216 83.3205 83.9101 83.2101 83.7684C83.1146 83.6399 83.002 83.5948 82.8575 83.5053C82.7729 83.3461 82.8493 83.2153 82.9053 83.0055Z" fill="#E3E2DE"/>
<path d="M51.0919 89.5877C51.4165 89.5553 51.6466 89.5042 51.7603 89.887C51.7361 90.0452 51.7476 90.0479 51.657 90.1754C51.3165 90.2039 51.0677 90.2621 50.9551 89.881C51.0009 89.7223 50.9914 89.714 51.0919 89.5877Z" fill="#FFFFFD"/>
<path d="M34.791 88.2647C34.8247 88.0065 34.8012 87.8286 35.0336 87.6968C35.2172 87.7144 35.2874 87.7495 35.457 87.8127C35.4395 88.0389 35.4261 88.2262 35.3894 88.4514C35.2173 88.4327 34.935 88.43 34.8152 88.3267L34.791 88.2647Z" fill="#FFFFFD"/>
<path d="M34.791 88.2647C34.8247 88.0065 34.8012 87.8286 35.0336 87.6968C35.2172 87.7144 35.2874 87.7495 35.457 87.8127C35.1992 87.9659 35.1649 87.9895 34.9746 88.2196L34.791 88.2647Z" fill="#FFFFFD"/>
<path d="M50.8071 86.7655C51.0486 86.7814 51.2476 86.7194 51.4393 86.8298C51.5348 86.9863 51.492 87.1813 51.4777 87.3735C51.2509 87.3597 50.9921 87.3933 50.8233 87.2653C50.7287 87.0846 50.7736 86.9704 50.8071 86.7655Z" fill="#FFFFFD"/>
<path d="M50.8421 87.7012C51.0421 87.6918 51.2492 87.6611 51.4266 87.7407C51.542 87.8912 51.514 88.1098 51.5162 88.3108C51.314 88.3163 51.0977 88.3438 50.9205 88.2625C50.8028 88.0538 50.8436 87.9632 50.8421 87.7012Z" fill="#FFFFFD"/>
<path d="M50.79 85.8279C51.1089 85.8548 51.3988 85.807 51.4972 86.1492C51.462 86.3062 51.4697 86.3139 51.3862 86.4485C51.1138 86.4479 50.9935 86.4803 50.7839 86.3365C50.7144 86.1503 50.7573 86.0261 50.79 85.8279Z" fill="#FFFFFD"/>
<path d="M51.5989 90.5204L51.7142 90.5188C51.8279 90.7198 51.8405 90.8192 51.7592 91.0296C51.5621 91.1614 51.561 91.1125 51.2693 91.1098C51.0991 91.0823 51.1776 91.1163 51.0401 90.9774C51.0157 90.5528 51.288 90.5496 51.5989 90.5204Z" fill="#FFFFFD"/>
<path d="M50.895 88.6471C51.1708 88.6224 51.3366 88.5697 51.5442 88.7174C51.6101 88.9195 51.581 89.0305 51.5596 89.2414C51.335 89.2221 51.1884 89.2694 50.9775 89.1804C50.8689 88.9964 50.9025 88.8827 50.895 88.6471Z" fill="#FFFFFD"/>
<path d="M35.0637 86.7324C35.2472 86.8175 35.3555 86.7928 35.5567 86.8889C35.6127 87.0801 35.5322 87.2646 35.4817 87.4843C35.2892 87.4469 35.1082 87.4277 34.9136 87.4041C34.9482 87.0993 34.9665 87.0235 35.0637 86.7324Z" fill="#FFFFFD"/>
<path d="M34.3149 93.3082C34.3618 93.0319 34.3698 92.8737 34.3805 92.5925C34.5948 92.6848 34.8341 92.7512 34.9525 92.9402C34.9841 93.1291 34.9306 93.2422 34.8577 93.4196C34.7059 93.3768 34.4747 93.3389 34.3149 93.3082Z" fill="#FFFFFD"/>
<path d="M65.3756 84.1221C65.5255 84.3434 66.0198 85.2084 66.1198 85.3161L65.9473 85.528C65.6749 85.1656 65.4168 84.6806 65.1899 84.2769L65.3756 84.1221Z" fill="#10100D"/>
<path d="M35.4174 83.9314C35.6451 84.0033 35.7159 83.9676 35.9416 84.0956C36.0197 84.2412 35.9504 84.4817 35.9206 84.6607C35.6834 84.6679 35.5557 84.6618 35.3918 84.5212C35.3173 84.3323 35.3797 84.1374 35.4174 83.9314Z" fill="#FFFFFD"/>
<path d="M51.3741 83.9343L51.758 84.2051C51.6976 84.4023 51.6438 84.628 51.5345 84.7988C51.3615 84.7483 51.1704 84.6499 51.0039 84.572C51.1253 84.3166 51.2231 84.1699 51.3741 83.9343Z" fill="#FFFFFD"/>
<path d="M35.5726 83.0039C35.7038 83.0808 35.884 83.1061 36.0493 83.1906C36.1395 83.3906 36.0927 83.4554 36.0736 83.7096C35.82 83.7041 35.7123 83.7415 35.512 83.6262C35.436 83.4548 35.5278 83.2005 35.5726 83.0039Z" fill="#FFFFFD"/>
<path d="M50.9223 84.9246C51.1711 84.9866 51.3628 84.9976 51.5133 85.1832C51.51 85.3859 51.5023 85.3843 51.4348 85.5655C51.1739 85.5578 51.0437 85.5869 50.8425 85.4502C50.7875 85.2629 50.8619 85.1184 50.9223 84.9246Z" fill="#FFFFFD"/>
<path d="M34.3154 93.3081C34.4751 93.3389 34.7064 93.3768 34.8581 93.4196C34.8535 93.4575 34.8394 93.5503 34.8415 93.5844C34.9163 93.7425 34.9312 93.8337 34.8948 93.9864L34.7805 94.0397C34.3629 93.9963 34.3239 93.7552 34.3081 93.4207L34.3154 93.3081Z" fill="#D5D1CB"/>
<path d="M34.3154 93.3081C34.4751 93.3389 34.7064 93.3768 34.8581 93.4196C34.8535 93.4575 34.8394 93.5503 34.8415 93.5844C34.6896 93.564 34.4554 93.4756 34.3081 93.4207L34.3154 93.3081Z" fill="#33322E"/>
<path d="M32.2536 75.8389C32.4102 75.9795 32.4478 76.0047 32.6265 76.1195L32.52 76.3167L32.2883 76.8423C32.1342 76.5743 32.1488 76.6176 31.8672 76.5523L32.2469 75.9053L32.2536 75.8389Z" fill="#C1BDB6"/>
<path d="M32.2538 75.8389C32.4104 75.9795 32.4479 76.0047 32.6266 76.1195L32.5202 76.3167C32.4451 76.2403 32.4841 76.2727 32.3783 76.2024L32.2958 76.1492L32.2471 75.9053L32.2538 75.8389Z" fill="#AEABA6"/>
<path d="M71.0363 74.4824C70.7265 74.852 70.4761 75.2337 70.1493 75.6072L70.124 75.5912C70.3333 75.0958 70.6035 74.6773 70.9088 74.2385L71.0363 74.4824Z" fill="#42423F"/>
<path d="M66.388 85.8328C66.5764 86.1782 66.7917 86.5764 66.879 86.9597L66.8373 87.0191C66.6714 86.8834 66.265 86.1672 66.187 85.9723L66.388 85.8328Z" fill="#10100D"/>
<path d="M32.2539 75.8388C32.406 75.6389 32.4279 75.5834 32.6396 75.4653L32.8472 75.5329C32.8561 75.7619 32.7408 75.9113 32.6268 76.1194C32.4481 76.0047 32.4105 75.9794 32.2539 75.8388Z" fill="#AEABA6"/>
<path d="M69.9316 86.7582C69.7602 86.7785 69.7668 86.7752 69.596 86.7411C69.3791 86.4907 69.7399 86.2589 69.936 86.1079C69.9404 86.187 69.9535 86.3331 69.9497 86.4056C69.947 86.4989 69.947 86.673 69.9316 86.7582Z" fill="#42423F"/>
<path d="M55.2539 40.28C55.4242 40.3544 55.4275 40.3537 55.573 40.4673C55.5928 40.6449 55.5599 40.622 55.4385 40.8178C55.2171 40.8006 55.2133 40.8001 55.0996 40.6816C55.1084 40.4413 55.1089 40.5119 55.2539 40.28Z" fill="#FFFFFD"/>
<path d="M73.3525 67.503C73.4443 67.4937 73.4174 67.5003 73.5157 67.5404C73.5349 67.6969 73.5486 67.6222 73.4437 67.7622C73.2163 67.8573 73.3344 67.8408 73.0746 67.788L72.7742 67.6826L72.7671 67.6249C72.9665 67.5739 73.1499 67.5409 73.3525 67.503Z" fill="#10100D"/>
<path d="M82.5716 85.6466L82.6606 85.6147L82.6369 85.6537C82.8006 85.696 82.8105 85.6828 82.9291 85.7965L82.8539 85.9981C82.7649 86.1266 82.7693 86.1546 82.6292 86.2079C82.5452 86.1112 82.5754 85.8169 82.5716 85.6466Z" fill="#33322E"/>
<path d="M73.2153 66.0416C73.4976 66.0372 73.401 66.1767 73.6877 66.252C73.6563 66.4398 73.6542 66.3453 73.7228 66.5441C73.664 66.6875 73.6421 66.7276 73.6108 66.8819L73.5729 66.6056C73.4619 66.3299 73.4065 66.2745 73.2153 66.0416Z" fill="#10100D"/>
<path d="M66.1197 85.3162C66.2114 85.5183 66.2751 85.6413 66.3877 85.833L66.1867 85.9725L65.9473 85.5282L66.1197 85.3162Z" fill="#33322E"/>
<path d="M62.5561 35.2454C62.8467 35.4576 63.1394 35.6667 63.4343 35.8726L62.5342 35.5494L62.5561 35.2454Z" fill="#33322E"/>
<path d="M29.794 91.927C29.836 91.9797 29.8126 91.9407 29.8158 92.0627C29.6435 92.2505 29.4828 92.4065 29.3002 92.5822C29.255 92.5493 29.2837 92.5751 29.2437 92.4806C29.3766 92.2604 29.5957 92.0984 29.794 91.927Z" fill="#10100D"/>
</svg>
