<svg width="385" height="100" viewBox="0 0 385 100" fill="none" xmlns="http://www.w3.org/2000/svg">
<path d="M66.5859 1.03223C69.3929 0.817868 71.7892 1.68733 73.5703 3.31738C75.0535 4.67485 76.0681 6.52263 76.5693 8.61914C77.1159 8.4192 77.7168 8.23327 78.2617 8.16699C83.6961 7.50607 87.5792 10.5169 88.9277 14.4912C90.1583 18.1181 89.2592 22.4924 85.6885 25.4785C88.3361 27.5843 92.2059 29.192 95.4492 30.1875L95.7998 30.2842C96.1756 30.378 96.6262 30.4649 97.1445 30.5625C97.8124 30.6882 98.5738 30.8286 99.3066 31.0146C100.037 31.2001 100.793 31.4443 101.451 31.8018C102.11 32.1596 102.739 32.6691 103.108 33.416C104.067 35.3569 103.517 37.3543 102.521 38.915C101.527 40.4742 99.9919 41.7744 98.5713 42.498H98.5703C95.4391 44.0923 91.8237 44.2649 88.5176 43.4795C88.2997 44.7469 87.8559 45.8926 87.2256 47.0176C87.229 47.4255 87.2519 47.8664 87.2773 48.3154C88.843 49.5451 90.0941 51.1305 90.9238 52.9414L91.0967 53.3359L91.0996 53.3428C93.5124 59.2435 90.829 66.2245 85.3047 69.21L85.3037 69.209C84.6086 69.5849 83.8483 69.8879 83.1641 70.1572C82.8428 70.6737 82.4599 71.374 82.041 72.1484C81.5642 73.0301 81.0445 73.9939 80.5635 74.749C76.9513 80.4192 73.2481 83.8038 67.9688 87.4385C68.4473 89.4505 68.3017 91.5471 67.3916 93.1895C66.3665 95.039 64.4521 96.1629 61.8262 95.9746C59.0219 97.2934 55.5368 96.6022 53.7168 93.9883C51.2343 94.5005 48.7109 94.7947 46.1758 94.8613L46.1631 94.8623C43.616 94.8953 41.9731 94.8692 39.5869 94.5293C38.9243 95.5616 38.2056 96.4597 37.2598 97.0312C36.1645 97.6931 34.9052 97.8431 33.373 97.5615C30.8157 98.6872 28.3863 97.7896 26.5498 96.0889L26.1758 95.7236C24.4266 93.9206 24.1173 91.8916 24.1182 89.8086C20.6172 87.9497 17.4677 85.8705 14.5215 83.0566C6.21127 75.2728 1.34871 64.4965 1.01074 53.1162V53.1074C0.770501 41.6625 4.69628 30.9531 12.6846 22.6514C20.526 14.4295 31.2841 9.63509 42.624 9.28516C45.4232 3.01355 53.2236 1.3386 58.7637 4.93262C60.8916 2.53519 63.3169 1.27632 66.5859 1.0332V1.03223Z" fill="black" stroke="black" stroke-width="2"/>
<path d="M65.614 4.26586C65.8903 4.24656 66.167 4.23276 66.444 4.22457C70.8426 4.11029 73.729 6.70598 74.1527 11.114C74.2121 11.7326 74.2072 12.3752 74.2187 12.9975C74.5586 12.7616 74.9125 12.5462 75.2782 12.3524C78.7144 10.5021 83.6103 10.3345 85.6053 14.345C87.954 19.068 84.0848 26.125 78.2874 24.1907C78.1375 25.427 78.0178 26.582 77.4766 27.7739C76.4882 29.9512 73.2097 31.0991 71.0596 30.0879C70.1234 29.6476 69.7076 28.8109 69.3977 27.8469C68.2098 29.9971 66.078 32.0083 63.3673 31.0715C61.2387 30.3357 60.2484 27.603 59.3772 25.668C59.3116 28.7007 59.6958 30.4701 56.2662 31.466C51.6123 32.8174 48.2512 31.5213 45.6524 27.5619C44.9677 30.5532 43.4479 31.8348 40.6203 32.8408C41.103 34.5128 41.2996 37.3824 41.272 39.1446C41.2197 42.4887 40.6191 43.4147 38.4352 45.5718C39.6599 45.9164 40.7174 46.2528 41.6591 47.148C43.3657 48.7701 43.5683 51.2253 41.9132 52.9449C46.6549 53.9821 49.551 59.2908 45.2454 62.7332C48.8459 63.172 50.8753 65.4156 50.9639 69.0737C50.9766 69.5966 50.9732 70.1205 50.9718 70.6445C54.2884 67.8036 56.963 69.4543 59.7221 72.1118L61.5588 71.755C61.0518 72.2617 58.6647 74.4762 58.4568 74.874L58.5302 75.0379C59.8111 75.7311 61.8171 73.9457 62.4219 72.8881L62.4391 73.0638C62.6477 75.2955 62.464 75.7979 61.0762 77.4755C64.2787 78.0016 66.0498 80.7465 64.7392 83.7987C63.9513 83.0623 63.4001 82.8079 62.4467 82.368C62.716 82.7734 63.1135 83.0483 63.384 83.4214C65.6478 86.5425 67.6471 91.5731 62.9971 93.5568C61.3706 91.2971 61.803 89.7316 60.8338 87.5215C59.6803 89.7812 60.3521 91.972 60.4985 94.305L60.4193 94.304C56.0702 94.1994 53.7038 91.5084 54.7526 87.0816C55.2344 85.0472 56.4258 83.7782 57.9824 82.4845C54.0393 83.9389 52.5545 87.3156 53.2236 91.3079C52.6906 91.379 52.1622 91.4685 51.6309 91.5504C47.6789 92.1596 43.785 91.9989 39.8145 91.7251C39.639 89.2508 39.3387 87.6886 37.72 85.7016C36.6207 84.3529 35.9527 83.8095 34.3362 83.1896C35.4589 84.3119 36.2888 85.0224 37.0321 86.4563C37.7979 88.0217 38.0208 89.0556 38.0958 90.8777C38.1572 92.3698 36.7057 95.1675 35.0554 95.0942C33.0096 95.0037 34.1221 90.1909 33.3976 89.281C33.3311 89.3101 33.2259 89.3521 33.1828 89.4136C31.8966 91.2378 31.9649 93.8544 31.9476 95.8834C30.5577 95.4543 28.5678 94.7352 27.7691 93.5051C25.1624 89.4934 27.2387 85.1442 30.5893 82.6473C27.1269 83.803 27.0362 84.3108 25.2733 87.3511C23.04 85.7533 20.7488 84.6666 18.6613 82.8543L18.6876 82.7874C19.3458 81.1239 19.7605 80.7465 21.3846 80.0436C19.2008 77.1316 19.9403 74.3985 23.1288 72.6056C23.7637 72.2477 24.5509 72.1248 25.2637 71.9706C23.5401 70.7221 22.8937 69.0338 24.4631 67.2775C25.6278 65.973 27.2112 65.8878 28.8496 65.808C28.9866 62.7483 31.6306 61.3565 34.2371 63.0556C35.0195 63.5655 35.5981 64.0151 36.4387 64.4464C36.2077 64.0431 35.9792 63.6388 35.7532 63.2324C34.3677 60.7355 33.831 58.6622 34.627 55.8763C33.4202 55.9216 31.2244 56.1427 30.3579 55.2748C26.2907 51.0625 31.961 48.3514 34.3205 45.3904C36.7513 42.3401 36.8241 39.4444 36.4465 35.7614C33.8071 40.8447 29.8534 45.8234 24.5584 48.4014C21.3662 49.8819 17.2349 50.9353 13.7804 49.8749C11.2606 49.1013 11.1355 46.4141 12.0988 44.3551C13.9154 40.4717 18.2615 38.186 21.8386 36.1949C22.8431 35.6358 24.0662 35.046 25.1483 34.6343C27.2297 34.0944 29.4923 33.921 31.5007 33.0701C32.5715 32.6164 34.9889 31.8876 34.3643 30.322C33.6583 30.2269 27.9893 33.2403 27.1856 32.1032C25.999 30.4245 26.7096 27.0496 28.4391 25.7807C30.2633 24.4423 31.7595 24.5518 33.8791 24.7616C30.6823 20.788 32.6548 16.3046 37.0572 14.3119C39.2929 13.2999 41.9446 13.9658 44.1301 14.8987C44.2151 14.2092 44.3068 13.5495 44.4413 12.8753C45.5844 7.14101 52.171 4.39545 57.1168 7.4376C57.9881 7.97353 58.4502 8.37201 59.1988 9.04692L59.2874 8.90363C60.8586 6.38427 62.6969 4.94778 65.614 4.26586Z" fill="#F8F8F8"/>
<path d="M70.8052 39.9209L70.8725 40.0399C73.2031 44.1188 77.7022 47.5236 82.171 48.8926C91.9035 51.8733 90.6957 65.8835 80.7853 67.6549C82.2001 65.1418 82.6024 63.5904 81.9747 60.7161C83.4187 60.2212 87.3915 57.7965 86.7757 55.9896C86.0478 55.9821 83.6764 58.0919 82.4385 58.5286C78.8873 59.7824 78.456 57.0343 75.4076 56.216C71.8524 55.2608 70.9067 58.1534 74.8776 58.7722C76.1929 59.1356 78.5056 59.8493 79.3672 60.9091C80.3378 62.1036 81.235 66.5509 78.8722 66.8679C76.0026 67.2538 73.875 65.49 71.4268 64.4345C70.0521 63.8427 67.1947 63.7618 66.7533 65.6604L66.8259 65.8857C67.4633 66.0722 69.2298 65.1612 70.4047 65.5623C74.1637 66.8442 75.2095 68.6015 79.4912 68.3967C78.4959 68.9346 77.1464 69.6635 75.9674 69.8877C68.2283 71.3561 59.3897 69.4079 52.5553 65.6733C52.3836 65.5795 51.8169 64.6394 51.655 64.4637C50.8121 63.1979 49.9912 62.4034 48.6595 61.6616C49.3942 60.0002 49.4344 58.1135 48.7712 56.4209C47.8767 54.1848 46.0855 52.89 44.2642 51.5003C44.3266 51.1812 44.3994 50.8426 44.4531 50.5246C46.9695 51.7407 49.4405 52.8059 52.2619 53.0226L52.4833 52.9072C52.5222 52.3628 52.383 51.7105 52.2908 51.1607C53.2907 51.1822 53.9777 51.1661 54.975 51.0949C55.0496 51.5391 55.1588 52.5687 55.4621 52.8425C61.4391 51.538 64.5464 47.5556 64.5577 41.4122C66.6845 40.8519 68.8729 40.6341 70.8052 39.9209Z" fill="#2A231E"/>
<path d="M52.2906 51.1607C53.2905 51.1823 53.9775 51.1661 54.9748 51.095C55.0494 51.5392 55.1586 52.5688 55.4619 52.8426C54.7512 52.931 52.9355 53.1305 52.2617 53.0227L52.4831 52.9073C52.522 52.3628 52.3828 51.7106 52.2906 51.1607Z" fill="#18130C"/>
<path d="M4.84616 43.1704C6.03886 44.1671 9.65643 43.1983 10.1514 43.8893C6.65139 53.2016 21.6511 52.9059 27.5769 51.2628C27.4291 52.0423 27.5962 53.0736 27.5769 53.8628C27.926 56.1721 30.2512 56.7175 32.4769 57.1628C32.9769 58.5628 32.9769 59.9628 33.8769 61.3628C29.6769 60.5628 28.4806 62.3797 27.9575 63.1398C27.6776 63.722 27.5461 64.0195 27.3501 64.6297C24.3237 65.0319 21.6876 66.7644 22.2012 70.1788C22.2666 70.6133 22.3598 71.0424 22.4807 71.465C21.6491 71.8715 21.075 72.2187 20.3605 72.817C18.3271 75.2601 18.2073 76.9182 19.4328 79.7494C18.3286 80.3919 18.0701 80.7876 17.4484 81.8787C16.6705 81.0571 15.6019 80.2442 14.8304 79.4119C12.9786 77.4131 11.1028 75.0757 9.74216 72.7167C7.88172 69.8382 6.5731 66.4841 5.57181 63.2271C4.544 60.134 4.14899 56.671 3.92576 53.428C3.91584 49.188 4.05883 47.2391 4.84616 43.1704Z" fill="#37B055"/>
<path d="M5.57178 63.227C11.3371 62.8691 17.4035 63.3014 23.2043 63.117C24.6786 63.0707 26.4993 63.0502 27.9575 63.1397C27.6776 63.7218 27.5461 64.0194 27.35 64.6296C24.3237 65.0318 21.6875 66.7643 22.2012 70.1787C22.2665 70.6132 22.3598 71.0423 22.4807 71.4649C21.649 71.8714 21.075 72.2185 20.3605 72.8169C18.3271 75.2599 18.2073 76.9181 19.4327 79.7493C18.3286 80.3918 18.0701 80.7875 17.4484 81.8786C16.6704 81.057 15.6019 80.2441 14.8304 79.4118C12.9786 77.413 11.1027 75.0756 9.74212 72.7166C7.88168 69.838 6.57306 66.484 5.57178 63.227Z" fill="#026FF4"/>
<path d="M9.74219 72.7168C10.8693 72.8591 12.2669 72.8246 13.4323 72.8322C15.7417 72.8451 18.0512 72.8397 20.3605 72.8171C18.3271 75.2601 18.2073 76.9183 19.4328 79.7494C18.3286 80.392 18.0701 80.7877 17.4485 81.8787C16.6705 81.0572 15.6019 80.2443 14.8305 79.412C12.9786 77.4131 11.1028 75.0757 9.74219 72.7168Z" fill="#823B8C"/>
<path d="M4.84617 43.1704C6.03886 44.1671 9.65643 43.1983 10.1514 43.8893C6.65139 53.2016 21.6511 52.8059 27.5769 51.1628C27.4291 51.9423 27.5962 52.6183 27.5769 53.4075C25.3939 53.2544 18.4043 53.4075 16.1648 53.4075L3.92576 53.428C3.91584 49.188 4.05883 47.2391 4.84617 43.1704Z" fill="#FBE531"/>
<path d="M15.5378 23.8661C19.7168 19.7008 24.7576 16.501 30.3058 14.4916C31.6177 14.0221 32.9834 13.6782 34.3265 13.3013C31.0934 15.8372 29.54 19.0531 30.8027 23.1198C29.6686 23.2852 28.834 23.4165 27.7708 23.9112C24.9811 25.9144 24.4333 28.3453 24.8922 31.6073C23.6219 32.3569 23.2468 33.6169 22.2738 33.9576C18.318 36.1215 11.9544 39.4287 10.1514 43.8893C9.65645 43.1983 6.03889 44.1671 4.84619 43.1704C5.05216 41.076 7.25035 35.5344 8.2731 33.7255C10.627 29.619 12.0286 27.2455 15.5378 23.8661Z" fill="#F67B1B"/>
<path d="M8.27309 33.7256C10.3032 33.88 21.4219 33.5407 22.2738 33.9577C18.318 36.1216 11.9544 39.4288 10.1514 43.8894C9.65645 43.1984 6.03889 44.1672 4.84619 43.1705C5.05216 41.0761 7.25035 35.5345 8.27309 33.7256Z" fill="#F9B327"/>
<path d="M15.5376 23.8661C19.7167 19.7008 24.7574 16.501 30.3056 14.4916C31.6176 14.0221 32.9832 13.6782 34.3264 13.3013C31.0932 15.8372 29.5398 19.0531 30.8025 23.1198C29.6685 23.2852 28.8338 23.4165 27.7706 23.9112C27.4016 23.7598 16.9311 23.8604 15.5376 23.8661Z" fill="#F52720"/>
<path d="M47.2558 32.3518C49.5695 33.4279 51.4727 34.3618 53.8762 35.3486C56.4461 36.4036 59.6625 37.6346 62.0302 38.9728C62.8395 42.0237 63.1826 43.9814 61.358 46.8639C59.7877 49.345 57.8026 50.4825 54.9749 51.0949C53.9776 51.1661 53.2906 51.1822 52.2907 51.1607C49.9444 51.0507 46.8944 49.7712 44.9236 48.5317C44.7423 47.6565 44.6884 47.4553 44.3153 46.6278C44.503 46.6931 44.6943 46.7481 44.8882 46.7924C46.1827 47.0963 47.7329 47.2392 48.9132 46.4465C52.1329 44.284 51.3476 37.5396 47.3429 36.6668C45.8319 36.3375 44.4426 37.0188 43.2125 37.8533C43.2039 37.2172 43.1203 36.4655 43.0654 35.8232C44.8452 34.3941 45.5673 34.4118 47.2558 32.3518Z" fill="white"/>
<path d="M79.9331 26.4539C80.9436 26.6398 81.5766 26.5053 82.6431 26.9417C84.0558 27.5195 85.0199 28.6058 86.2795 29.3977C87.8636 30.3936 89.9158 31.3729 91.6606 32.0268C92.6743 32.3982 93.7063 32.7174 94.7524 32.9833C96.3753 33.4051 99.0853 33.6931 100.311 34.7404C101.175 35.4786 99.9739 37.4063 99.1824 37.9306C97.0094 39.3698 93.7872 39.3768 91.3069 39.0858C87.7374 38.6669 86.4951 36.1568 84.8495 33.4271C84.3157 32.5629 83.5188 31.6124 83.013 30.7352C82.5752 29.9761 82.3778 29.0369 81.8386 28.2897C81.6564 28.1816 81.4289 28.1625 81.224 28.1992C79.175 28.5668 79.6916 30.6908 78.4935 32.0402C76.6928 33.779 74.4148 35.3588 71.9003 35.6771C71.7746 35.895 71.6462 36.1114 71.5151 36.3262C68.216 41.6723 59.2663 35.9662 55.6035 33.6613C58.0323 33.1605 58.5236 32.5389 60.5847 31.454C64.3099 33.7742 65.4681 33.7921 69.6639 32.3924C74.1979 34.573 79.3832 31.3621 79.9331 26.4539Z" fill="#2A231E"/>
<path d="M74.9298 72.1358C76.8286 71.532 77.5138 71.5137 79.559 70.6501L78.4105 72.8086C74.9594 77.9275 71.2802 82.296 65.7788 85.3719C67.1467 81.4292 67.2344 79.3441 63.4305 76.7707C63.9626 75.3917 64.3191 74.5206 63.9705 73.0112C63.8698 72.6716 63.5204 71.9364 63.3618 71.5806C68.0036 72.1153 69.9281 72.8053 74.9298 72.1358Z" fill="#823B8C"/>
<path d="M63.3618 71.5803C68.0036 72.1151 69.9281 72.8051 74.9298 72.1355L74.8059 72.4568L74.448 72.5679L74.4066 72.6681C74.6932 72.8309 74.7442 72.8363 75.069 72.9183C71.3113 73.1145 67.5576 72.8288 63.9705 73.011C63.8698 72.6714 63.5204 71.9361 63.3618 71.5803Z" fill="#1A65D8"/>
<path d="M74.93 72.1358C76.8288 71.532 77.514 71.5137 79.5592 70.6501L78.4107 72.8086C77.2646 72.8776 76.2175 72.9498 75.0692 72.9185C74.7444 72.8366 74.6934 72.8312 74.4067 72.6684L74.4481 72.5681L74.8061 72.4571L74.93 72.1358Z" fill="#026FF4"/>
<path d="M80.9846 32.238C81.4472 32.3746 82.1913 33.4363 82.5331 33.8232C85.805 37.5326 87.1562 43.4396 83.5738 47.5155C82.6916 47.0817 80.9587 46.6043 79.9019 46.2186C79.243 45.9817 78.9928 45.8586 78.3792 45.5155C79.298 42.6127 79.6786 39.4422 76.4373 37.6822C75.6265 37.2419 75.074 37.2271 74.1743 37.1723C74.5048 36.9357 74.8751 36.7123 75.2218 36.4985C77.252 35.2466 79.1373 33.7448 80.9846 32.238Z" fill="white"/>
<path d="M85.0771 33.8629C84.2771 32.5029 82.6771 29.6296 81.9771 28.3629C81.9771 28.1629 82.1971 27.6829 83.0771 27.3629C84.1771 26.9629 85.0771 28.3629 86.5771 29.2629C88.0771 30.1629 93.477 32.7629 97.677 33.8629C101.877 34.9629 100.377 34.6629 100.677 35.5629C100.977 36.4629 98.2771 38.5629 96.0771 39.2629C93.8771 39.9629 92.1771 39.2629 88.8771 38.1629C85.5771 37.0629 86.0771 35.5629 85.0771 33.8629Z" fill="#F8F8F8"/>
<path d="M126.94 37.28H126.22C122.66 37.28 119.88 38.18 117.88 39.98C115.92 41.74 114.94 44.88 114.94 49.4C114.94 50.88 115.08 51.92 115.36 52.52C115.64 53.08 115.78 53.4 115.78 53.48C113.62 53.48 112 53.04 110.92 52.16C109.88 51.24 109.36 49.74 109.36 47.66C109.36 44.82 110.06 42.24 111.46 39.92C112.86 37.56 115.08 35.66 118.12 34.22C121.2 32.78 125.1 32.06 129.82 32.06C132.46 32.06 135.3 32.3 138.34 32.78C140.9 33.22 143.18 33.44 145.18 33.44C147.74 33.44 150.06 33.02 152.14 32.18C152.06 34.78 151.4 36.7 150.16 37.94C148.92 39.18 147.08 39.8 144.64 39.8C143.36 39.8 142.08 39.7 140.8 39.5C139.52 39.3 137.7 38.96 135.34 38.48L127.06 77H118.42L126.94 37.28ZM146.647 77.24C143.687 77.24 141.347 76.48 139.627 74.96C137.907 73.44 137.047 71.04 137.047 67.76C137.047 65.04 137.607 62.02 138.727 58.7C139.847 55.38 141.647 52.52 144.127 50.12C146.607 47.68 149.727 46.46 153.487 46.46C158.607 46.46 161.167 49.66 161.167 56.06V56.12C161.287 56.16 161.507 56.18 161.827 56.18C163.147 56.18 164.667 55.84 166.387 55.16C168.107 54.44 169.667 53.58 171.067 52.58L171.607 54.2C170.447 55.44 168.927 56.5 167.047 57.38C165.207 58.22 163.187 58.82 160.987 59.18C160.667 62.82 159.847 66 158.527 68.72C157.207 71.44 155.507 73.54 153.427 75.02C151.347 76.5 149.087 77.24 146.647 77.24ZM149.047 71.84C150.007 71.84 150.967 71.3 151.927 70.22C152.887 69.1 153.727 67.6 154.447 65.72C155.167 63.8 155.687 61.68 156.007 59.36C154.927 59.12 154.387 58.28 154.387 56.84C154.387 55.2 155.007 54.12 156.247 53.6C156.167 52.28 155.967 51.38 155.647 50.9C155.327 50.38 154.767 50.12 153.967 50.12C152.647 50.12 151.367 51.08 150.127 53C148.887 54.92 147.887 57.22 147.127 59.9C146.367 62.58 145.987 64.94 145.987 66.98C145.987 68.9 146.207 70.2 146.647 70.88C147.087 71.52 147.887 71.84 149.047 71.84ZM186.814 77.36C184.334 77.36 182.454 76.78 181.174 75.62C179.894 74.42 179.254 72.72 179.254 70.52C179.254 69.56 179.374 68.52 179.614 67.4L180.094 65.06C180.254 64.38 180.334 63.64 180.334 62.84C180.334 60.92 179.614 59.96 178.174 59.96C177.534 59.96 176.854 60.14 176.134 60.5C175.454 60.86 174.654 61.42 173.734 62.18L170.614 77H161.974L170.674 36.2L179.554 35L175.054 56.12L186.634 47H192.574L180.574 55.34C181.174 55.18 181.834 55.1 182.554 55.1C184.714 55.1 186.354 55.76 187.474 57.08C188.594 58.4 189.154 60.08 189.154 62.12C189.154 62.96 189.074 63.72 188.914 64.4L188.254 67.4C188.054 68.12 187.954 68.76 187.954 69.32C187.954 70.8 188.734 71.54 190.294 71.54C191.494 71.54 192.454 71.12 193.174 70.28C193.894 69.4 194.614 68.06 195.334 66.26H197.854C195.374 73.66 191.694 77.36 186.814 77.36ZM203.889 77.36C200.929 77.36 198.629 76.6 196.989 75.08C195.349 73.52 194.529 71.1 194.529 67.82C194.529 65.06 195.069 62.02 196.149 58.7C197.229 55.38 198.989 52.52 201.429 50.12C203.869 47.68 206.969 46.46 210.729 46.46C215.129 46.46 217.329 48.38 217.329 52.22C217.329 54.46 216.689 56.52 215.409 58.4C214.129 60.28 212.429 61.8 210.309 62.96C208.189 64.08 205.929 64.72 203.529 64.88C203.449 66.08 203.409 66.88 203.409 67.28C203.409 69.24 203.749 70.58 204.429 71.3C205.109 71.98 206.209 72.32 207.729 72.32C209.889 72.32 211.729 71.82 213.249 70.82C214.809 69.82 216.509 68.3 218.349 66.26H220.389C215.949 73.66 210.449 77.36 203.889 77.36ZM204.009 62C205.489 61.92 206.889 61.4 208.209 60.44C209.569 59.48 210.649 58.26 211.449 56.78C212.289 55.3 212.709 53.74 212.709 52.1C212.709 50.46 212.209 49.64 211.209 49.64C209.769 49.64 208.349 50.9 206.949 53.42C205.589 55.94 204.609 58.8 204.009 62ZM238.976 77.36C236.856 77.36 235.316 76.72 234.356 75.44C233.396 74.16 232.916 72.54 232.916 70.58C232.916 69.74 233.016 68.8 233.216 67.76C233.416 66.68 233.616 65.64 233.816 64.64C234.056 63.64 234.216 63 234.296 62.72C234.616 61.32 234.916 59.94 235.196 58.58C235.476 57.22 235.616 56.12 235.616 55.28C235.616 53.24 234.896 52.22 233.456 52.22C232.416 52.22 231.496 52.74 230.696 53.78C229.896 54.78 229.256 56.1 228.776 57.74L224.696 77H216.056L222.416 47H231.056L230.396 50.12C232.396 47.88 234.736 46.76 237.416 46.76C239.456 46.76 241.076 47.32 242.276 48.44C243.476 49.56 244.076 51.26 244.076 53.54C244.076 54.7 243.936 56 243.656 57.44C243.376 58.84 242.976 60.56 242.456 62.6C242.136 63.84 241.836 65.06 241.556 66.26C241.316 67.42 241.196 68.34 241.196 69.02C241.196 69.82 241.376 70.44 241.736 70.88C242.096 71.32 242.716 71.54 243.596 71.54C244.556 71.54 245.216 71.42 245.576 71.18C245.336 73.22 244.596 74.76 243.356 75.8C242.156 76.84 240.696 77.36 238.976 77.36ZM260.282 78.08C257.762 78.08 255.542 77.64 253.622 76.76C251.702 75.88 250.222 74.66 249.182 73.1C248.142 71.5 247.622 69.66 247.622 67.58C247.622 65.82 247.982 64.22 248.702 62.78C249.462 61.34 250.462 60.2 251.702 59.36C252.982 58.52 254.382 58.1 255.902 58.1C257.302 58.1 258.482 58.46 259.442 59.18C260.402 59.86 261.002 60.82 261.242 62.06C259.162 62.06 257.502 62.62 256.262 63.74C255.022 64.82 254.402 66.3 254.402 68.18C254.402 69.9 254.922 71.28 255.962 72.32C257.002 73.36 258.382 73.88 260.102 73.88C262.222 73.88 263.962 73.18 265.322 71.78C266.722 70.34 267.422 68.54 267.422 66.38C267.422 64.5 266.902 62.72 265.862 61.04C264.822 59.36 263.262 57.32 261.182 54.92C259.022 52.44 257.382 50.32 256.262 48.56C255.182 46.76 254.642 44.8 254.642 42.68C254.642 40.6 255.222 38.74 256.382 37.1C257.542 35.42 259.142 34.1 261.182 33.14C263.222 32.18 265.522 31.7 268.082 31.7C271.322 31.7 273.902 32.46 275.822 33.98C277.782 35.5 278.762 37.54 278.762 40.1C278.762 41.78 278.342 43.14 277.502 44.18C276.662 45.22 275.562 45.74 274.202 45.74C272.682 45.74 271.462 45.12 270.542 43.88C271.302 43.32 271.902 42.58 272.342 41.66C272.782 40.74 273.002 39.78 273.002 38.78C273.002 37.5 272.622 36.48 271.862 35.72C271.102 34.96 270.062 34.58 268.742 34.58C267.142 34.58 265.822 35.16 264.782 36.32C263.782 37.44 263.282 38.88 263.282 40.64C263.282 42.24 263.742 43.74 264.662 45.14C265.582 46.5 267.022 48.26 268.982 50.42C270.582 52.14 271.862 53.62 272.822 54.86C273.822 56.1 274.662 57.54 275.342 59.18C276.062 60.78 276.422 62.52 276.422 64.4C276.422 66.96 275.702 69.28 274.262 71.36C272.862 73.44 270.922 75.08 268.442 76.28C266.002 77.48 263.282 78.08 260.282 78.08ZM300.381 77.36C298.261 77.36 296.721 76.72 295.761 75.44C294.801 74.16 294.321 72.54 294.321 70.58C294.321 69.74 294.421 68.8 294.621 67.76C294.821 66.68 295.021 65.64 295.221 64.64C295.461 63.64 295.621 63 295.701 62.72C296.021 61.32 296.321 59.94 296.601 58.58C296.881 57.22 297.021 56.12 297.021 55.28C297.021 53.24 296.301 52.22 294.861 52.22C293.901 52.22 293.021 52.66 292.221 53.54C291.461 54.42 290.841 55.58 290.361 57.02L286.101 77H277.461L286.161 36.2L295.041 35L291.801 50.06C293.801 47.86 296.141 46.76 298.821 46.76C300.861 46.76 302.481 47.32 303.681 48.44C304.881 49.56 305.481 51.26 305.481 53.54C305.481 54.7 305.341 56 305.061 57.44C304.781 58.84 304.381 60.56 303.861 62.6C303.541 63.84 303.241 65.06 302.961 66.26C302.721 67.42 302.601 68.34 302.601 69.02C302.601 69.82 302.781 70.44 303.141 70.88C303.501 71.32 304.121 71.54 305.001 71.54C305.961 71.54 306.621 71.42 306.981 71.18C306.741 73.22 306.001 74.76 304.761 75.8C303.561 76.84 302.101 77.36 300.381 77.36ZM337.024 43.76C335.704 43.76 334.584 43.3 333.664 42.38C332.744 41.46 332.284 40.34 332.284 39.02C332.284 37.7 332.744 36.58 333.664 35.66C334.584 34.7 335.704 34.22 337.024 34.22C338.344 34.22 339.464 34.7 340.384 35.66C341.344 36.58 341.824 37.7 341.824 39.02C341.824 40.34 341.344 41.46 340.384 42.38C339.464 43.3 338.344 43.76 337.024 43.76ZM332.944 77.36C331.024 77.36 329.464 76.76 328.264 75.56C327.104 74.36 326.524 72.56 326.524 70.16C326.524 69.16 326.684 67.86 327.004 66.26L331.084 47H339.724L335.404 67.4C335.244 68 335.164 68.64 335.164 69.32C335.164 70.12 335.344 70.7 335.704 71.06C336.104 71.38 336.744 71.54 337.624 71.54C338.344 71.54 338.984 71.42 339.544 71.18C339.384 73.18 338.664 74.72 337.384 75.8C336.144 76.84 334.664 77.36 332.944 77.36ZM361.119 44.78H369.759L368.799 49.28C370.799 47.56 373.139 46.7 375.819 46.7C378.059 46.7 379.839 47.44 381.159 48.92C382.479 50.4 383.139 52.82 383.139 56.18C383.139 59.34 382.679 62.54 381.759 65.78C380.839 68.98 379.279 71.72 377.079 74C374.879 76.24 371.979 77.36 368.379 77.36C365.819 77.36 364.119 76.64 363.279 75.2L360.159 89.84L351.099 92L361.119 44.78ZM366.519 72.14C368.439 72.14 370.019 71.24 371.259 69.44C372.539 67.64 373.459 65.5 374.019 63.02C374.619 60.5 374.919 58.16 374.919 56C374.919 52.68 373.919 51.02 371.919 51.02C371.199 51.02 370.459 51.28 369.699 51.8C368.979 52.32 368.339 53.04 367.779 53.96L364.239 70.76C364.559 71.68 365.319 72.14 366.519 72.14Z" fill="#191919"/>
<rect x="348.658" y="36.3992" width="11.7972" height="54.2672" transform="rotate(45 348.658 36.3992)" fill="#FEFEFE"/>
<rect width="11.7972" height="54.2672" transform="matrix(0.707107 -0.707107 -0.707107 -0.707107 345.837 83.1138)" fill="#FEFEFE"/>
<path d="M317.46 77.36C314.54 77.36 312.26 76.6 310.62 75.08C308.98 73.52 308.16 71.1 308.16 67.82C308.16 65.06 308.7 62.02 309.78 58.7C310.86 55.38 312.62 52.52 315.06 50.12C317.5 47.68 320.6 46.46 324.36 46.46C328.76 46.46 330.96 48.38 330.96 52.22C330.96 54.46 330.32 56.52 329.04 58.4C327.76 60.28 326.06 61.8 323.94 62.96C321.82 64.08 319.56 64.72 317.16 64.88C317.08 65.76 317.04 66.36 317.04 66.68C317.04 70 318.28 71.66 320.76 71.66C321.88 71.66 323.08 71.36 324.36 70.76C325.64 70.16 326.8 69.4 327.84 68.48C326.76 74.4 323.3 77.36 317.46 77.36ZM317.58 62C319.1 61.96 320.52 61.46 321.84 60.5C323.2 59.54 324.28 58.32 325.08 56.84C325.92 55.32 326.34 53.74 326.34 52.1C326.34 50.46 325.84 49.64 324.84 49.64C323.44 49.64 322.04 50.92 320.64 53.48C319.28 56 318.26 58.84 317.58 62ZM342.84 77.36C339.92 77.36 337.64 76.6 336 75.08C334.36 73.52 333.54 71.1 333.54 67.82C333.54 65.06 334.08 62.02 335.16 58.7C336.24 55.38 338 52.52 340.44 50.12C342.88 47.68 345.98 46.46 349.74 46.46C354.14 46.46 356.34 48.38 356.34 52.22C356.34 54.46 355.7 56.52 354.42 58.4C353.14 60.28 351.44 61.8 349.32 62.96C347.2 64.08 344.94 64.72 342.54 64.88C342.46 65.76 342.42 66.36 342.42 66.68C342.42 70 343.66 71.66 346.14 71.66C347.26 71.66 348.46 71.36 349.74 70.76C351.02 70.16 352.18 69.4 353.22 68.48C352.14 74.4 348.68 77.36 342.84 77.36ZM342.96 62C344.48 61.96 345.9 61.46 347.22 60.5C348.58 59.54 349.66 58.32 350.46 56.84C351.3 55.32 351.72 53.74 351.72 52.1C351.72 50.46 351.22 49.64 350.22 49.64C348.82 49.64 347.42 50.92 346.02 53.48C344.66 56 343.64 58.84 342.96 62Z" fill="#FE6E31"/>
</svg>
